<?xml version="1.0" encoding="utf-8"?>
<!-- Generator: Adobe Illustrator 24.1.2, SVG Export Plug-In . SVG Version: 6.00 Build 0)  -->
<svg version="1.1" id="Ebene_1" xmlns="http://www.w3.org/2000/svg" xmlns:xlink="http://www.w3.org/1999/xlink" x="0px" y="0px"
	 viewBox="0 0 65.8 65.8" style="enable-background:new 0 0 65.8 65.8;" xml:space="preserve">
<style type="text/css">
	.st0{fill:#CEE0EA;stroke:#001F2E;stroke-miterlimit:10;}
	.st1{fill:none;stroke:#0B242C;stroke-width:1.092;stroke-linecap:round;stroke-linejoin:round;stroke-miterlimit:22.926;}
</style>
<g>
	<g>
		<g>
			<g>
				<path class="st0" d="M32.9,59.1c14.5,0,26.2-11.8,26.2-26.2S47.4,6.7,32.9,6.7S6.7,18.4,6.7,32.9S18.4,59.1,32.9,59.1"/>
			</g>
		</g>
		<g>
			<g>
				<path class="st1" d="M35.5,40.3v4.4 M28.9,41.4v4.4 M34.8,45.6c-0.2,1.2-1.6,1.9-3,1.8c-1-0.1-1.8-0.5-2.1-1.1 M28.3,41.5
					l7.7-1.4 M28.3,43.7l7.7-1.4 M28.3,46l7.7-1.4 M28.4,41.3c-0.3-5.3-4.4-2.6-4.9-9.6c-0.3-4.5,3.9-8.1,8.6-8.1s9,3.6,8.6,8.1
					c-0.4,6-3.4,4.8-4.6,8 M22.6,41.2l1.8-1.8 M18.4,31.1H21 M23,21.5l1.8,1.8 M41.5,41.2l-1.8-1.8 M46.1,31.5h-2.6 M41.9,21.5
					L40,23.4 M32.5,17.9v2.6 M28.6,33.5l3.1,3.5l5.9-6.7"/>
			</g>
		</g>
	</g>
</g>
</svg>
