<?xml version="1.0" encoding="utf-8"?>
<!-- Generator: Adobe Illustrator 24.1.2, SVG Export Plug-In . SVG Version: 6.00 Build 0)  -->
<svg version="1.1" id="Ebene_1" xmlns="http://www.w3.org/2000/svg" xmlns:xlink="http://www.w3.org/1999/xlink" x="0px" y="0px"
	 viewBox="0 0 65.8 65.8" style="enable-background:new 0 0 65.8 65.8;" xml:space="preserve">
<style type="text/css">
	.st0{fill:#CEE0EA;stroke:#001F2E;stroke-miterlimit:10;}
	.st1{fill:none;stroke:#0B242C;stroke-width:1.09;stroke-linecap:round;stroke-linejoin:round;stroke-miterlimit:22.926;}
</style>
<g>
	<g>
		<g>
			<g>
				<g>
					<path class="st0" d="M32.9,59.1c14.5,0,26.2-11.8,26.2-26.2S47.4,6.7,32.9,6.7S6.7,18.4,6.7,32.9S18.4,59.1,32.9,59.1"/>
				</g>
			</g>
		</g>
	</g>
	<g>
		<g>
			<g>
				<g>
					<path class="st1" d="M43,32.7h-3.5 M41.3,41.1c0.3,0,0.6,0.3,0.6,0.6s-0.3,0.6-0.6,0.6s-0.6-0.3-0.6-0.6S41,41.1,41.3,41.1z
						 M45.9,41.7h-0.8 M41.3,46.2v-0.7 M36.6,41.7h0.8 M41.3,36.9v0.8 M41.3,35.1v-2.4 M41.3,35.1c3.5,0,6.5,2.8,6.5,6.5
						s-2.8,6.5-6.5,6.5c-3.6,0-6.5-2.8-6.5-6.5C34.7,38,37.7,35.1,41.3,35.1z M44.4,38.5l-3.2,3 M47.4,35.7L46,37 M38.2,26.3h-5.3
						c-0.5,0-1-0.4-1-1V20L38.2,26.3z M38.2,35.7v-9.4 M31.9,20H20.5c-0.5,0-1,0.4-1,1v23.3c0,0.5,0.4,1,1,1h8.4h7 M22.7,24.4h6.4
						 M28.2,38.2h5.3 M23,37.9l1,1.3l2-2.6 M28.2,34.1h5 M23,33.9l1,1.3l2-2.6 M28.2,30h6.4 M23,29.7l1,1.3l2-2.6"/>
				</g>
			</g>
		</g>
	</g>
</g>
</svg>
