<?xml version="1.0" encoding="utf-8"?>
<!-- Generator: Adobe Illustrator 24.1.2, SVG Export Plug-In . SVG Version: 6.00 Build 0)  -->
<svg version="1.1" id="Ebene_1" xmlns="http://www.w3.org/2000/svg" xmlns:xlink="http://www.w3.org/1999/xlink" x="0px" y="0px"
	 viewBox="0 0 65.8 65.8" style="enable-background:new 0 0 65.8 65.8;" xml:space="preserve">
<style type="text/css">
	.st0{fill:#CEE0EA;stroke:#001F2E;stroke-miterlimit:10;}
	.st1{fill:none;stroke:#0B242C;stroke-width:1.272;stroke-linecap:round;stroke-linejoin:round;stroke-miterlimit:22.926;}
</style>
<g>
	<path class="st0" d="M32.9,59.1c14.5,0,26.2-11.8,26.2-26.2S47.4,6.7,32.9,6.7S6.7,18.4,6.7,32.9S18.4,59.1,32.9,59.1"/>
	<path class="st1" d="M21.4,26.8c3.4-0.7,6.1-2.8,7.7-5.7c2.1,2.1,5,3.4,8.2,3.4c2,0,4-0.5,5.6-1.6 M32.9,45c1.3,0,2.2,1,2.2,2.2
		c0,1.3-1,2.2-2.2,2.2c-1.3,0-2.2-1-2.2-2.2C30.7,45.9,31.6,45,32.9,45z M28.5,36.4c0.4,1.6,2.1,2.8,4.4,2.8s3.9-1.2,4.4-2.8
		 M44.5,37.2c2.6-0.2,4.7-2.5,4.7-5.4s-2.1-5.2-4.7-5.4 M21.2,37.2c-2.6-0.2-4.7-2.5-4.7-5.4s2-5.2,4.7-5.4 M28.9,29.5
		c0.4,0,0.8,0.3,0.8,0.8c0,0.4-0.3,0.8-0.8,0.8s-0.8-0.3-0.8-0.8C28.2,29.9,28.5,29.5,28.9,29.5z M36.9,29.5c0.4,0,0.8,0.3,0.8,0.8
		c0,0.4-0.3,0.8-0.8,0.8c-0.4,0-0.8-0.3-0.8-0.8C36.1,29.9,36.4,29.5,36.9,29.5z M35.1,47.3c2.1-0.3,4.4-1.1,5.8-2.5
		c1.8-1.8,3.3-4.9,3.3-7.7v-9.5c0-2.8-1.5-5.5-3.3-7.4c-1.8-1.8-4.7-3.2-7.4-3.2h-1.4c-2.8,0-5.5,1.5-7.4,3.3s-3.3,4.7-3.3,7.4v9.4"
		/>
</g>
</svg>
