<?xml version="1.0" encoding="utf-8"?>
<!-- Generator: Adobe Illustrator 24.1.2, SVG Export Plug-In . SVG Version: 6.00 Build 0)  -->
<svg version="1.1" id="Ebene_1" xmlns="http://www.w3.org/2000/svg" xmlns:xlink="http://www.w3.org/1999/xlink" x="0px" y="0px"
	 viewBox="0 0 65.8 65.8" style="enable-background:new 0 0 65.8 65.8;" xml:space="preserve">
<style type="text/css">
	.st0{fill:#CEE0EA;stroke:#001F2E;stroke-miterlimit:10;}
	.st1{fill:none;stroke:#0B242C;stroke-width:1.099;stroke-linecap:round;stroke-linejoin:round;stroke-miterlimit:22.926;}
</style>
<g>
	<g>
		<g>
			<g>
				<g>
					<path class="st0" d="M32.9,59.1c14.5,0,26.2-11.8,26.2-26.2S47.4,6.7,32.9,6.7S6.7,18.4,6.7,32.9S18.4,59.1,32.9,59.1"/>
				</g>
			</g>
		</g>
	</g>
	<g>
		<g>
			<g>
				<g>
					<path class="st1" d="M31.1,29.5c0-1,0.9-1.8,1.8-1.8c1,0,1.8,0.9,1.8,1.8 M32.9,37.7c1,0,1.8,0.9,1.8,1.8s-0.9,1.8-1.8,1.8
						c-1,0-1.8-0.8-1.8-1.8S31.9,37.7,32.9,37.7z M40.6,37.6c2.1-0.2,4,1.4,4.2,3.5 M40.5,35.3c3.4-0.3,6.4,2.1,6.7,5.5
						s-2.1,6.4-5.5,6.7S35.3,45.4,35,42S37,35.7,40.5,35.3z M24.4,37.6c2.1-0.2,4,1.4,4.2,3.5 M24.2,35.3c3.4-0.3,6.4,2.1,6.7,5.5
						c0.3,3.4-2.1,6.4-5.5,6.7S19,45.4,18.7,42C18.4,38.7,20.8,35.7,24.2,35.3z M41.3,23.1L40.7,21c-0.3-1.1-1.1-2.1-2.4-2.1
						c-1.4,0-2.5,1-2.5,2.1v2.8 M46.8,39.7l-3.4-13.4c-0.5-1.9-1.9-3.5-4.3-3.5s-4.3,1.6-4.3,3.5v14.6 M24.4,23.1L25,21
						c0.3-1.1,1.1-2.1,2.4-2.1c1.4,0,2.5,1,2.5,2.1v2.8 M18.9,39.7l3.4-13.4c0.5-1.9,1.9-3.5,4.3-3.5s4.3,1.6,4.3,3.5v14.6"/>
				</g>
			</g>
		</g>
	</g>
</g>
</svg>
