<?xml version="1.0" encoding="utf-8"?>
<!-- Generator: Adobe Illustrator 24.0.1, SVG Export Plug-In . SVG Version: 6.00 Build 0)  -->
<svg version="1.1" id="Ebene_1" xmlns="http://www.w3.org/2000/svg" xmlns:xlink="http://www.w3.org/1999/xlink" x="0px" y="0px"
	 viewBox="0 0 84.3 53.1" style="enable-background:new 0 0 84.3 53.1;" xml:space="preserve">
<style type="text/css">
	.st0{fill:#003551;}
	.st1{fill:none;}
	.st2{enable-background:new    ;}
	.st3{fill:#FFFFFF;}
</style>
<g>
	<path class="st0" d="M42.2,21.1l-14.4-7.6v15.9c0,0.2,0.1,0.3,0.3,0.5l14.1,7.3V21.1L42.2,21.1z"/>
	<path class="st0" d="M42.8,20.2l14.5-7.4L42.9,6.4c-0.1,0-0.2,0-0.3,0l-14,6.3L42.8,20.2z"/>
	<path class="st0" d="M43.2,21.1v16l14.1-7.3c0.2-0.1,0.3-0.2,0.3-0.5V13.7L43.2,21.1z"/>
</g>
<rect x="43.3" y="21.9" class="st1" width="14.4" height="8.3"/>
<g class="st2">
	<path class="st3" d="M53,25.3c0,1.3-0.8,2.1-2.2,2.7c-0.8,0.5-1.7,0.7-2.1,0.7l0.2-1.1c0.3-0.1,1.3-0.3,1.7-0.6
		c0.7-0.3,0.9-0.7,0.9-1v-0.3c0-0.3-0.2-0.5-0.6-0.2c-0.2,0.1-0.6,0.3-1,0.6l-0.5-0.6l1.6-2.3l-2.3,1.1v-1l3.8-1.8v0.9l-1.4,1.9
		c0,0,0.1-0.1,0.2-0.1c0.8-0.3,1.4-0.3,1.4,0.8v0.3H53z"/>
</g>
<g>
	<path class="st3" d="M38.5,29.2c-0.1,0.1-0.1,0.1-0.2,0l0,0C38,29.3,38,29.3,38,29.3l0,0c-0.9,0.1-1.8-0.6-4.1-1.6l3.2,0.8
		l-2.3-0.9l-0.1-0.5l-0.8-0.5l0.9,0.3l1.1,0.3v0.2l0,0l0.7,0.2c0.9,0.2,1.5-0.3,1.3-1.5v-0.2c-0.2-1.1-0.9-2.3-1.8-2.5l-0.6-0.1l0,0
		v0.1v0.1L34.2,23L34,23.2v-0.3l-0.7-0.5l1.4,0.5l1.5,0.5l-1.5-0.6L34,22.4v-0.2c0,0-0.7-0.3-0.8-0.5l2.4,0.8
		c0.7,0.2,1.5,0.7,2.2,1.3c0.1,0,0.2,0.2,0.3,0.3c0.3,0.3,0.7,0.9,1,1.8c0,0-0.2-0.7-0.6-1.5v-0.2c0-0.7-0.5-1.5-1-1.8l-4.9-2.9
		c-0.6-0.3-1,0-1,0.7V26c0,0.7,0.5,1.5,1,1.8l4.9,2.9c0.6,0.3,1,0,1-0.7v-0.1c0.3-0.3,0.6-1,0.6-1C38.9,29,38.8,29.1,38.5,29.2z
		 M34.2,23.4l1.4,0.5l0.1,0.7L34.3,24v-0.3h-0.1l-0.7-0.5L34.2,23.4z M34,24.2l1.6,0.6l0.1,0.7l-1.4-0.6l-0.1-0.3l-0.7-0.3
		C33.5,24.2,34,24.2,34,24.2z M34.1,25.1l1.6,0.6l0.1,0.7l-1.4-0.6l-0.1-0.5L34.1,25.1L33.7,25L34.1,25.1z M34.3,26l1.5,0.6l0.1,0.7
		l-1.5-0.6v-0.5L34.3,26l-0.6-0.2L34.3,26z"/>
</g>
<g>
	<path class="st0" d="M20.2,47.3v1.3h-0.9v-4.4h1.5c1,0,1.5,0.5,1.5,1.6c0,1.3-0.6,1.7-1.5,1.7h-0.6V47.3z M20.6,46.5
		c0.5,0,0.7-0.2,0.7-0.9s-0.2-0.8-0.7-0.8H20v1.7H20.6z"/>
	<path class="st0" d="M22.9,45.3h0.9v0.5c0,0,0.3-0.5,0.8-0.6v0.9c-0.5,0.1-0.8,0.3-0.8,0.3v2.2h-0.9V45.3z"/>
	<path class="st0" d="M27.6,47.8v0.7c0,0-0.5,0.2-1.1,0.2c-1,0-1.4-0.5-1.4-1.6c0-1,0.3-1.8,1.4-1.8c0.8,0,1.3,0.3,1.3,1
		c0,0.8-0.6,1-1.6,1H26v0.1c0,0.3,0.2,0.6,0.6,0.6C27,47.9,27.6,47.8,27.6,47.8z M26.2,46.6c0.5,0,0.7,0,0.7-0.3
		c0-0.2-0.1-0.3-0.5-0.3c-0.3,0-0.5,0.3-0.5,0.7h0.3V46.6z"/>
	<path class="st0" d="M30.3,48.6v-1.7c0-0.7-0.1-0.9-0.5-0.9s-0.6,0.3-0.6,0.3v2.3h-0.9v-3.3h0.9v0.3c0,0,0.3-0.5,0.8-0.5
		c0.7,0,0.9,0.5,0.9,0.5s0.5-0.5,0.9-0.5c0.8,0,1,0.7,1,1.5v1.9H32v-1.8c0-0.6-0.1-0.8-0.5-0.8c-0.3,0-0.5,0.3-0.5,0.3s0,0.2,0,0.5
		v1.8h-0.7V48.6z"/>
	<path class="st0" d="M33.9,44h0.9v0.9h-0.9V44z M33.9,45.3h0.9v3.3h-0.9V45.3z"/>
	<path class="st0" d="M38.3,45.3v3.3h-0.9v-0.3c0,0-0.3,0.5-0.8,0.5c-0.8,0-1-0.5-1-1.4v-2.1h0.9v1.8c0,0.6,0.1,0.8,0.5,0.8
		c0.3,0,0.6-0.3,0.6-0.3v-2.3C37.5,45.3,38.3,45.3,38.3,45.3z"/>
	<path class="st0" d="M40.9,48.6v-1.7c0-0.7-0.1-0.9-0.5-0.9c-0.3,0-0.6,0.3-0.6,0.3v2.3H39v-3.3h0.9v0.3c0,0,0.3-0.5,0.8-0.5
		c0.7,0,0.9,0.5,0.9,0.5s0.5-0.5,0.9-0.5c0.8,0,1,0.7,1,1.5v1.9h-0.9v-1.8c0-0.6-0.1-0.8-0.5-0.8s-0.5,0.3-0.5,0.3s0,0.2,0,0.5v1.8
		h-0.7V48.6z"/>
	<path class="st0" d="M44.5,46.4h1.7v0.8h-1.7V46.4z"/>
	<path class="st0" d="M48,47.3v1.3h-0.9v-4.4h1.5c1,0,1.5,0.5,1.5,1.6c0,1.3-0.6,1.7-1.5,1.7H48V47.3z M48.6,46.5
		c0.5,0,0.7-0.2,0.7-0.9s-0.2-0.8-0.7-0.8H48v1.7H48.6z"/>
	<path class="st0" d="M50.7,47c0-1,0.2-1.8,1.4-1.8c0.5,0,1.5,0.1,1.5,0.1v2.3c0,0.2,0,0.9,0,0.9h-0.9c0,0,0-0.2,0-0.5
		c0,0-0.2,0.5-0.8,0.5C51,48.7,50.7,48.1,50.7,47z M51.7,47c0,0.6,0.1,0.9,0.5,0.9c0.3,0,0.6-0.5,0.6-0.5V46c0,0-0.3,0-0.5,0
		C51.8,46,51.7,46.3,51.7,47z"/>
	<path class="st0" d="M56.4,45.4v0.7c0,0-0.5,0-0.7,0c-0.5,0-0.7,0.3-0.7,0.9c0,0.7,0.1,1,0.7,1c0.2,0,0.7,0,0.7,0v0.7
		c0,0-0.5,0.1-0.9,0.1c-0.9,0-1.3-0.7-1.3-1.7c0-1.1,0.5-1.7,1.3-1.7C56,45.3,56.4,45.4,56.4,45.4z"/>
	<path class="st0" d="M57.1,48.6V44H58v2.6h0.2l0.7-1.3h1L59.1,47l0.9,1.7h-1l-0.7-1.3H58v1.1L57.1,48.6L57.1,48.6z"/>
	<path class="st0" d="M62.7,47.8v0.7c0,0-0.5,0.2-1.1,0.2c-1,0-1.4-0.5-1.4-1.6c0-1,0.3-1.8,1.4-1.8c0.8,0,1.3,0.3,1.3,1
		c0,0.8-0.6,1-1.6,1H61v0.1c0,0.3,0.2,0.6,0.6,0.6C62.1,47.9,62.7,47.8,62.7,47.8z M61.3,46.6c0.5,0,0.7,0,0.7-0.3
		c0-0.2-0.1-0.3-0.5-0.3S61,46.3,61,46.7h0.3V46.6z"/>
	<path class="st0" d="M64.7,46.1v1.5c0,0.2,0,0.3,0.2,0.3s0.5,0,0.5,0v0.7c0,0-0.5,0.1-0.7,0.1c-0.8,0-0.9-0.3-0.9-1.1v-1.5h-0.3
		v-0.8h0.3v-0.8h0.9v0.8h0.7v0.8C65.3,46.1,64.7,46.1,64.7,46.1z"/>
</g>
</svg>
