<?xml version="1.0" encoding="utf-8"?>
<!-- Generator: Adobe Illustrator 24.0.1, SVG Export Plug-In . SVG Version: 6.00 Build 0)  -->
<svg version="1.1" id="Ebene_1" xmlns="http://www.w3.org/2000/svg" xmlns:xlink="http://www.w3.org/1999/xlink" x="0px" y="0px"
	 viewBox="0 0 84.3 53.1" style="enable-background:new 0 0 84.3 53.1;" xml:space="preserve">
<style type="text/css">
	.st0{fill:#003551;}
	.st1{fill:none;}
	.st2{enable-background:new    ;}
	.st3{fill:#FFFFFF;}
</style>
<g>
	<path class="st0" d="M42.1,21.1l-14.3-7.7v15.8c0,0.2,0.1,0.3,0.3,0.4L42.2,37L42.1,21.1L42.1,21.1z"/>
	<path class="st0" d="M42.6,20.2l14.5-7.4L42.8,6.4c-0.1,0-0.2,0-0.3,0l-14,6.3L42.6,20.2z"/>
	<path class="st0" d="M43,21.1V37l14.1-7.2c0.2-0.1,0.3-0.2,0.3-0.4V13.7L43,21.1z"/>
</g>
<rect x="43.1" y="21.9" class="st1" width="14.3" height="8.3"/>
<g class="st2">
	<path class="st3" d="M50.1,28.2v-4.4L49,25l-0.5-0.5l1.8-2.1l1.2-0.5v5.6L50.1,28.2z"/>
</g>
<g>
	<path class="st3" d="M38.3,29.2c-0.1,0.1-0.1,0.1-0.2,0l0,0c-0.3,0.1-0.3,0.1-0.3,0.1l0,0c-1,0.1-1.8-0.5-4-1.6l3.2,0.7l-2.2-1
		l-0.2-0.4l-0.7-0.4l1,0.3l1.2,0.3v0.2l0,0l0.6,0.2c1,0.2,1.5-0.3,1.3-1.5V26c-0.2-1.2-1-2.2-1.8-2.5l-0.5-0.1l0,0v0.1v0.1l-1.3-0.4
		l-0.3-0.1v-0.3l-0.6-0.4l1.4,0.4l1.5,0.4l-1.6-0.5l-0.6-0.3v-0.3c0,0-0.6-0.3-0.7-0.4l2.3,0.7c0.6,0.2,1.5,0.6,2.1,1.3
		c0.1,0,0.2,0.2,0.3,0.3c0.3,0.3,0.6,1,1.1,1.8c0,0-0.2-0.6-0.5-1.5v-0.1c0-0.6-0.4-1.5-1.1-1.8l-4.9-2.9c-0.5-0.3-1.1,0-1.1,0.6
		v5.8c0,0.6,0.4,1.5,1.1,1.8l4.9,2.9c0.5,0.3,1.1,0,1.1-0.6v-0.1c0.3-0.3,0.5-1.1,0.5-1.1C38.8,28.9,38.7,29,38.3,29.2z M34.1,23.4
		l1.4,0.4l0.1,0.6l-1.4-0.5v-0.3h-0.1l-0.6-0.4L34.1,23.4z M33.9,24.2l1.6,0.5l0.1,0.6l-1.4-0.5l-0.1-0.3l-0.6-0.3H33.9z M34,25.1
		l1.6,0.5l0.1,0.6l-1.4-0.5l-0.1-0.4L34,25.1L33.7,25L34,25.1z M34.2,26l1.5,0.5l0.1,0.6l-1.5-0.5v-0.4L34.2,26l-0.5-0.2L34.2,26z"
		/>
</g>
<g>
	<path class="st0" d="M27.7,45.4c0,0-0.7-0.1-1.1-0.1S26,45.4,26,45.7s0.1,0.3,0.7,0.5c0.9,0.3,1.2,0.5,1.2,1.3
		c0,0.9-0.4,1.3-1.4,1.3c-0.5,0-1.2-0.1-1.2-0.1v-0.6c0,0,0.9,0.1,1.2,0.1c0.3,0,0.5-0.1,0.5-0.5s-0.1-0.4-0.7-0.6
		c-0.9-0.2-1.2-0.5-1.2-1.2c0-0.9,0.4-1.3,1.4-1.3c0.5,0,1.2,0.1,1.2,0.1V45.4z"/>
	<path class="st0" d="M28.4,47.3c0-1,0.2-1.6,1.3-1.6c0.4,0,1.4,0.1,1.4,0.1v2.1c0,0.1,0,0.9,0,0.9h-0.9c0,0,0-0.2,0-0.4
		c0,0-0.2,0.4-0.7,0.4C28.6,48.9,28.4,48.4,28.4,47.3z M29.1,47.3c0,0.5,0.1,0.9,0.4,0.9s0.5-0.4,0.5-0.4v-1.4c0,0-0.3,0-0.4,0
		C29.4,46.3,29.1,46.7,29.1,47.3z"/>
	<path class="st0" d="M32.4,45.7l0.4,2.3h0.1l0.4-2.3h0.9l-0.7,3.1h-1.2l-0.7-3.1H32.4z"/>
	<path class="st0" d="M36.8,48.1v0.5c0,0-0.4,0.2-1.1,0.2c-0.9,0-1.3-0.4-1.3-1.5c0-1,0.3-1.7,1.3-1.7c0.7,0,1.2,0.3,1.2,1
		s-0.5,1-1.5,1h-0.2v0.1c0,0.3,0.2,0.5,0.5,0.5C36.3,48.2,36.8,48.1,36.8,48.1z M35.6,47c0.4,0,0.6,0,0.6-0.3c0-0.2-0.1-0.3-0.4-0.3
		s-0.4,0.3-0.4,0.6H35.6z"/>
	<path class="st0" d="M37.6,45.7h0.9v0.4c0,0,0.3-0.4,0.7-0.5v0.9c-0.4,0.1-0.7,0.3-0.7,0.3v2h-0.9V45.7z"/>
	<path class="st0" d="M39.7,46.8h1.6v0.7h-1.6V46.8z"/>
	<path class="st0" d="M43,47.6v1.2h-0.9v-4.2h1.4c1,0,1.4,0.4,1.4,1.5c0,1.2-0.5,1.5-1.4,1.5H43z M43.4,46.9c0.4,0,0.6-0.2,0.6-0.9
		c0-0.5-0.2-0.7-0.6-0.7H43v1.6C43,46.9,43.4,46.9,43.4,46.9z"/>
	<path class="st0" d="M45.5,47.3c0-1,0.2-1.6,1.3-1.6c0.4,0,1.4,0.1,1.4,0.1v2.1c0,0.1,0,0.9,0,0.9h-0.9c0,0,0-0.2,0-0.4
		c0,0-0.2,0.4-0.7,0.4C45.7,48.9,45.5,48.4,45.5,47.3z M46.2,47.3c0,0.5,0.1,0.9,0.4,0.9s0.5-0.4,0.5-0.4v-1.4c0,0-0.3,0-0.4,0
		C46.4,46.3,46.2,46.7,46.2,47.3z"/>
	<path class="st0" d="M50.8,45.8v0.6c0,0-0.4,0-0.6,0c-0.4,0-0.6,0.3-0.6,0.9s0.1,0.9,0.6,0.9c0.2,0,0.6,0,0.6,0v0.6
		c0,0-0.4,0.1-0.9,0.1c-0.9,0-1.2-0.6-1.2-1.6c0-1.1,0.4-1.6,1.2-1.6C50.4,45.7,50.8,45.8,50.8,45.8z"/>
	<path class="st0" d="M51.3,48.8v-4.3h0.9V47h0.2l0.6-1.2h0.9l-0.7,1.5l0.9,1.6h-0.9l-0.5-1.2h-0.2v1.1
		C52.5,48.8,51.3,48.8,51.3,48.8z"/>
	<path class="st0" d="M56.6,48.1v0.5c0,0-0.4,0.2-1.1,0.2c-0.9,0-1.3-0.4-1.3-1.5c0-1,0.3-1.7,1.3-1.7c0.7,0,1.2,0.3,1.2,1
		s-0.5,1-1.5,1H55v0.1c0,0.3,0.2,0.5,0.5,0.5C56,48.2,56.6,48.1,56.6,48.1z M55.3,47c0.4,0,0.6,0,0.6-0.3c0-0.2-0.1-0.3-0.4-0.3
		c-0.3,0-0.4,0.3-0.4,0.6H55.3z"/>
	<path class="st0" d="M58.3,46.5v1.4c0,0.2,0,0.3,0.2,0.3s0.4,0,0.4,0v0.6c0,0-0.4,0.1-0.6,0.1c-0.7,0-0.9-0.3-0.9-1.1v-1.4h-0.3
		v-0.7h0.3V45h0.9v0.7h0.6v0.7C58.9,46.5,58.3,46.5,58.3,46.5z"/>
</g>
</svg>
