<?xml version="1.0" encoding="utf-8"?>
<!-- Generator: Adobe Illustrator 24.0.1, SVG Export Plug-In . SVG Version: 6.00 Build 0)  -->
<svg version="1.1" id="Ebene_1" xmlns="http://www.w3.org/2000/svg" xmlns:xlink="http://www.w3.org/1999/xlink" x="0px" y="0px"
	 viewBox="0 0 84.3 53.1" style="enable-background:new 0 0 84.3 53.1;" xml:space="preserve">
<style type="text/css">
	.st0{fill:#003551;}
	.st1{fill:none;}
	.st2{enable-background:new    ;}
	.st3{fill:#FFFFFF;}
</style>
<g>
	<path class="st0" d="M42.2,21l-14.6-7.8v16.1c0,0.2,0.1,0.3,0.3,0.5l14.4,7.4L42.2,21L42.2,21z"/>
	<path class="st0" d="M42.8,20.1l14.7-7.5L42.9,6c-0.1,0-0.2,0-0.3,0l-14.3,6.4L42.8,20.1z"/>
	<path class="st0" d="M43.3,21v16.2l14.4-7.4c0.2-0.1,0.3-0.2,0.3-0.5V13.4L43.3,21z"/>
</g>
<rect x="43.4" y="21.8" class="st1" width="14.6" height="8.5"/>
<g class="st2">
	<path class="st3" d="M49.2,28.9v-1.2c0-1.2,0.2-1.6,1.2-2.6c0.2-0.2,0.9-0.9,1.2-1.2c0.1-0.1,0.3-0.3,0.3-0.6v-0.1
		c0-0.3-0.2-0.3-0.6-0.1c-0.5,0.2-1.3,0.7-1.7,1l-0.3-0.8c0.7-0.5,1.5-1,2.2-1.4c1.2-0.6,1.9-0.5,1.9,0.6v0.2c0,0.7-0.3,1.2-0.9,1.7
		c-0.2,0.2-1,1-1.3,1.3s-0.5,0.7-0.5,1v0.2l2.7-1.3v1L49.2,28.9z"/>
</g>
<g>
	<path class="st3" d="M38.5,29.2c-0.1,0.1-0.1,0.1-0.2,0l0,0C38,29.3,38,29.3,38,29.3l0,0c-0.9,0.1-1.9-0.6-4.2-1.6l3.2,0.8
		l-2.3-0.9l-0.1-0.5l-0.8-0.5l0.9,0.3l1.2,0.3v0.2l0,0l0.7,0.2c0.9,0.2,1.5-0.3,1.3-1.5v-0.2c-0.2-1.2-0.9-2.3-1.9-2.6l-0.6-0.1l0,0
		v0.1v0.1l-1.3-0.5l-0.2-0.1v-0.3L33.2,22l1.4,0.5l1.5,0.5l-1.5-0.6l-0.7-0.3V22c0,0-0.7-0.3-0.8-0.5l2.4,0.8
		c0.7,0.2,1.5,0.7,2.2,1.3c0.1,0,0.2,0.2,0.3,0.3c0.3,0.3,0.7,0.9,1,1.9c0,0-0.2-0.7-0.6-1.5v-0.2c0-0.7-0.5-1.5-1-1.9l-5-2.9
		c-0.6-0.3-1,0-1,0.7v6c0,0.7,0.5,1.5,1,1.9l5,2.9c0.6,0.3,1,0,1-0.7V30c0.3-0.3,0.6-1,0.6-1C38.8,29,38.7,29.1,38.5,29.2z
		 M34.1,23.3l1.4,0.5l0.1,0.7l-1.4-0.6v-0.3h-0.1l-0.7-0.5L34.1,23.3z M33.9,24.1l1.6,0.6l0.1,0.7l-1.4-0.6l-0.1-0.3l-0.7-0.3
		C33.4,24.1,33.9,24.1,33.9,24.1z M34,25.1l1.6,0.6l0.1,0.7l-1.4-0.6l-0.1-0.5L34,25.1L33.7,25L34,25.1z M34.2,26l1.5,0.6l0.1,0.7
		l-1.5-0.6v-0.5L34.2,26l-0.6-0.2L34.2,26z"/>
</g>
<g>
	<path class="st0" d="M24.5,45.2c0,0-0.8-0.1-1.2-0.1c-0.5,0-0.7,0.1-0.7,0.5c0,0.3,0.1,0.3,0.8,0.6c0.9,0.3,1.3,0.6,1.3,1.4
		c0,0.9-0.5,1.4-1.5,1.4c-0.6,0-1.3-0.1-1.3-0.1v-0.7c0,0,0.9,0.1,1.3,0.1s0.6-0.1,0.6-0.6S23.7,47.2,23,47
		c-0.9-0.2-1.3-0.6-1.3-1.3c0-0.9,0.5-1.4,1.5-1.4c0.6,0,1.3,0.1,1.3,0.1V45.2z"/>
	<path class="st0" d="M26.3,46.4v1.5c0,0.2,0,0.3,0.2,0.3s0.5,0,0.5,0V49c0,0-0.5,0.1-0.7,0.1c-0.8,0-0.9-0.3-0.9-1.2v-1.5H25v-0.8
		h0.3v-0.8h0.9v0.8H27v0.8C27,46.4,26.3,46.4,26.3,46.4z"/>
	<path class="st0" d="M27.6,47.3c0-1,0.2-1.7,1.4-1.7c0.5,0,1.5,0.1,1.5,0.1V48c0,0.2,0,0.9,0,0.9h-0.9c0,0,0-0.2,0-0.5
		c0,0-0.2,0.5-0.8,0.5C27.9,49.1,27.6,48.5,27.6,47.3z M28.5,47.3c0,0.6,0.1,0.9,0.5,0.9s0.6-0.5,0.6-0.5v-1.5c0,0-0.3,0-0.5,0
		C28.6,46.3,28.5,46.6,28.5,47.3z"/>
	<path class="st0" d="M31.3,45.6h0.9v0.5c0,0,0.3-0.5,0.8-0.6v0.9c-0.5,0.1-0.8,0.3-0.8,0.3V49h-0.9C31.3,49,31.3,45.6,31.3,45.6z"
		/>
	<path class="st0" d="M34.7,46.4v1.5c0,0.2,0,0.3,0.2,0.3s0.5,0,0.5,0V49c0,0-0.5,0.1-0.7,0.1c-0.8,0-0.9-0.3-0.9-1.2v-1.5h-0.3
		v-0.8H34v-0.8h0.9v0.8h0.7v0.8C35.5,46.4,34.7,46.4,34.7,46.4z"/>
	<path class="st0" d="M38.5,48.2v0.6c0,0-0.5,0.2-1.2,0.2c-1,0-1.4-0.5-1.4-1.6c0-1,0.3-1.9,1.4-1.9c0.8,0,1.3,0.3,1.3,1
		c0,0.8-0.6,1-1.6,1h-0.2v0.2c0,0.3,0.2,0.6,0.6,0.6C37.9,48.3,38.5,48.2,38.5,48.2z M37,47c0.5,0,0.7,0,0.7-0.3
		c0-0.2-0.1-0.3-0.5-0.3c-0.3,0-0.5,0.3-0.5,0.7H37V47z"/>
	<path class="st0" d="M39.3,45.6h0.9v0.5c0,0,0.3-0.5,0.8-0.6v0.9c-0.5,0.1-0.8,0.3-0.8,0.3V49h-0.9V45.6z"/>
	<path class="st0" d="M41.5,46.8h1.7v0.8h-1.7V46.8z"/>
	<path class="st0" d="M45.1,47.7V49h-0.8v-4.5h1.5c1,0,1.5,0.5,1.5,1.6c0,1.3-0.6,1.7-1.5,1.7L45.1,47.7L45.1,47.7z M45.7,46.9
		c0.5,0,0.7-0.2,0.7-0.9c0-0.6-0.2-0.8-0.7-0.8h-0.5v1.7H45.7z"/>
	<path class="st0" d="M47.9,47.3c0-1,0.2-1.7,1.4-1.7c0.5,0,1.5,0.1,1.5,0.1V48c0,0.2,0,0.9,0,0.9h-0.9c0,0,0-0.2,0-0.5
		c0,0-0.2,0.5-0.8,0.5C48.1,49.1,47.9,48.5,47.9,47.3z M48.7,47.3c0,0.6,0.1,0.9,0.5,0.9c0.3,0,0.6-0.5,0.6-0.5v-1.5
		c0,0-0.3,0-0.5,0C48.9,46.3,48.7,46.6,48.7,47.3z"/>
	<path class="st0" d="M53.7,45.7v0.7c0,0-0.5,0-0.7,0c-0.5,0-0.7,0.3-0.7,0.9s0.1,0.9,0.7,0.9c0.2,0,0.7,0,0.7,0V49
		c0,0-0.5,0.1-0.9,0.1c-0.9,0-1.3-0.7-1.3-1.7c0-1.2,0.5-1.7,1.3-1.7C53.2,45.6,53.7,45.7,53.7,45.7z"/>
	<path class="st0" d="M54.4,49v-4.6h0.9V47h0.2l0.7-1.3h0.9l-0.8,1.6l0.9,1.7h-0.9l-0.6-1.3h-0.2V49H54.4z"/>
	<path class="st0" d="M60.1,48.2v0.6c0,0-0.5,0.2-1.2,0.2c-1,0-1.4-0.5-1.4-1.6c0-1,0.3-1.9,1.4-1.9c0.8,0,1.3,0.3,1.3,1
		c0,0.8-0.6,1-1.6,1h-0.2v0.2c0,0.3,0.2,0.6,0.6,0.6C59.4,48.3,60.1,48.2,60.1,48.2z M58.6,47c0.5,0,0.7,0,0.7-0.3
		c0-0.2-0.1-0.3-0.5-0.3c-0.3,0-0.5,0.3-0.5,0.7h0.3V47z"/>
	<path class="st0" d="M61.9,46.4v1.5c0,0.2,0,0.3,0.2,0.3s0.5,0,0.5,0V49c0,0-0.5,0.1-0.7,0.1c-0.8,0-0.9-0.3-0.9-1.2v-1.5h-0.3
		v-0.8H61v-0.8h0.9v0.8h0.7v0.8C62.6,46.4,61.9,46.4,61.9,46.4z"/>
</g>
</svg>
