<?xml version="1.0" encoding="utf-8"?>
<!-- Generator: Adobe Illustrator 24.0.1, SVG Export Plug-In . SVG Version: 6.00 Build 0)  -->
<svg version="1.1" id="Ebene_1" xmlns="http://www.w3.org/2000/svg" xmlns:xlink="http://www.w3.org/1999/xlink" x="0px" y="0px"
	 viewBox="0 0 65.8 65.8" style="enable-background:new 0 0 65.8 65.8;" xml:space="preserve">
<style type="text/css">
	.st0{fill:#E7E6E8;stroke:#1B0D49;stroke-miterlimit:10;}
	.st1{fill:#1E0F33;}
</style>
<g>
	<g>
		<g>
			<g>
				<g>
					<g>
						<g>
							<path class="st0" d="M32.9,58.4C47,58.4,58.4,47,58.4,32.9S47,7.4,32.9,7.4S7.4,18.7,7.4,32.9S18.7,58.4,32.9,58.4"/>
						</g>
					</g>
				</g>
			</g>
		</g>
	</g>
</g>
<g>
	<path class="st1" d="M36.8,39.4c1.3,2,6.6,8.7,6.6,8.7s-1.9,1.5-5.7-0.4c-2.4-1.3-7.7-5.4-12-12c-2.3-3.6-3.7-7.6-5-12.3
		c-1.1-4.1,0.1-5.4,1.5-6.3l5.5,9.6c0,0-1.6,1.1-0.1,3.8c0,0,2.1,5.1,6.9,9.3C35.2,40.6,36.1,40.5,36.8,39.4z M27.5,17.4
		c-1.9-2.7-4-1.1-4-1.1s4,7.4,5.5,9.9C31.4,24.2,29.4,20.1,27.5,17.4z M44.9,42.6c-1.5-1.9-3.4-4.3-3.4-4.3s-1.7-1.9-3.7,0.2
		l6.7,8.6C44.5,47.2,46.4,44.5,44.9,42.6z"/>
</g>
</svg>
