<?xml version="1.0" encoding="utf-8"?>
<!-- Generator: Adobe Illustrator 24.0.1, SVG Export Plug-In . SVG Version: 6.00 Build 0)  -->
<svg version="1.1" id="Ebene_1" xmlns="http://www.w3.org/2000/svg" xmlns:xlink="http://www.w3.org/1999/xlink" x="0px" y="0px"
	 viewBox="0 0 65.8 65.8" style="enable-background:new 0 0 65.8 65.8;" xml:space="preserve">
<style type="text/css">
	.st0{fill:#E7E6E8;stroke:#1B0D49;stroke-miterlimit:10;}
	.st1{fill:#1E0F33;}
</style>
<g>
	<g>
		<g>
			<g>
				<g>
					<g>
						<g>
							<path class="st0" d="M32.9,58.4C47,58.4,58.4,47,58.4,32.9S47,7.4,32.9,7.4S7.4,18.7,7.4,32.9S18.7,58.4,32.9,58.4"/>
						</g>
					</g>
				</g>
			</g>
		</g>
	</g>
</g>
<g>
	<path class="st1" d="M44.1,45.3c-0.2,2.9-4,5.4-11.2,5.4s-11.1-2.7-11.2-5.4c-0.2-2.3,2-4.5,5.8-5c0.1,0.1,0.2,0.2,0.2,0.3
		c-2.3,0.7-3.6,1.8-3.6,3c0,2.1,4,3.9,8.8,3.9s8.8-1.7,8.8-3.9c0-1.3-1.4-2.4-3.8-3c0.1-0.1,0.2-0.2,0.2-0.3
		C42.4,41.1,44.4,43.1,44.1,45.3z M32.9,15.1c5.6,0,10.3,4.6,10.3,10.3C43.2,35,32.9,45,32.9,45s-10.3-9.8-10.3-19.7
		C22.6,19.7,27.2,15.1,32.9,15.1z M32.9,33.4c4.5,0,8.2-3.6,8.2-8.2S37.5,17,32.9,17s-8.2,3.6-8.2,8.2S28.4,33.4,32.9,33.4z"/>
</g>
</svg>
