<?xml version="1.0" encoding="utf-8"?>
<!-- Generator: Adobe Illustrator 24.0.1, SVG Export Plug-In . SVG Version: 6.00 Build 0)  -->
<svg version="1.1" id="Ebene_1" xmlns="http://www.w3.org/2000/svg" xmlns:xlink="http://www.w3.org/1999/xlink" x="0px" y="0px"
	 viewBox="0 0 65.8 65.8" style="enable-background:new 0 0 65.8 65.8;" xml:space="preserve">
<style type="text/css">
	.st0{fill:#E7E6E8;stroke:#1B0D49;stroke-miterlimit:10;}
	.st1{fill:#1E0F33;}
</style>
<g>
	<g>
		<g>
			<g>
				<g>
					<g>
						<g>
							<path class="st0" d="M32.9,58.4C47,58.4,58.4,47,58.4,32.9S47,7.4,32.9,7.4S7.4,18.7,7.4,32.9S18.7,58.4,32.9,58.4"/>
						</g>
					</g>
				</g>
			</g>
		</g>
	</g>
</g>
<g>
	<path class="st1" d="M49.4,35c0-5.1-4.1-9.3-9.3-9.3c-0.3,0-0.6,0-1,0.1c0.6,1,0.9,2.3,1.1,3.5c0.9,5.2-1.5,10.4-5.8,13.1
		c1.5,1.2,3.5,1.9,5.7,1.9c1.9,0,3.6-0.6,5.1-1.5l4.1,1.7l-1.7-4.1C48.7,38.8,49.4,36.9,49.4,35z"/>
	<path class="st1" d="M25.6,20.4c-6.1,1-10.2,6.9-9.2,13c0.4,2.4,1.5,4.4,3.2,6l-1,5.4l4.6-3c2,0.8,4.2,1.1,6.4,0.7
		c6.1-1,10.2-6.9,9.2-13C37.5,23.3,31.8,19.3,25.6,20.4z"/>
</g>
</svg>
