<?xml version="1.0" encoding="utf-8"?>
<!-- Generator: Adobe Illustrator 24.0.1, SVG Export Plug-In . SVG Version: 6.00 Build 0)  -->
<svg version="1.1" id="Ebene_1" xmlns="http://www.w3.org/2000/svg" xmlns:xlink="http://www.w3.org/1999/xlink" x="0px" y="0px"
	 viewBox="0 0 84.3 75.2" style="enable-background:new 0 0 84.3 75.2;" xml:space="preserve">
<style type="text/css">
	.st0{fill:#FFFFFF;}
</style>
<g>
	<g>
		<g>
			<path class="st0" d="M35.2,41.3L35.2,41.3c-0.5-0.3-0.9-1-0.5-1.5l6-11.7c0.3-0.5,0.9-0.9,1.4-0.9c0.7,0,1.2,0.3,1.4,0.9l3.8,7.6
				c0.3,0.5,0.3,1.1-0.1,1.5c-0.3,0.4-0.9,0.9-1.4,0.9H42c-0.7,0-1.2-0.5-1.2-1.2l0,0c0-0.7,0.5-1.2,1.2-1.2h2.7l-2.6-5.3l-5.3,10.5
				C36.6,41.3,35.8,41.5,35.2,41.3z"/>
		</g>
		<g>
			<path class="st0" d="M35.2,41.3L35.2,41.3c-0.5-0.3-0.9-1-0.5-1.5l6-11.7c0.3-0.5,0.9-0.9,1.4-0.9c0.7,0,1.2,0.3,1.4,0.9l3.8,7.6
				c0.3,0.5,0.3,1.1-0.1,1.5c-0.3,0.4-0.9,0.9-1.4,0.9H42c-0.7,0-1.2-0.5-1.2-1.2l0,0c0-0.7,0.5-1.2,1.2-1.2h2.7l-2.6-5.3l-5.3,10.5
				C36.6,41.3,35.8,41.5,35.2,41.3z"/>
		</g>
		<g>
			<path class="st0" d="M48,41.4h-7.8c-0.7,0-1.2-0.5-1.2-1.2s0.5-1.2,1.2-1.2H48c0.7,0,1.2,0.5,1.2,1.2S48.6,41.4,48,41.4z"/>
		</g>
		<path class="st0" d="M47.4,37c0.3-0.4,0.3-1.1,0.1-1.5l-3.8-7.6c-0.3-0.5-0.9-0.9-1.4-0.9c-0.7,0-1.2,0.3-1.4,0.9l-1.1,2.2l0,0
			c1.7-1.7,2.5,0.1,2.5,0.1l2.6,5.3h-2.7c-0.7,0-1.2,0.5-1.2,1.2s0.5,1.2,1.2,1.2H46C46.4,37.8,47,37.5,47.4,37z"/>
		<path class="st0" d="M44.8,35.5h-2.7c-0.7,0-1.2,0.5-1.2,1.2s0.5,1.2,1.2,1.2h1.6C46,37.5,44.8,35.5,44.8,35.5z"/>
		<path class="st0" d="M49.2,40.2c0-0.7-0.5-1.2-1.2-1.2h-7.8c0,0-0.3,2.3,4.8,2.3h3C48.6,41.4,49.2,40.8,49.2,40.2z"/>
	</g>
</g>
<g>
	<path class="st0" d="M23.9,44c0.2,0,0.4,0,0.4,0c0,0,0.2,0.4,0.4,1.2s0.4,1.3,0.6,1.6h0.2c0,0.1,0,0.1,0,0.2c0,0.1,0,0.1,0,0.1
		c0,0,0,0-0.1,0h-1.1c0-0.1,0-0.1,0-0.2c0,0,0-0.1,0-0.1c0,0,0.1,0,0.1,0h0.1c0-0.1-0.1-0.3-0.2-0.6h-0.9c-0.1,0.3-0.1,0.5-0.2,0.6
		h0.2c0,0.1,0,0.1,0,0.2c0,0.1,0,0.1,0,0.1c0,0,0,0-0.1,0h-1c0-0.1,0-0.1,0-0.2c0,0,0-0.1,0-0.1c0,0,0.1,0,0.1,0h0.1
		c0.1-0.3,0.3-0.7,0.5-1.4c0.2-0.6,0.3-1,0.4-1.2C23.6,44.1,23.7,44,23.9,44z M23.5,45.7h0.7c-0.2-0.7-0.4-1.1-0.4-1.1
		C23.8,44.6,23.7,45,23.5,45.7z"/>
	<path class="st0" d="M25.7,45c0-0.1,0-0.1,0.1-0.1c0,0,0.3,0,0.7,0c0,0.1,0,0.1,0,0.3c0.2-0.1,0.4-0.2,0.5-0.2s0.3-0.1,0.4-0.1
		c0.1,0,0.1,0,0.1,0s0,0,0,0.1c0,0.1,0,0.2,0,0.3c0,0.1-0.1,0.1-0.1,0.2c0,0-0.1,0-0.2,0.1c-0.1,0-0.1,0-0.1,0c0,0-0.1-0.1-0.1-0.1
		c-0.1,0-0.2,0-0.2,0.1c-0.1,0.1-0.1,0.3-0.1,0.6c0,0.3,0,0.6,0,0.8H27c0,0,0,0.1,0,0.2c0,0.1,0,0.1,0,0.1c0,0-0.1,0-0.1,0h-1.1
		c0-0.1,0-0.1,0-0.2c0,0,0-0.1,0-0.1c0,0,0.1,0,0.1,0H26c0-0.2,0-0.5,0-0.8c0-0.4,0-0.7-0.1-0.7c0-0.1-0.1-0.1-0.2-0.1
		C25.7,45.1,25.7,45,25.7,45z"/>
	<path class="st0" d="M28.5,45.1c0.2-0.1,0.3-0.2,0.5-0.2c0.1,0,0.3-0.1,0.4-0.1c0.2,0,0.4,0,0.5,0.1c0.1,0.1,0.2,0.3,0.2,0.5
		c0,0.7,0,1.1,0,1.2c0,0.1,0.1,0.1,0.2,0.1c0,0.1,0,0.1,0,0.2c0,0.1,0,0.1-0.1,0.1c0,0-0.1,0-0.2,0c-0.2,0-0.4,0-0.5,0
		c-0.1,0-0.1,0-0.1-0.1c0,0,0-0.1,0-0.2V46c0-0.3,0-0.5-0.1-0.6c-0.1-0.1-0.1-0.2-0.3-0.2c-0.1,0-0.2,0-0.2,0.1s-0.1,0.2-0.1,0.4
		v0.4c0,0.2,0,0.4,0,0.6h0.3c0,0,0,0.1,0,0.2c0,0.1,0,0.1,0,0.1c0,0-0.1,0-0.1,0h-1c0-0.1,0-0.1,0-0.2c0,0,0-0.1,0-0.1
		c0,0,0.1,0,0.1,0H28c0-0.2,0-0.5,0-0.8c0-0.4,0-0.7-0.1-0.7c0-0.1-0.1-0.1-0.2-0.1c0-0.1,0-0.1,0-0.2c0-0.1,0-0.1,0.1-0.1
		c0,0,0.3,0,0.7,0C28.5,44.9,28.5,45,28.5,45.1z"/>
	<path class="st0" d="M31.5,47.1c-0.3,0-0.6-0.1-0.7-0.3c-0.2-0.2-0.2-0.4-0.2-0.7c0-0.4,0.1-0.7,0.3-0.9c0.2-0.2,0.5-0.3,0.8-0.3
		c0.3,0,0.6,0.1,0.7,0.3c0.2,0.2,0.2,0.4,0.2,0.7c0,0.4-0.1,0.7-0.3,0.9S31.9,47.1,31.5,47.1z M31.6,46.7c0.1,0,0.2,0,0.3-0.1
		c0.1-0.1,0.1-0.3,0.1-0.6c0-0.3,0-0.5-0.1-0.6c-0.1-0.1-0.2-0.2-0.3-0.2c-0.1,0-0.2,0-0.3,0.1c-0.1,0.1-0.1,0.3-0.1,0.6
		c0,0.3,0,0.5,0.1,0.6C31.4,46.6,31.5,46.7,31.6,46.7z"/>
	<path class="st0" d="M33.2,46c0-0.7,0-1.1,0-1.3s0-0.3,0-0.3c0-0.1,0-0.1-0.1-0.1c0,0-0.1,0-0.2,0c0-0.1,0-0.1,0-0.2
		c0-0.1,0-0.1,0.1-0.1c0,0,0.2,0,0.4,0c0.2,0,0.3,0,0.3,0c0.1,0,0.1,0,0.1,0.1c0,0,0,0.1,0,0.1v1.7c0,0.4,0,0.7,0,0.9h0.3
		c0,0,0,0.1,0,0.2c0,0.1,0,0.1,0,0.1c0,0-0.1,0-0.1,0h-1.1c0-0.1,0-0.1,0-0.2c0,0,0-0.1,0-0.1c0,0,0.1,0,0.1,0h0.2
		C33.2,46.5,33.2,46.3,33.2,46z"/>
	<path class="st0" d="M35.9,46.9c-0.2,0.1-0.3,0.1-0.4,0.2s-0.2,0-0.3,0c-0.2,0-0.4-0.1-0.6-0.2c-0.1-0.1-0.2-0.4-0.2-0.8
		c0-0.4,0.1-0.8,0.3-1c0.2-0.2,0.5-0.3,0.8-0.3c0.1,0,0.1,0,0.2,0s0.1,0,0.1,0c0-0.1,0-0.1,0-0.2c0-0.1,0-0.2,0-0.2
		c0-0.1,0-0.1-0.1-0.1c0,0-0.1,0-0.2,0c0-0.1,0-0.1,0-0.2c0-0.1,0-0.1,0.1-0.1c0,0,0.2,0,0.4,0c0.2,0,0.3,0,0.3,0s0.1,0,0.1,0.1
		c0,0,0,0.1,0,0.1v1.6c0,0.5,0,0.8,0,0.9c0,0.1,0.1,0.1,0.1,0.1c0,0,0,0.1,0,0.1c0,0.1-0.1,0.1-0.2,0.1c-0.1,0-0.2,0.1-0.3,0.1
		c0,0-0.1,0-0.1,0C36,47,36,47,35.9,46.9z M35.5,45.2c-0.1,0-0.2,0-0.3,0.1c-0.1,0.1-0.1,0.3-0.1,0.6c0,0.3,0,0.5,0.1,0.6
		c0.1,0.1,0.2,0.2,0.3,0.2c0.1,0,0.2,0,0.2,0c0.1,0,0.1-0.1,0.1-0.1c0-0.1,0-0.2,0-0.4v-0.9c0,0-0.1,0-0.2-0.1
		C35.6,45.2,35.5,45.2,35.5,45.2z"/>
	<path class="st0" d="M38.2,44h1.1c0.4,0,0.8,0.1,1,0.2c0.2,0.1,0.3,0.3,0.3,0.5c0,0.3-0.2,0.6-0.6,0.7c0.5,0.1,0.8,0.3,0.8,0.7
		c0,0.2-0.1,0.5-0.3,0.6C40.2,47,39.8,47,39.2,47l-1.1,0c0-0.1,0-0.1,0-0.2c0,0,0-0.1,0-0.1s0.1,0,0.1,0h0.2c0-0.2,0-0.6,0-1.2
		c0-0.6,0-1,0-1.2h-0.3c0-0.1,0-0.1,0-0.2C38.1,44.1,38.1,44.1,38.2,44C38.2,44,38.2,44,38.2,44z M39.1,45.3c0.1,0,0.2,0,0.3,0
		c0.2,0,0.3,0,0.4-0.1c0.1-0.1,0.1-0.2,0.1-0.3c0-0.2,0-0.3-0.1-0.3c-0.1-0.1-0.2-0.1-0.4-0.1c-0.1,0-0.2,0-0.3,0
		C39.1,44.6,39.1,44.9,39.1,45.3z M39.1,45.7v0.5c0,0.2,0,0.3,0.1,0.3c0,0.1,0.1,0.1,0.3,0.1c0.2,0,0.3,0,0.4-0.1
		c0.1-0.1,0.1-0.2,0.1-0.3c0-0.2-0.1-0.3-0.2-0.4c-0.1-0.1-0.3-0.1-0.5-0.1C39.3,45.7,39.2,45.7,39.1,45.7z"/>
	<path class="st0" d="M42.5,46.9c-0.1,0.1-0.2,0.1-0.4,0.1c-0.1,0-0.3,0.1-0.4,0.1c-0.2,0-0.4,0-0.5-0.1c-0.1-0.1-0.1-0.2-0.1-0.4
		c0-0.2,0.1-0.4,0.3-0.6c0.2-0.1,0.4-0.2,0.8-0.2h0.2c0-0.2-0.1-0.4-0.1-0.5c-0.1-0.1-0.2-0.1-0.3-0.1c-0.1,0-0.1,0-0.2,0
		c-0.1,0.1-0.1,0.1-0.1,0.2c0,0-0.1,0-0.2,0c-0.1,0-0.2,0-0.2,0c0,0-0.1-0.1-0.1-0.2c0-0.1-0.1-0.2-0.1-0.2c0,0,0-0.1,0-0.1
		c0,0,0.1,0,0.3-0.1c0.2,0,0.4,0,0.6,0c0.3,0,0.5,0,0.6,0.1s0.2,0.3,0.2,0.5V46c0,0.3,0,0.5,0,0.6c0,0.1,0.1,0.1,0.1,0.1
		c0,0,0,0.1,0,0.1c0,0.1,0,0.1-0.1,0.2c-0.1,0-0.2,0.1-0.3,0.1c-0.1,0-0.1,0-0.1,0C42.6,47,42.5,47,42.5,46.9z M42.4,46.1
		c-0.1,0-0.2,0-0.3,0c-0.1,0-0.2,0-0.3,0.1s-0.1,0.1-0.1,0.2c0,0.1,0,0.2,0.1,0.2c0.1,0.1,0.1,0.1,0.2,0.1c0.1,0,0.1,0,0.2-0.1
		c0.1,0,0.1-0.1,0.1-0.1c0-0.1,0-0.1,0-0.2V46.1z"/>
	<path class="st0" d="M45.6,46.1c0,0.3,0,0.5,0,0.5c0,0.1,0.1,0.1,0.2,0.1c0,0,0,0.1,0,0.1c0,0.1-0.1,0.1-0.2,0.2
		c-0.1,0-0.2,0.1-0.3,0.1c-0.1,0-0.1,0-0.1,0c0,0-0.1-0.1-0.1-0.2c-0.1,0.1-0.3,0.1-0.4,0.2c-0.1,0-0.3,0.1-0.4,0.1
		c-0.2,0-0.3,0-0.4-0.1c-0.1-0.1-0.2-0.3-0.2-0.6c0-0.5,0-0.7,0-0.8c0-0.1,0-0.2,0-0.2c0,0,0-0.1-0.1-0.1s-0.1,0-0.1,0
		c0,0,0-0.1,0-0.1c0-0.1,0-0.1,0.1-0.1s0.2,0,0.4,0c0.1,0,0.2,0,0.3,0s0.1,0,0.1,0.1c0,0,0,0.1,0,0.3V46c0,0.3,0,0.5,0.1,0.6
		s0.1,0.1,0.2,0.1c0.1,0,0.1,0,0.2,0c0.1,0,0.1-0.1,0.1-0.1c0-0.1,0-0.1,0-0.3c0-0.4,0-0.6,0-0.7c0-0.1,0-0.2,0-0.2s0-0.1-0.1-0.1
		c0,0-0.1,0-0.1,0c0,0,0-0.1,0-0.1c0-0.1,0-0.1,0.1-0.1c0.1,0,0.2,0,0.3,0c0.1,0,0.2,0,0.3,0s0.1,0,0.1,0.1c0,0,0,0.1,0,0.3V46.1z"
		/>
	<path class="st0" d="M47.2,44.8c0.2,0,0.4,0,0.5,0.1c0.1,0,0.2,0.1,0.2,0.2c0,0.1,0,0.2-0.1,0.3c-0.3-0.1-0.6-0.2-0.7-0.2
		c-0.1,0-0.2,0-0.2,0c0,0-0.1,0.1-0.1,0.1c0,0.1,0,0.1,0.1,0.2c0.1,0,0.2,0.1,0.4,0.2c0.2,0.1,0.4,0.2,0.5,0.3s0.2,0.2,0.2,0.4
		c0,0.2-0.1,0.4-0.3,0.5s-0.4,0.2-0.7,0.2c-0.3,0-0.5,0-0.6-0.1c-0.1,0-0.2-0.1-0.2-0.2c0-0.1,0-0.2,0.1-0.3
		c0.3,0.1,0.5,0.2,0.8,0.2c0.1,0,0.2,0,0.2,0c0.1,0,0.1-0.1,0.1-0.2c0-0.1,0-0.2-0.1-0.2s-0.2-0.1-0.4-0.2c-0.2-0.1-0.4-0.2-0.5-0.3
		c-0.1-0.1-0.1-0.2-0.1-0.4c0-0.2,0.1-0.4,0.3-0.5C46.6,44.9,46.9,44.8,47.2,44.8z"/>
	<path class="st0" d="M48.4,44.9h0.2l0.2-0.7c0.1,0,0.1,0,0.2,0.1s0.1,0.1,0.1,0.1c0,0,0,0.2,0,0.3v0.1h0.7c0,0.1,0,0.1,0,0.2
		c0,0.1,0,0.1,0,0.1c0,0-0.1,0-0.1,0h-0.6v0.9c0,0.3,0,0.4,0.1,0.5c0,0.1,0.1,0.1,0.2,0.1c0.1,0,0.2,0,0.4-0.1
		c0,0.1,0.1,0.1,0.1,0.2c0,0.1-0.1,0.2-0.2,0.2c-0.1,0-0.3,0.1-0.5,0.1c-0.2,0-0.4,0-0.5-0.1c-0.1-0.1-0.2-0.3-0.2-0.6V46
		c0-0.2,0-0.5,0-0.8h-0.2c0-0.1,0-0.1,0-0.2C48.2,44.9,48.3,44.9,48.4,44.9C48.3,44.9,48.3,44.9,48.4,44.9z"/>
	<path class="st0" d="M51.3,44.8c0.3,0,0.5,0.1,0.7,0.2s0.2,0.4,0.2,0.7c0,0.1,0,0.3-0.1,0.3c-0.1,0.1-0.2,0.1-0.4,0.1h-0.8
		c0,0.2,0,0.3,0.1,0.5s0.2,0.2,0.4,0.2c0.2,0,0.4-0.1,0.6-0.2c0.1,0.1,0.1,0.2,0.1,0.2c0,0.1-0.1,0.2-0.3,0.2
		c-0.2,0-0.4,0.1-0.6,0.1c-0.4,0-0.7-0.1-0.9-0.2s-0.3-0.4-0.3-0.8c0-0.4,0.1-0.7,0.3-0.9C50.7,44.9,50.9,44.8,51.3,44.8z
		 M51.2,45.2c-0.1,0-0.2,0-0.2,0.1c-0.1,0.1-0.1,0.2-0.1,0.5H51c0.2,0,0.3,0,0.4,0c0.1,0,0.1,0,0.2,0s0-0.1,0-0.1
		c0-0.1,0-0.2-0.1-0.3S51.3,45.2,51.2,45.2z"/>
	<path class="st0" d="M52.8,46c0-0.7,0-1.1,0-1.3s0-0.3,0-0.3c0-0.1,0-0.1-0.1-0.1c0,0-0.1,0-0.2,0c0-0.1,0-0.1,0-0.2
		c0-0.1,0-0.1,0.1-0.1c0,0,0.2,0,0.4,0c0.2,0,0.3,0,0.3,0c0.1,0,0.1,0,0.1,0.1c0,0,0,0.1,0,0.1v1.7c0,0.4,0,0.7,0,0.9h0.3
		c0,0,0,0.1,0,0.2c0,0.1,0,0.1,0,0.1c0,0-0.1,0-0.1,0h-1.1c0-0.1,0-0.1,0-0.2c0,0,0-0.1,0-0.1s0.1,0,0.1,0h0.2
		C52.8,46.5,52.8,46.3,52.8,46z"/>
	<path class="st0" d="M54.2,46c0-0.7,0-1.1,0-1.3s0-0.3,0-0.3c0-0.1,0-0.1-0.1-0.1c0,0-0.1,0-0.2,0c0-0.1,0-0.1,0-0.2
		c0-0.1,0-0.1,0.1-0.1c0,0,0.2,0,0.4,0c0.2,0,0.3,0,0.3,0c0.1,0,0.1,0,0.1,0.1c0,0,0,0.1,0,0.1v1.7c0,0.4,0,0.7,0,0.9h0.3
		c0,0,0,0.1,0,0.2c0,0.1,0,0.1,0,0.1c0,0-0.1,0-0.1,0h-1.1c0-0.1,0-0.1,0-0.2c0,0,0-0.1,0-0.1s0.1,0,0.1,0h0.2
		C54.2,46.5,54.2,46.3,54.2,46z"/>
	<path class="st0" d="M56.5,44.8c0.3,0,0.5,0.1,0.7,0.2s0.2,0.4,0.2,0.7c0,0.1,0,0.3-0.1,0.3c-0.1,0.1-0.2,0.1-0.4,0.1h-0.8
		c0,0.2,0,0.3,0.1,0.5s0.2,0.2,0.4,0.2c0.2,0,0.4-0.1,0.6-0.2c0.1,0.1,0.1,0.2,0.1,0.2c0,0.1-0.1,0.2-0.3,0.2
		c-0.2,0-0.4,0.1-0.6,0.1c-0.4,0-0.7-0.1-0.9-0.2s-0.3-0.4-0.3-0.8c0-0.4,0.1-0.7,0.3-0.9C55.9,44.9,56.1,44.8,56.5,44.8z
		 M56.4,45.2c-0.1,0-0.2,0-0.2,0.1c-0.1,0.1-0.1,0.2-0.1,0.5h0.1c0.2,0,0.3,0,0.4,0c0.1,0,0.1,0,0.2,0s0-0.1,0-0.1
		c0-0.1,0-0.2-0.1-0.3S56.5,45.2,56.4,45.2z"/>
	<path class="st0" d="M58.5,45.1c0.2-0.1,0.3-0.2,0.5-0.2s0.3-0.1,0.4-0.1c0.2,0,0.4,0,0.5,0.1c0.1,0.1,0.2,0.3,0.2,0.5
		c0,0.7,0,1.1,0,1.2c0,0.1,0.1,0.1,0.2,0.1c0,0.1,0,0.1,0,0.2c0,0.1,0,0.1-0.1,0.1c0,0-0.1,0-0.2,0c-0.2,0-0.4,0-0.5,0
		c-0.1,0-0.1,0-0.1-0.1c0,0,0-0.1,0-0.2V46c0-0.3,0-0.5-0.1-0.6c-0.1-0.1-0.1-0.2-0.3-0.2c-0.1,0-0.2,0-0.2,0.1
		c-0.1,0.1-0.1,0.2-0.1,0.4v0.4c0,0.2,0,0.4,0,0.6h0.3c0,0,0,0.1,0,0.2c0,0.1,0,0.1,0,0.1c0,0-0.1,0-0.1,0h-1c0-0.1,0-0.1,0-0.2
		c0,0,0-0.1,0-0.1s0.1,0,0.1,0H58c0-0.2,0-0.5,0-0.8c0-0.4,0-0.7-0.1-0.7c0-0.1-0.1-0.1-0.2-0.1c0-0.1,0-0.1,0-0.2
		c0-0.1,0-0.1,0.1-0.1c0,0,0.3,0,0.7,0C58.5,44.9,58.5,45,58.5,45.1z"/>
</g>
</svg>
