<?xml version="1.0" encoding="utf-8"?>
<!-- Generator: Adobe Illustrator 24.0.1, SVG Export Plug-In . SVG Version: 6.00 Build 0)  -->
<svg version="1.1" id="Ebene_1" xmlns="http://www.w3.org/2000/svg" xmlns:xlink="http://www.w3.org/1999/xlink" x="0px" y="0px"
	 viewBox="0 0 84.3 75.2" style="enable-background:new 0 0 84.3 75.2;" xml:space="preserve">
<style type="text/css">
	.st0{fill:#FFFFFF;}
</style>
<g>
	<path class="st0" d="M38.8,27.1c0,0.1,0,0.1,0,0.3c0,2.8,0,5.5,0,8.4c0,0.9,0.1,1.8,0.6,2.6s1,1.4,1.9,1.8c0.5,0.1,0.8,0.3,1.3,0.1
		c0.7-0.3,1.2-0.9,1-1.7c-0.1-0.5-0.4-0.9-0.6-1.3c-0.4-0.5-0.8-0.8-1.2-1.2c-0.6-0.5-0.9-1-1.3-1.8c-0.4-0.9-0.3-1.8,0.3-2.6
		c0.1-0.3,0.3-0.4,0.5-0.6c0.1-0.1,0.1-0.3,0.1-0.4c0-1.4,0-2.8,0-4.3c0-0.1,0-0.1,0-0.3l0,0c0.1,0.4,0.3,0.7,0.4,1
		c0.1,0.3,0.1,0.4,0.3,0.6c0,0.1,0.1,0.1,0.3,0.1c1,0,2.1,0.3,3,0.8c0.9,0.6,1.7,1.4,2.2,2.3c0.6,1,0.9,2.3,0.9,3.6
		c0.1,1.3-0.1,2.5-0.6,3.6c-0.6,1.3-1.4,2.5-2.6,3.2c-1.3,0.7-2.6,0.9-4,0.6c-1.4-0.4-2.5-1.2-3.5-2.3c-0.7-1-1.2-2.3-1.3-3.6
		c-0.1-1.7,0.1-3.2,0.8-4.8c0.3-0.5,0.5-0.9,0.8-1.4c0-0.1,0.1-0.1,0.1-0.3c0.3-0.8,0.5-1.7,0.7-2.6C38.6,27.3,38.6,27.3,38.8,27.1
		C38.6,27.1,38.6,27.1,38.8,27.1z M44.7,39L44.7,39c0.3-0.3,0.4-0.5,0.5-0.7c0.8-1.5,0.8-3.1,0.3-4.8c-0.3-0.7-0.7-1.3-1.4-1.8
		c-0.6-0.4-1.4-0.4-2.1,0.1c-0.6,0.5-0.7,1.2-0.5,1.9c0.3,0.6,0.6,0.9,1,1.4c0.4,0.4,0.7,0.6,0.9,0.9c0.5,0.6,0.9,1.2,1,2.1
		C44.7,38.5,44.7,38.9,44.7,39z"/>
</g>
<g>
	<path class="st0" d="M27.4,46.5c0,0.7-0.5,0.8-1,0.8h-1.1v-2.8h0.9c0.6,0,1.1,0,1.1,0.7v0.1c0,0.2-0.1,0.4-0.3,0.5
		c0.3,0.1,0.4,0.3,0.4,0.5V46.5z M26.7,45.2c0-0.2-0.1-0.2-0.3-0.2H26v0.6h0.4c0.3,0,0.3-0.1,0.3-0.2V45.2z M26.8,46.4
		c0-0.2-0.1-0.3-0.4-0.3H26v0.7h0.5c0.3,0,0.4-0.1,0.4-0.3v-0.1H26.8z"/>
	<path class="st0" d="M29.4,46.8h-0.9l-0.2,0.5h-0.7l1-2.8h0.7l1,2.8h-0.7L29.4,46.8z M28.5,46.3h0.7l-0.4-1.2L28.5,46.3z"/>
	<path class="st0" d="M32.5,46.5c0,0.5-0.3,0.8-1.1,0.8c-0.4,0-0.8-0.1-1-0.1l0.2-0.5c0.2,0,0.5,0.1,0.8,0.1s0.4-0.1,0.4-0.3v-0.1
		c0-0.2-0.1-0.3-0.4-0.3h-0.3c-0.5,0-0.8-0.3-0.8-0.8v-0.1c0-0.5,0.4-0.8,0.9-0.8h0.1c0.3,0,0.8,0.1,1,0.1L32.2,45
		c-0.3,0-0.7-0.1-0.9-0.1h-0.1c-0.2,0-0.3,0.1-0.3,0.3l0,0c0,0.1,0.1,0.2,0.3,0.2h0.3c0.5,0,0.8,0.2,0.8,0.8v0.3H32.5z"/>
	<path class="st0" d="M32.9,47.3v-2.8h0.6v2.3h1.2v0.5H32.9z"/>
	<path class="st0" d="M35.1,47.3v-2.8H37L36.9,45h-1.2v0.6h1.2l-0.1,0.5h-1.1v0.7H37v0.5H35.1z"/>
	<path class="st0" d="M39,47.3l-0.5-1.1h-0.4v1.1h-0.6v-2.8h1.1c0.6,0,1,0.1,1,0.8v0.2c0,0.3-0.1,0.6-0.5,0.7l0.6,1.1H39z M39,45.3
		c0-0.2-0.1-0.2-0.3-0.2h-0.5v0.7h0.6c0.2,0,0.3-0.1,0.3-0.3L39,45.3L39,45.3z"/>
	<path class="st0" d="M43.1,46.5c0,0.7-0.5,0.8-1,0.8H41v-2.8h0.9c0.6,0,1.1,0,1.1,0.7v0.1c0,0.2-0.1,0.4-0.3,0.5
		c0.3,0.1,0.4,0.3,0.4,0.5C43.1,46.3,43.1,46.5,43.1,46.5z M42.3,45.2c0-0.2-0.1-0.2-0.3-0.2h-0.4v0.6H42c0.3,0,0.3-0.1,0.3-0.2
		V45.2z M42.4,46.4c0-0.2-0.1-0.3-0.4-0.3h-0.4v0.7H42c0.3,0,0.4-0.1,0.4-0.3V46.4z"/>
	<path class="st0" d="M45,46.8h-0.9l-0.2,0.5h-0.7l1-2.8h0.7l1,2.8h-0.7L45,46.8z M43.8,44.2v-0.5h0.6v0.4L43.8,44.2z M44.2,46.3
		h0.7l-0.4-1.2L44.2,46.3z M44.7,44.2v-0.5h0.6v0.4L44.7,44.2z"/>
	<path class="st0" d="M48,47.2c-0.2,0.1-0.6,0.2-1,0.2c-0.7,0-1-0.2-1-0.9v-1c0-0.7,0.2-0.9,1-0.9c0.3,0,0.6,0,1,0.1l-0.1,0.5
		C47.5,45,47.3,45,47.1,45c-0.4,0-0.4,0.1-0.4,0.5v1c0,0.3,0.1,0.4,0.4,0.4c0.2,0,0.5,0,0.8-0.1L48,47.2z"/>
	<path class="st0" d="M49,47.3h-0.6v-2.8H49v1.3l1-1.3h0.7l-1,1.2l1,1.6H50l-0.7-1.2L49,46.5V47.3z"/>
	<path class="st0" d="M51,47.3v-2.8h1.9L52.8,45h-1.2v0.6h1.2l-0.1,0.5h-1.1v0.7h1.3v0.5H51z"/>
	<path class="st0" d="M54.9,47.3l-0.5-1.1H54v1.1h-0.6v-2.8h1.1c0.6,0,1,0.1,1,0.8v0.2c0,0.3-0.1,0.6-0.5,0.7l0.6,1.1H54.9z
		 M54.9,45.3c0-0.2-0.1-0.2-0.3-0.2H54v0.7h0.6c0.2,0,0.3-0.1,0.3-0.3C54.9,45.5,54.9,45.3,54.9,45.3z"/>
	<path class="st0" d="M56,47.3v-2.8h1.9L57.8,45h-1.2v0.6h1.2l-0.1,0.5h-1.1v0.7h1.3v0.5H56z"/>
	<path class="st0" d="M58.4,47.3v-2.8H59v2.8H58.4z"/>
</g>
</svg>
