<?xml version="1.0" encoding="utf-8"?>
<!-- Generator: Adobe Illustrator 24.0.1, SVG Export Plug-In . SVG Version: 6.00 Build 0)  -->
<svg version="1.1" id="Ebene_1" xmlns="http://www.w3.org/2000/svg" xmlns:xlink="http://www.w3.org/1999/xlink" x="0px" y="0px"
	 viewBox="0 0 84.3 75.2" style="enable-background:new 0 0 84.3 75.2;" xml:space="preserve">
<style type="text/css">
	.st0{fill:#EFEEEE;}
	.st1{fill:#F0F0F0;}
	.st2{fill:#F2F2F2;}
	.st3{fill:#F4F4F4;}
	.st4{fill:#F6F6F6;}
	.st5{fill:#FFFFFF;}
</style>
<g>
	<path class="st0" d="M37.3,29.5h1.5c0.4-0.7,0.8-1.3,1.1-2h-6.4v7.8c1.3-1,2.6-2.3,3.8-3.8C37.3,31.5,37.3,29.5,37.3,29.5z"/>
	<g>
		<path class="st1" d="M40.4,34.4c0.5-0.6,1-1.2,1.4-1.9h-1.4V34.4z"/>
		<path class="st1" d="M37.3,31.5c-1.2,1.4-2.5,2.8-3.8,3.8v0.1c0,1.5,0.4,2.9,1.2,4.1c0.8-0.4,1.7-1.1,2.6-1.9V31.5z"/>
		<path class="st1" d="M43.3,29.5c0.2-0.6,0.3-1.1,0.4-1.7c-0.7-0.2-1.5-0.3-2.2-0.3H40c-0.3,0.7-0.7,1.3-1.1,2H43.3z"/>
	</g>
	<g>
		<path class="st2" d="M43.4,32.5h-1.7c-0.4,0.6-0.9,1.3-1.4,1.9v0.7h3.1c0.7,0,1-0.3,1-1v-0.5C44.5,32.9,44.1,32.5,43.4,32.5z"/>
		<path class="st2" d="M40.4,40.6c0.8-0.7,1.6-1.5,2.3-2.4h-2.3V40.6z"/>
		<path class="st2" d="M37.3,37.6c-0.9,0.8-1.8,1.4-2.6,1.9c0.6,1.1,1.5,1.9,2.6,2.6V37.6z"/>
		<path class="st2" d="M43.4,29.5c1.5,0,2.5,0.4,3.2,1.2c0-0.5,0-0.9-0.2-1.4c-0.8-0.7-1.8-1.2-2.8-1.5c0,0.5-0.2,1.1-0.4,1.7
			C43.2,29.5,43.4,29.5,43.4,29.5z"/>
	</g>
	<g>
		<path class="st3" d="M40.4,40.6v0.2h3.1c0.7,0,1-0.3,1-1v-0.5c0-0.7-0.3-1-1-1h-0.7C42,39,41.1,39.9,40.4,40.6z"/>
		<path class="st3" d="M46.7,30.7c0.6,0.7,0.9,1.6,0.9,2.9c0,1.8-0.6,2.9-1.7,3.1c1,0.2,1.5,0.9,1.7,2.2c0.8-1.2,1.5-2.4,1.8-3.6
			c0-2.4-1.1-4.5-2.8-6C46.6,29.7,46.7,30.2,46.7,30.7z"/>
	</g>
	<path class="st4" d="M49.3,35.3c-0.4,1.1-1,2.4-1.8,3.6c0,0.3,0.1,0.6,0.1,0.9c0,1.7-0.5,2.9-1.6,3.5h3.4L49.3,35.3L49.3,35.3z"/>
</g>
<g>
	<path class="st5" d="M26.4,45.9h1.2c0.7,0,1,0.5,1,1.2c0,0.6-0.3,0.9-0.6,1c0.4,0.1,0.7,0.6,0.7,1.1c0,0.7-0.3,1.2-1.1,1.2h-1.2
		V45.9z M27.5,47.8c0.4,0,0.5-0.3,0.5-0.6c0-0.4-0.1-0.6-0.5-0.6h-0.3v1.3H27.5z M27.5,49.8c0.4,0,0.5-0.3,0.5-0.7
		c0-0.4-0.2-0.7-0.5-0.7h-0.3v1.4H27.5z"/>
	<path class="st5" d="M30.7,50.1c-0.1,0.3-0.4,0.4-0.7,0.4c-0.5,0-0.9-0.4-0.9-1.1c0-0.7,0.4-1.1,0.9-1.1c0.2,0,0.5,0.1,0.7,0.4
		v-0.5c0-0.4-0.1-0.6-0.5-0.6c-0.2,0-0.4,0.1-0.7,0.3l-0.2-0.4c0.3-0.3,0.7-0.4,1-0.4c0.6,0,1,0.3,1,1.1v2.3h-0.6V50.1z M30.7,49.2
		c-0.1-0.2-0.3-0.4-0.5-0.4c-0.3,0-0.4,0.3-0.4,0.6c0,0.3,0.1,0.6,0.4,0.6c0.2,0,0.4-0.2,0.5-0.4V49.2z"/>
	<path class="st5" d="M32.1,49.6c0.2,0.2,0.4,0.4,0.7,0.4c0.3,0,0.4-0.2,0.4-0.4c0-0.3-0.2-0.4-0.5-0.6c-0.4-0.2-0.8-0.4-0.8-1.1
		c0-0.5,0.4-0.9,1-0.9c0.3,0,0.7,0.1,0.9,0.4l-0.3,0.4c-0.1-0.2-0.4-0.3-0.6-0.3c-0.2,0-0.4,0.2-0.4,0.4c0,0.2,0.2,0.4,0.5,0.5
		c0.4,0.2,0.8,0.5,0.8,1.1c0,0.6-0.4,0.9-1,0.9c-0.4,0-0.8-0.2-1-0.4L32.1,49.6z"/>
	<path class="st5" d="M34.3,45.9h0.6v4.5h-0.6V45.9z"/>
	<path class="st5" d="M36.6,47c0.8,0,1.1,0.8,1.1,1.7V49h-1.6c0,0.6,0.2,1,0.7,1c0.2,0,0.4-0.1,0.5-0.4l0.3,0.3
		c-0.2,0.3-0.6,0.5-0.9,0.5c-0.8,0-1.2-0.7-1.2-1.7C35.5,47.8,35.8,47,36.6,47z M36.1,48.5h1c0-0.4-0.1-1-0.5-1
		C36.2,47.6,36.1,48.1,36.1,48.5z"/>
	<path class="st5" d="M38.3,47.1h0.6v0.5c0.1-0.3,0.4-0.6,0.7-0.6v0.6c0,0-0.1,0-0.1,0c-0.3,0-0.5,0.2-0.6,0.5v2.3h-0.6V47.1z"/>
	<path class="st5" d="M41.3,45.9H42v3.9h1.1v0.6h-1.9V45.9z"/>
	<path class="st5" d="M43.4,48.8c0-0.9,0.3-1.7,1.2-1.7c0.8,0,1.1,0.8,1.1,1.7s-0.3,1.7-1.1,1.7C43.7,50.5,43.4,49.7,43.4,48.8z
		 M45,48.8c0-0.6-0.1-1.2-0.5-1.2c-0.4,0-0.5,0.6-0.5,1.2c0,0.6,0.1,1.2,0.5,1.2C44.9,49.9,45,49.4,45,48.8z"/>
	<path class="st5" d="M46.5,50.9c0.2,0.2,0.4,0.3,0.7,0.3c0.3,0,0.6-0.2,0.6-0.7v-0.5c-0.1,0.3-0.4,0.5-0.6,0.5
		c-0.6,0-0.9-0.6-0.9-1.7c0-1,0.3-1.7,0.9-1.7c0.2,0,0.5,0.2,0.6,0.5v-0.4h0.6v3.2c0,1.1-0.5,1.4-1.1,1.4c-0.4,0-0.7-0.1-1-0.3
		L46.5,50.9z M47.7,48.1c-0.1-0.2-0.3-0.5-0.4-0.5c-0.4,0-0.5,0.5-0.5,1.1c0,0.6,0.1,1.1,0.5,1.1c0.2,0,0.4-0.2,0.4-0.5V48.1z"/>
	<path class="st5" d="M48.9,46.2c0-0.2,0.2-0.4,0.4-0.4c0.2,0,0.4,0.2,0.4,0.4c0,0.2-0.2,0.4-0.4,0.4C49.1,46.6,48.9,46.4,48.9,46.2
		z M49,47.1h0.6v3.3H49V47.1z"/>
	<path class="st5" d="M50.4,49.6c0.2,0.2,0.4,0.4,0.7,0.4c0.3,0,0.4-0.2,0.4-0.4c0-0.3-0.2-0.4-0.5-0.6c-0.4-0.2-0.8-0.4-0.8-1.1
		c0-0.5,0.4-0.9,1-0.9c0.3,0,0.7,0.1,0.9,0.4l-0.3,0.4c-0.1-0.2-0.4-0.3-0.6-0.3c-0.2,0-0.4,0.2-0.4,0.4c0,0.2,0.2,0.4,0.5,0.5
		c0.4,0.2,0.8,0.5,0.8,1.1c0,0.6-0.4,0.9-1,0.9c-0.4,0-0.8-0.2-1-0.4L50.4,49.6z"/>
	<path class="st5" d="M52.7,49.7v-2h-0.3v-0.6h0.3v-0.9h0.6v0.9h0.4v0.6h-0.4v1.9c0,0.2,0,0.3,0.2,0.3c0.1,0,0.2,0,0.2-0.1l0.1,0.5
		c-0.1,0.1-0.3,0.2-0.5,0.2C52.9,50.5,52.7,50.2,52.7,49.7z"/>
	<path class="st5" d="M54.2,46.2c0-0.2,0.2-0.4,0.4-0.4c0.2,0,0.4,0.2,0.4,0.4c0,0.2-0.2,0.4-0.4,0.4C54.4,46.6,54.2,46.4,54.2,46.2
		z M54.3,47.1h0.6v3.3h-0.6V47.1z"/>
	<path class="st5" d="M56.6,47c0.3,0,0.6,0.1,0.7,0.3l-0.2,0.5c-0.1-0.2-0.3-0.2-0.4-0.2c-0.4,0-0.6,0.5-0.6,1.2s0.2,1.2,0.6,1.2
		c0.2,0,0.3-0.1,0.4-0.2l0.2,0.5c-0.2,0.2-0.4,0.3-0.7,0.3c-0.8,0-1.2-0.7-1.2-1.7C55.5,47.8,55.9,47,56.6,47z"/>
</g>
</svg>
