<?xml version="1.0" encoding="utf-8"?>
<!-- Generator: Adobe Illustrator 24.0.1, SVG Export Plug-In . SVG Version: 6.00 Build 0)  -->
<svg version="1.1" id="Ebene_1" xmlns="http://www.w3.org/2000/svg" xmlns:xlink="http://www.w3.org/1999/xlink" x="0px" y="0px"
	 viewBox="0 0 84.3 75.2" style="enable-background:new 0 0 84.3 75.2;" xml:space="preserve">
<style type="text/css">
	.st0{fill:#FFFFFF;}
</style>
<path class="st0" d="M32.5,33.6c1.2,1.3,1.9,3,1.9,4.8c0,1.8-0.7,3.5-2,4.8c-1.1,1.2-2.7,1.9-4.1,1.9h-5.7V32.9h5.5
	c1.1,0,2.3,0.6,3.3,1.7c1,1.1,1.5,2.5,1.5,3.9c0,1.4-0.6,2.7-1.6,3.8c-1,1-2.2,1.6-3.3,1.6h-2.9v-0.3l0-8H26l0,7.7h2.2
	c0.9,0,1.9-0.5,2.7-1.4c0.9-1,1.4-2.2,1.4-3.4c0-1.6-0.9-3.3-2.2-4.2c-0.6-0.4-1.3-0.7-2-0.7l-4.8,0v10.9h5c1.7,0,3.7-1.3,4.6-3.1
	c0.5-0.9,0.7-1.9,0.7-2.9c0-2-1.1-4.1-2.7-5.2c-0.8-0.6-1.7-0.9-2.6-0.9l-5.7,0v-0.7h5.7C29.8,31.7,31.3,32.4,32.5,33.6z M26.8,42.6
	v-0.7h1.4c0.6,0,1.4-0.4,2-1.1c0.6-0.7,1-1.6,1-2.4c0-1.2-0.6-2.3-1.6-3c-0.5-0.3-1-0.5-1.4-0.5l-3.5,0v9H24l0-9.7l4.2,0
	c1.2,0,2.5,0.8,3.1,2.1c0.3,0.7,0.5,1.3,0.5,2c0,1.3-0.8,2.7-1.9,3.5c-0.6,0.4-1.2,0.6-1.7,0.6H26.8z"/>
<path class="st0" d="M38.4,36.1c0.5,0,1,0.2,1.3,0.5c0.3,0.3,0.5,0.7,0.5,1.3v0.6c0,0.5-0.2,0.9-0.5,1.3c-0.3,0.3-0.7,0.5-1.3,0.5
	h-1.7v-0.4l0.5-0.1v-3.2l-0.5-0.1v-0.4h0.5H38.4z M37.7,36.6v3.2h0.7c0.4,0,0.7-0.1,0.9-0.4c0.2-0.2,0.3-0.6,0.3-1v-0.6
	c0-0.4-0.1-0.7-0.3-0.9c-0.2-0.2-0.5-0.4-0.9-0.4H37.7z"/>
<path class="st0" d="M42.6,40.2c0-0.1,0-0.2,0-0.2c0-0.1,0-0.1,0-0.2c-0.1,0.1-0.2,0.2-0.4,0.3c-0.2,0.1-0.3,0.1-0.5,0.1
	c-0.3,0-0.6-0.1-0.7-0.2c-0.2-0.2-0.2-0.4-0.2-0.6c0-0.3,0.1-0.5,0.3-0.7c0.2-0.2,0.5-0.2,1-0.2h0.6v-0.4c0-0.2-0.1-0.3-0.2-0.4
	c-0.1-0.1-0.3-0.2-0.5-0.2c-0.1,0-0.3,0-0.4,0.1c-0.1,0-0.2,0.1-0.3,0.1l-0.1,0.3h-0.4v-0.6c0.1-0.1,0.3-0.2,0.5-0.3
	c0.2-0.1,0.4-0.1,0.6-0.1c0.3,0,0.6,0.1,0.8,0.3c0.2,0.2,0.3,0.4,0.3,0.7v1.5c0,0,0,0.1,0,0.1c0,0,0,0.1,0,0.1l0.2,0v0.4H42.6z
	 M41.8,39.8c0.2,0,0.3,0,0.5-0.1c0.2-0.1,0.3-0.2,0.3-0.3v-0.5H42c-0.2,0-0.4,0.1-0.5,0.2c-0.1,0.1-0.2,0.2-0.2,0.4
	c0,0.1,0,0.2,0.1,0.3C41.5,39.8,41.6,39.8,41.8,39.8z"/>
<path class="st0" d="M44.8,37.5l-0.4,0.1l0.6,1.7l0.1,0.2h0l0.1-0.2l0.6-1.7l-0.4-0.1v-0.4h1.2v0.4l-0.2,0l-1,2.6h-0.4l-1-2.6
	l-0.2,0v-0.4h1.2V37.5z"/>
<path class="st0" d="M47,39.8l0.5-0.1v-2.2L47,37.5v-0.4h1v2.6l0.5,0.1v0.4H47V39.8z M48,36.4h-0.5v-0.6H48V36.4z"/>
<path class="st0" d="M50.9,39.8c-0.1,0.1-0.2,0.2-0.4,0.3c-0.1,0.1-0.3,0.1-0.5,0.1c-0.4,0-0.7-0.1-0.9-0.4
	c-0.2-0.3-0.3-0.6-0.3-1.1v-0.1c0-0.5,0.1-0.9,0.3-1.2c0.2-0.3,0.5-0.4,0.9-0.4c0.2,0,0.3,0,0.5,0.1c0.1,0.1,0.3,0.2,0.3,0.3v-1.2
	l-0.5-0.1v-0.4h0.5h0.5v3.9l0.5,0.1v0.4h-0.9L50.9,39.8z M49.4,38.8c0,0.3,0.1,0.5,0.2,0.7c0.1,0.2,0.3,0.3,0.6,0.3
	c0.2,0,0.3,0,0.4-0.1c0.1-0.1,0.2-0.2,0.3-0.3V38c-0.1-0.1-0.2-0.2-0.3-0.3c-0.1-0.1-0.2-0.1-0.4-0.1c-0.3,0-0.5,0.1-0.6,0.3
	C49.4,38.1,49.4,38.4,49.4,38.8L49.4,38.8z"/>
<path class="st0" d="M38.9,42.5v0.6h-0.3l0-0.3h-0.6V45l0.3,0.1v0.2h-1v-0.2l0.3-0.1v-2.3h-0.6l0,0.3h-0.3v-0.6H38.9z"/>
<path class="st0" d="M39,43.4v-0.3h0.7l0,0.3c0.1-0.1,0.1-0.2,0.2-0.3c0.1-0.1,0.2-0.1,0.3-0.1c0,0,0.1,0,0.1,0c0,0,0.1,0,0.1,0
	l-0.1,0.4l-0.2,0c-0.1,0-0.2,0-0.3,0.1c-0.1,0-0.1,0.1-0.2,0.2V45l0.3,0.1v0.2h-1v-0.2l0.3-0.1v-1.5L39,43.4z"/>
<path class="st0" d="M42.1,45.3c0-0.1,0-0.1,0-0.2c0,0,0-0.1,0-0.1c-0.1,0.1-0.2,0.2-0.3,0.2c-0.1,0.1-0.2,0.1-0.4,0.1
	c-0.2,0-0.4-0.1-0.5-0.2c-0.1-0.1-0.2-0.3-0.2-0.5c0-0.2,0.1-0.4,0.2-0.5c0.2-0.1,0.4-0.2,0.7-0.2h0.4v-0.2c0-0.1,0-0.2-0.1-0.3
	s-0.2-0.1-0.3-0.1c-0.1,0-0.2,0-0.3,0c-0.1,0-0.1,0.1-0.2,0.1l0,0.2h-0.3v-0.4c0.1-0.1,0.2-0.1,0.4-0.2c0.1,0,0.3-0.1,0.5-0.1
	c0.2,0,0.4,0.1,0.6,0.2s0.2,0.3,0.2,0.5v1c0,0,0,0.1,0,0.1c0,0,0,0.1,0,0.1l0.2,0v0.2H42.1z M41.5,45.1c0.1,0,0.2,0,0.4-0.1
	c0.1-0.1,0.2-0.1,0.2-0.2v-0.4h-0.4c-0.2,0-0.3,0-0.4,0.1c-0.1,0.1-0.1,0.2-0.1,0.3c0,0.1,0,0.2,0.1,0.2
	C41.3,45,41.4,45.1,41.5,45.1z"/>
<path class="st0" d="M43,45.1l0.3-0.1v-1.5L43,43.4v-0.3h0.7V45l0.3,0.1v0.2h-1V45.1z M43.7,42.6h-0.4v-0.4h0.4V42.6z"/>
<path class="st0" d="M44.2,45.1l0.3-0.1v-1.5l-0.3-0.1v-0.3h0.7l0,0.3c0.1-0.1,0.2-0.2,0.3-0.3c0.1-0.1,0.2-0.1,0.4-0.1
	c0.2,0,0.4,0.1,0.5,0.2s0.2,0.3,0.2,0.6v1l0.3,0.1v0.2h-1v-0.2l0.3-0.1v-1c0-0.2,0-0.3-0.1-0.4s-0.2-0.1-0.3-0.1
	c-0.1,0-0.2,0-0.3,0.1c-0.1,0.1-0.2,0.1-0.2,0.2V45l0.3,0.1v0.2h-1V45.1z"/>
<path class="st0" d="M47.9,44.6c0-0.2,0-0.3,0.1-0.4c0.1-0.1,0.2-0.2,0.4-0.4c-0.1-0.1-0.2-0.2-0.2-0.3c-0.1-0.1-0.1-0.2-0.1-0.3
	c0-0.2,0.1-0.4,0.2-0.5c0.1-0.1,0.3-0.2,0.5-0.2c0.2,0,0.4,0.1,0.5,0.2c0.1,0.1,0.2,0.3,0.2,0.4c0,0.1,0,0.2-0.1,0.3
	c-0.1,0.1-0.2,0.2-0.3,0.3l-0.2,0.2l0.7,0.8c0.1-0.1,0.1-0.2,0.1-0.3c0-0.1,0-0.2,0-0.3h0.3c0,0.2,0,0.3-0.1,0.5
	c-0.1,0.1-0.1,0.3-0.2,0.4l0.4,0.4l0,0h-0.5l-0.2-0.2c-0.1,0.1-0.2,0.1-0.4,0.2c-0.1,0-0.3,0.1-0.4,0.1c-0.3,0-0.5-0.1-0.7-0.2
	C48,45,47.9,44.8,47.9,44.6z M48.8,45.1c0.1,0,0.2,0,0.3,0c0.1,0,0.2-0.1,0.3-0.1L48.6,44l-0.1,0.1c-0.1,0.1-0.2,0.2-0.2,0.3
	c0,0.1-0.1,0.2-0.1,0.2c0,0.1,0,0.3,0.1,0.4C48.5,45,48.6,45.1,48.8,45.1z M48.5,43.1c0,0.1,0,0.1,0.1,0.2c0,0.1,0.1,0.2,0.2,0.2
	l0.3-0.2c0.1-0.1,0.1-0.1,0.2-0.2c0-0.1,0-0.1,0-0.2c0-0.1,0-0.2-0.1-0.2c-0.1-0.1-0.1-0.1-0.2-0.1c-0.1,0-0.2,0-0.2,0.1
	C48.5,42.9,48.5,43,48.5,43.1z"/>
<path class="st0" d="M53.5,43.3h-0.3l-0.1-0.4c-0.1-0.1-0.1-0.1-0.2-0.1c-0.1,0-0.2,0-0.3,0c-0.2,0-0.4,0-0.5,0.1
	c-0.1,0.1-0.2,0.2-0.2,0.3c0,0.1,0.1,0.2,0.2,0.3c0.1,0.1,0.3,0.2,0.5,0.2c0.3,0.1,0.5,0.2,0.7,0.3s0.2,0.3,0.2,0.5
	c0,0.2-0.1,0.4-0.3,0.6c-0.2,0.1-0.4,0.2-0.7,0.2c-0.2,0-0.4,0-0.6-0.1c-0.2-0.1-0.3-0.2-0.4-0.3v-0.5h0.3l0.1,0.4
	c0.1,0.1,0.2,0.1,0.3,0.2c0.1,0,0.2,0.1,0.4,0.1c0.2,0,0.4,0,0.5-0.1c0.1-0.1,0.2-0.2,0.2-0.3c0-0.1,0-0.2-0.1-0.3
	c-0.1-0.1-0.3-0.2-0.5-0.2c-0.3-0.1-0.5-0.2-0.7-0.3c-0.2-0.1-0.3-0.3-0.3-0.5c0-0.2,0.1-0.4,0.3-0.6c0.2-0.1,0.4-0.2,0.7-0.2
	c0.2,0,0.4,0,0.6,0.1c0.2,0.1,0.3,0.2,0.4,0.3V43.3z"/>
<path class="st0" d="M54.9,45.4c-0.3,0-0.5-0.1-0.7-0.3c-0.2-0.2-0.3-0.5-0.3-0.8v-0.1c0-0.3,0.1-0.6,0.3-0.8
	c0.2-0.2,0.4-0.3,0.6-0.3c0.3,0,0.5,0.1,0.7,0.3s0.2,0.4,0.2,0.7v0.2h-1.4l0,0c0,0.2,0.1,0.4,0.2,0.5c0.1,0.1,0.2,0.2,0.4,0.2
	c0.1,0,0.2,0,0.3-0.1c0.1,0,0.2-0.1,0.3-0.2l0.2,0.3c-0.1,0.1-0.2,0.1-0.3,0.2C55.2,45.4,55.1,45.4,54.9,45.4z M54.8,43.5
	c-0.1,0-0.2,0.1-0.3,0.2c-0.1,0.1-0.1,0.2-0.2,0.4l0,0h1V44c0-0.2,0-0.3-0.1-0.4C55.1,43.5,55,43.5,54.8,43.5z"/>
<path class="st0" d="M56.1,43.4v-0.3h0.7l0,0.3c0.1-0.1,0.1-0.2,0.2-0.3c0.1-0.1,0.2-0.1,0.3-0.1c0,0,0.1,0,0.1,0c0,0,0.1,0,0.1,0
	l-0.1,0.4l-0.2,0c-0.1,0-0.2,0-0.3,0.1c-0.1,0-0.1,0.1-0.2,0.2V45l0.3,0.1v0.2h-1v-0.2l0.3-0.1v-1.5L56.1,43.4z"/>
<path class="st0" d="M58.6,43.4l-0.3,0l0.4,1.2l0,0.2h0l0-0.2l0.4-1.2l-0.3,0v-0.3h0.8v0.3l-0.2,0l-0.7,1.9h-0.3l-0.7-1.9l-0.2,0
	v-0.3h0.8V43.4z"/>
<path class="st0" d="M60.1,45.1l0.3-0.1v-1.5l-0.3-0.1v-0.3h0.7V45l0.3,0.1v0.2h-1V45.1z M60.8,42.6h-0.4v-0.4h0.4V42.6z"/>
<path class="st0" d="M62.4,45.1c0.1,0,0.2,0,0.3-0.1c0.1-0.1,0.1-0.2,0.1-0.3h0.4l0,0c0,0.2-0.1,0.3-0.2,0.5
	c-0.2,0.1-0.4,0.2-0.6,0.2c-0.3,0-0.6-0.1-0.7-0.3c-0.2-0.2-0.2-0.5-0.2-0.8v-0.1c0-0.3,0.1-0.6,0.2-0.8c0.2-0.2,0.4-0.3,0.7-0.3
	c0.2,0,0.3,0,0.5,0.1c0.1,0.1,0.2,0.1,0.3,0.2l0,0.5h-0.3l-0.1-0.3c0,0-0.1-0.1-0.2-0.1c-0.1,0-0.2,0-0.2,0c-0.2,0-0.4,0.1-0.4,0.2
	c-0.1,0.1-0.1,0.3-0.1,0.5v0.1c0,0.2,0,0.4,0.1,0.5C62,45,62.2,45.1,62.4,45.1z"/>
<path class="st0" d="M64.6,45.4c-0.3,0-0.5-0.1-0.7-0.3c-0.2-0.2-0.3-0.5-0.3-0.8v-0.1c0-0.3,0.1-0.6,0.3-0.8
	c0.2-0.2,0.4-0.3,0.6-0.3c0.3,0,0.5,0.1,0.7,0.3s0.2,0.4,0.2,0.7v0.2H64l0,0c0,0.2,0.1,0.4,0.2,0.5c0.1,0.1,0.2,0.2,0.4,0.2
	c0.1,0,0.2,0,0.3-0.1c0.1,0,0.2-0.1,0.3-0.2l0.2,0.3c-0.1,0.1-0.2,0.1-0.3,0.2C64.9,45.4,64.8,45.4,64.6,45.4z M64.5,43.5
	c-0.1,0-0.2,0.1-0.3,0.2C64.1,43.7,64,43.9,64,44l0,0h1V44c0-0.2,0-0.3-0.1-0.4C64.8,43.5,64.7,43.5,64.5,43.5z"/>
</svg>
