<?xml version="1.0" encoding="utf-8"?>
<!-- Generator: Adobe Illustrator 24.0.1, SVG Export Plug-In . SVG Version: 6.00 Build 0)  -->
<svg version="1.1" id="Ebene_1" xmlns="http://www.w3.org/2000/svg" xmlns:xlink="http://www.w3.org/1999/xlink" x="0px" y="0px"
	 viewBox="0 0 84.3 75.2" style="enable-background:new 0 0 84.3 75.2;" xml:space="preserve">
<style type="text/css">
	.st0{fill:none;}
	.st1{fill:#FFFFFF;}
</style>
<g>
	<g>
		<path class="st0" d="M41.3,41.9c-0.1-0.1-0.1-0.1-0.2-0.2c-0.1,0.1-0.1,0.1-0.1,0.2c-0.2,0.5-0.4,0.9-0.5,1.4
			c0,0.2-0.1,0.5-0.2,0.7c0.2,0.2,0.5,0,0.7,0.1c0.2,0,0.4,0,0.6,0c0.2,0,0.2-0.1,0.4-0.4c-0.1-0.2-0.1-0.5-0.2-0.7
			C41.5,42.6,41.4,42.3,41.3,41.9z"/>
		<g>
			<path class="st0" d="M41.3,41.9c-0.1-0.1-0.1-0.1-0.2-0.2c-0.1,0.1-0.1,0.1-0.1,0.2c-0.2,0.5-0.4,0.9-0.5,1.4
				c0,0.2-0.1,0.5-0.2,0.7c0.2,0.2,0.5,0,0.7,0.1c0.2,0,0.4,0,0.6,0c0.2,0,0.2-0.1,0.4-0.4c-0.1-0.2-0.1-0.5-0.2-0.7
				C41.5,42.6,41.4,42.3,41.3,41.9z"/>
			<path class="st1" d="M48.4,41.9c-0.4-0.6-0.9-1.1-1.5-1.2c-0.8-0.1-1.6,0-2.6,0c0,0-0.1,0-0.1,0.1c0,0.1,0,0.1,0,0.2
				s0.1,0.1,0.1,0.1c0.5,0,0.6,0.4,0.5,0.7c0,0.4,0.1,0.6-0.1,0.9c-0.1,0.1,0,0.4,0,0.5c0,0.8,0,1.6,0,2.4c0,0.2-0.3,0.4-0.7,0.4
				c-0.3,0-0.5,0.1-0.8-0.3c-0.4-0.4-0.4-1.5-0.8-2.1c-0.2-0.6-0.5-1.2-0.7-1.6c-0.1-0.4-0.4-0.7-0.5-1.1c-0.1-0.2-0.2-0.1-0.4-0.1
				c-0.1,0-0.1,0.1-0.2,0.2c-0.1,0.4-0.4,0.8-0.5,1.2c-0.2,0.6-0.5,1.2-0.7,1.8c-0.2,0.6-0.5,1.3-0.8,1.9c-0.1,0.1-0.1,0.2-0.4,0.2
				c-0.2,0-0.1,0.1-0.1,0.2c0,0.1,0.1,0.1,0.1,0.1c0.6,0,1.2,0,1.6,0c0,0,0.1-0.1,0.1-0.2c0-0.2-0.1-0.2-0.2-0.2
				c-0.5,0-0.6-0.2-0.5-0.6c0.1-0.2,0.1-0.5,0.2-0.7c0.1-0.2,0.5-0.1,0.7-0.1c0.4,0,0.6,0,0.9,0c0.4,0,0.6-0.1,0.8,0.4
				c0.1,0.2,0.1,0.7,0.1,1L41.8,46c-0.1,0-0.1,0-0.2,0s-0.1,0.1-0.1,0.2s0,0.2,0.2,0.2c0.8,0,1.5,0,2.4,0c0.6,0,1.3,0,1.9,0
				c1.2,0,2-0.6,2.5-1.8C48.9,43.9,48.9,42.7,48.4,41.9z M41.5,44.2c-0.2,0-0.4,0-0.6,0c-0.2-0.1-0.5,0.1-0.7-0.1
				c0.1-0.2,0.2-0.5,0.2-0.7c0.1-0.5,0.2-0.9,0.5-1.4c0-0.1,0-0.1,0.1-0.2c0.1,0.1,0.1,0.1,0.2,0.2c0.1,0.4,0.2,0.7,0.4,1.2
				c0.1,0.2,0.1,0.5,0.2,0.7C41.8,44,41.8,44.2,41.5,44.2z M46.7,46.2c-0.4,0.1-0.7,0-1.1,0c-0.1,0-0.2-0.2-0.2-0.4
				c0-0.9-0.1-1.8-0.1-2.6c0-0.1,0-0.2,0-0.4c0-0.5,0-0.8,0-1.2c0-0.5,0-0.5,0.5-0.5c1.2,0,2,0.6,2.1,1.9c0.1,0.1,0.1,0.2,0.1,0.7
				C48.1,44.5,47.5,45.8,46.7,46.2z"/>
		</g>
	</g>
	<path class="st1" d="M33.5,45c-0.1,0.1-0.1,0.1-0.2,0.2c-0.4,0.5-0.7,0.8-1.3,0.7c-0.1,0-0.4,0-0.5,0c-0.7,0-0.8,0-0.7-0.8
		c0-0.4,0-0.7,0-1.1c0-0.4-0.1-0.4,0.2-0.4c0.1,0,0.4,0,0.5,0c0.4,0,0.6,0.1,0.6,0.6c0,0.2,0.2,0.1,0.4,0.1c0.2,0,0.1-0.2,0.1-0.2
		c-0.2-0.5-0.2-0.9,0-1.4c0-0.1,0-0.2,0-0.2c-0.1,0-0.2,0-0.2,0s-0.1,0.1-0.1,0.2c-0.1,0.2-0.1,0.5-0.5,0.5c-0.4,0-0.6,0-0.9,0
		c0-0.4,0-0.6,0-0.9c0-0.2,0-0.5,0-0.7c0-0.2,0-0.4,0.2-0.4c0.5,0,0.9,0,1.3,0c0.4,0,0.6,0.1,0.6,0.5c0,0.1,0.1,0.2,0.2,0.4
		c0,0,0.2,0,0.2-0.1c0-0.4,0-0.8,0-1.2c0-0.1-0.2-0.4-0.5-0.2c-0.4,0.2-0.8,0.1-1.2,0.1c-0.7,0-1.4,0-2.1,0c-0.1,0-0.1,0.1-0.2,0.1
		c0,0,0,0.1,0.1,0.1c0.1,0,0.1,0.1,0.2,0.1c0.2,0,0.2,0.1,0.2,0.4c0,1.4,0,2.8,0,4.1c0,0.4,0,0.4-0.4,0.5c-0.1,0-0.1,0.1-0.1,0.2
		c0,0.1,0,0.2,0.2,0.2c0.6,0,1.2,0,1.9,0c0.5,0,0.9,0,1.4,0c0.7,0,0.7,0,0.8-0.7c0-0.1,0.1-0.2,0.1-0.4s0-0.2,0-0.5
		C33.7,45,33.5,45,33.5,45z"/>
	<g>
		<path class="st1" d="M54.8,46.1l-0.3-0.3c-0.4,0.1-0.4,0.1-0.5-0.2c-0.1-0.1-0.1-0.2-0.1-0.4c-0.1-0.6-0.4-1.2-0.6-1.8
			c-0.4-0.8-0.6-1.8-1.1-2.6c-0.1-0.1,0-0.5-0.4-0.5c-0.2,0-0.2,0.4-0.4,0.5v0.1c-0.2,0.8-0.6,1.5-0.8,2.4c-0.2,0.6-0.5,1.1-0.7,1.6
			c-0.2,0.6-0.2,0.7-0.7,1.1l-0.1,0.1c0,0.1,0,0.2,0.1,0.2c0.6,0,1.2,0,1.8,0c0,0,0.1-0.1,0.1-0.2c0-0.1,0-0.2-0.1-0.2s-0.2,0-0.2,0
			c-0.2,0-0.4-0.1-0.2-0.5c0.1-0.2,0.1-0.5,0.1-0.6c0-0.2,0.1-0.4,0.4-0.4c0.6,0,1.2,0,1.6,0c0.1,0,0.1,0.1,0.2,0.1
			c0.1,0.2,0.1,0.5,0.2,0.7l0,0c0,0.2,0,0.5-0.2,0.5c-0.1,0-0.2,0-0.4,0.1c0,0-0.1,0.1-0.1,0.2l0.1,0.1c0.4,0,0.7,0,0.9,0
			c0.4,0,0.7,0,1.1,0C54.7,46.4,54.8,46.3,54.8,46.1z M52.2,44.2c-0.2,0-0.4,0-0.6,0c-0.1,0-0.2,0-0.2,0c-0.6,0-0.6,0-0.4-0.6
			c0.1-0.6,0.5-1.1,0.6-1.6c0,0,0-0.1,0.1-0.1c0,0,0,0.1,0.1,0.1c0.2,0.9,0.5,1.5,0.7,2C52.5,44,52.5,44.2,52.2,44.2z"/>
	</g>
	<path class="st1" d="M37.6,45.5c-0.1,0.4-0.4,0.5-0.7,0.5c-0.2,0-0.5,0-0.8,0c-0.2,0-0.5-0.2-0.5-0.5c0-0.1,0-0.2,0-0.4
		c0-0.7,0-1.4,0-2.1c0-0.5-0.2-0.9-0.1-1.4c0-0.4,0-0.4,0.5-0.5c0.1,0,0.1-0.1,0.1-0.2s-0.1-0.2-0.2-0.2c-0.5,0-0.8,0-1.3,0
		c-0.1,0-0.2,0-0.2,0.2c0,0.1,0,0.2,0.1,0.2c0.4,0.1,0.5,0.1,0.4,0.5c0,0.9,0.1,1.9-0.1,2.8c-0.1,0.4,0,0.8,0,1.2
		c0,0.2,0.1,0.5-0.4,0.5c-0.1,0-0.1,0.1-0.2,0.1v0.1l0.1,0.1c0.6,0,1.2,0,1.6,0s0.9,0,1.5,0c0.4,0,0.4-0.2,0.5-0.4
		c0.1-0.4,0.2-0.6,0.2-0.9c0-0.1,0-0.1,0-0.2c-0.1,0-0.2,0-0.4,0C38,45.3,37.8,45.3,37.6,45.5z"/>
</g>
<path class="st1" d="M44.1,36.6l0.4-0.1c0.2-0.1,0.5-0.2,0.7-0.4c0.4-0.2,0.6-0.5,0.7-0.8c0.1-0.2,0.1-0.6,0.1-0.7
	c-0.1-0.2-0.5-0.4-0.9-0.1h-0.1v0.1c-0.1,0.6-0.4,1.2-0.7,1.8L44.1,36.6z M45.3,34.6c0.2-0.1,0.4,0,0.5,0c0,0.1,0,0.2-0.1,0.5
	c-0.1,0.2-0.4,0.5-0.6,0.7c-0.1,0.1-0.2,0.1-0.2,0.1C45.1,35.6,45.2,35.2,45.3,34.6z"/>
<path class="st1" d="M38.6,37c0.8,0.9,1.8,1.4,2.8,1.4c1.1,0,2-0.5,2.7-1.3h0.1c0.4,0,0.8-0.2,1.3-0.5c0.9-0.7,1.3-1.6,0.9-2.4l0,0
	c-0.2-0.4-0.6-0.5-0.9-0.5c0-0.1,0-0.2,0-0.2c0-0.1,0-0.4-0.1-0.5S45.2,33,45.1,33h-7.3c-0.1,0-0.2,0-0.4,0.1
	c-0.1,0.1-0.1,0.2-0.1,0.5C37.3,34.9,37.8,36,38.6,37z M37.6,33.3C37.6,33.3,37.6,33.2,37.6,33.3h7.4h0.1c0,0,0.1,0.1,0.1,0.2
	c0,0.1,0,0.4,0,0.5v0.2h0.2c0.4-0.1,0.7,0,0.8,0.2l0,0c0.2,0.5-0.1,1.4-0.8,1.9c-0.4,0.2-0.7,0.5-1.1,0.5c-0.1,0-0.1,0-0.2,0h-0.1
	V37c-0.9,0.7-1.8,1.2-2.7,1.2c-2,0-3.7-2-3.9-4.6C37.5,33.4,37.5,33.3,37.6,33.3z"/>
<path class="st1" d="M40.2,37.4L40.2,37.4L40.2,37.4c0.1-0.1,0.1-0.1,0-0.1h-0.1C40.1,37.3,40.1,37.4,40.2,37.4
	C40.1,37.4,40.1,37.4,40.2,37.4C40.1,37.4,40.1,37.4,40.2,37.4z"/>
<path class="st1" d="M40.8,37.2L40.8,37.2L40.8,37.2c0.1-0.1,0.1-0.1,0-0.1h-0.1C40.7,37.1,40.7,37.1,40.8,37.2
	C40.7,37.2,40.7,37.2,40.8,37.2C40.7,37.2,40.8,37.2,40.8,37.2z"/>
<path class="st1" d="M42.8,36.5C42.8,36.5,42.9,36.5,42.8,36.5C42.9,36.5,42.9,36.5,42.8,36.5c0.1-0.1,0.1-0.1,0-0.1l0,0l0,0
	C42.8,36.4,42.8,36.4,42.8,36.5L42.8,36.5L42.8,36.5z"/>
<path class="st1" d="M42.1,36.9L42.1,36.9C42.1,36.9,42.2,36.9,42.1,36.9c0.1-0.1,0.1-0.1,0-0.1H42C42,36.7,42,36.7,42.1,36.9
	C42,36.9,42,36.9,42.1,36.9L42.1,36.9z"/>
<path class="st1" d="M42.6,37.3C42.6,37.3,42.7,37.3,42.6,37.3C42.7,37.3,42.7,37.3,42.6,37.3c0.1-0.1,0.1-0.1,0-0.1l0,0l0,0
	C42.6,37.2,42.6,37.2,42.6,37.3L42.6,37.3L42.6,37.3z"/>
<path class="st1" d="M42.8,36.7L42.8,36.7L42.8,36.7c-0.1,0.1-0.1,0.1,0,0.1l0,0l0,0C42.9,36.9,42.9,36.9,42.8,36.7
	C42.9,36.7,42.9,36.7,42.8,36.7C42.9,36.7,42.9,36.7,42.8,36.7z"/>
<path class="st1" d="M41.4,37.6C41.4,37.6,41.5,37.6,41.4,37.6C41.5,37.6,41.5,37.4,41.4,37.6c0.1-0.1,0.1-0.1,0-0.1h-0.1
	C41.4,37.4,41.4,37.4,41.4,37.6C41.4,37.4,41.4,37.6,41.4,37.6L41.4,37.6z"/>
<path class="st1" d="M40.9,37.9C40.9,37.9,41,37.9,40.9,37.9C41,37.8,41,37.8,40.9,37.9c0.1-0.1,0.1-0.1,0-0.1h-0.1
	C40.9,37.8,40.9,37.8,40.9,37.9C40.9,37.8,40.9,37.8,40.9,37.9L40.9,37.9z"/>
<path class="st1" d="M41.4,37.8L41.4,37.8C41.4,37.9,41.4,37.9,41.4,37.8c0,0.1,0,0.1,0,0.1C41.5,37.9,41.5,37.9,41.4,37.8
	c0.1,0.1,0.1,0.1,0.1,0C41.5,37.8,41.5,37.8,41.4,37.8C41.5,37.8,41.5,37.8,41.4,37.8z"/>
<path class="st1" d="M42,37.8C42.1,37.8,42.1,37.8,42,37.8C42.1,37.8,42.1,37.8,42,37.8c0.1-0.1,0.1-0.1,0-0.1h-0.1
	C42,37.7,42,37.7,42,37.8L42,37.8L42,37.8z"/>
<path class="st1" d="M42.1,37.2L42.1,37.2C42.2,37.3,42.2,37.3,42.1,37.2c0.1,0.1,0.1,0.1,0.1,0l0,0l0,0
	C42.2,37.1,42.2,37.1,42.1,37.2L42.1,37.2z"/>
<path class="st1" d="M43.6,35.8L43.6,35.8C43.8,35.7,43.8,35.7,43.6,35.8c0.1-0.1,0.1-0.1,0-0.1l0,0l0,0
	C43.5,35.7,43.5,35.7,43.6,35.8C43.5,35.7,43.5,35.7,43.6,35.8L43.6,35.8z"/>
<path class="st1" d="M43.6,36.4L43.6,36.4L43.6,36.4c0.1-0.1,0.1-0.1,0-0.1l0,0l0,0C43.5,36.3,43.5,36.3,43.6,36.4
	C43.5,36.4,43.5,36.4,43.6,36.4C43.5,36.4,43.5,36.4,43.6,36.4z"/>
<path class="st1" d="M43.3,37.1C43.4,37.1,43.4,37.1,43.3,37.1C43.4,37.1,43.4,37.1,43.3,37.1c0.1-0.1,0.1-0.1,0-0.1l0,0l0,0
	C43.3,37,43.3,37,43.3,37.1L43.3,37.1L43.3,37.1z"/>
<path class="st1" d="M44.1,34.6C44.1,34.6,44.1,34.5,44.1,34.6C44.1,34.5,44.1,34.5,44.1,34.6c0.1-0.1,0.1-0.1,0-0.1l0,0l0,0
	C44,34.5,44,34.5,44.1,34.6C44,34.5,44,34.5,44.1,34.6C44,34.5,44.1,34.6,44.1,34.6z"/>
<path class="st1" d="M44.6,35L44.6,35C44.6,34.9,44.6,34.9,44.6,35c0.1-0.1,0.1-0.1,0-0.1l0,0l0,0l0,0C44.5,34.9,44.5,34.9,44.6,35
	C44.5,34.9,44.5,34.9,44.6,35C44.5,35,44.5,35,44.6,35z"/>
<path class="st1" d="M44.3,35.6L44.3,35.6C44.5,35.6,44.5,35.6,44.3,35.6c0.1-0.1,0.1-0.1,0-0.1l0,0l0,0
	C44.3,35.4,44.3,35.4,44.3,35.6L44.3,35.6L44.3,35.6z"/>
<path class="st1" d="M41.9,29.2c-0.1,0.1-0.1,0.1-0.2,0.2s-0.1,0.1-0.2,0.2c-0.2,0.1-0.4,0.4-0.6,0.6c-0.1,0.2-0.2,0.6-0.2,0.8
	c0,0.2,0.1,0.6,0.4,0.7c0.1,0.2,0.4,0.4,0.6,0.5C41.3,31.8,41,31.4,41,31c0-0.2,0.1-0.4,0.2-0.5c0.1-0.1,0.2-0.4,0.5-0.5
	c0.4-0.4,0.8-0.8,0.8-1.4c0-0.1-0.1-0.4-0.2-0.5c-0.1-0.1-0.2-0.2-0.4-0.2c-0.2-0.1-0.5-0.1-0.7-0.4c0.1,0.2,0.4,0.4,0.5,0.6
	c0.1,0.1,0.2,0.4,0.2,0.5C42,28.8,42,29.1,41.9,29.2z"/>
<path class="st1" d="M40.2,32c-0.2-0.2-0.4-0.6-0.4-0.8c0-0.4,0-0.6,0.2-0.8c0.2-0.2,0.5-0.5,0.7-0.7c0.1-0.1,0.2-0.4,0.2-0.5
	c0-0.2-0.1-0.4-0.2-0.5c0.1,0.1,0.1,0.4,0.1,0.5c0,0.1-0.1,0.2-0.2,0.4c-0.2,0.2-0.5,0.5-0.7,0.7c-0.1,0.1-0.2,0.4-0.2,0.5
	c0,0.2,0,0.4,0,0.6C39.6,31.6,39.9,31.9,40.2,32z"/>
<path class="st1" d="M42.1,30.6C42,30.7,42,30.8,42,31.1c0,0.1,0,0.4,0.1,0.5c0.1,0.4,0.4,0.6,0.6,0.7c-0.1-0.2-0.4-0.5-0.4-0.7
	c0-0.2,0-0.5,0.1-0.7c0.1-0.2,0.4-0.4,0.6-0.6c0.1-0.1,0.2-0.2,0.2-0.4s0-0.4,0-0.5c0,0.4-0.2,0.5-0.5,0.7
	C42.6,30.1,42.3,30.4,42.1,30.6z"/>
</svg>
