<?xml version="1.0" encoding="utf-8"?>
<!-- Generator: Adobe Illustrator 24.0.1, SVG Export Plug-In . SVG Version: 6.00 Build 0)  -->
<svg version="1.1" id="Ebene_1" xmlns="http://www.w3.org/2000/svg" xmlns:xlink="http://www.w3.org/1999/xlink" x="0px" y="0px"
	 viewBox="0 0 84.3 75.2" style="enable-background:new 0 0 84.3 75.2;" xml:space="preserve">
<style type="text/css">
	.st0{fill:#FFFFFF;}
	.st1{fill:#FCFDFB;}
	.st2{fill:none;stroke:#FFFFFF;stroke-width:0.3;stroke-miterlimit:10;}
</style>
<g>
	<path class="st0" d="M52.7,39.8 M27.8,42.8c0.1,0,0.2,0.1,0.3,0.1c1.2,0.4,2.4,0.8,3.6,1H32l0,0c0.6,0.1,1.3,0.3,1.9,0.3
		c0,0,0,0,0.1,0c0.8,0.1,1.5,0.2,2.3,0.3c1.5,0.1,2.9,0.2,4.4,0.1c0.6,0,1.2-0.1,1.8-0.1c0.6-0.1,1.2-0.1,1.7-0.2
		c0.7-0.1,1.5-0.3,2.1-0.3h0.1c0.4-0.1,0.9-0.2,1.4-0.3c0.3-0.1,0.7-0.2,1-0.3c0.1,0,0.3-0.1,0.3-0.1h0.1c1.5-0.5,2.9-1.1,4.3-2.1
		c0.1,0,0.1,0,0.2,0c0.2,0,0.3,0,0.4,0c0.1,0,0.2,0,0.3-0.1c-0.1,0.1-0.1,0.1-0.2,0.2c0.2,0.2,0.3,0.3,0.4,0.6c0,0.2,0,0.3,0.2,0.3
		c0.4,0,0.4,0.1,0.5,0.2c-0.6,0.3-1.2,0.7-1.9,0.9c-0.4,0.2-0.9,0.3-1.3,0.5H52c-0.4,0.2-0.8,0.3-1.2,0.4c-1,0.3-2,0.5-3,0.8
		c-0.1,0-0.3,0.1-0.3,0.1c-0.7,0.1-1.4,0.3-2.1,0.3c-1.1,0.1-2.1,0.3-3.3,0.3c-0.7,0.1-1.5,0.1-2.1,0.1c-0.1,0-0.3,0-0.3,0
		c-0.3,0-0.7,0-1,0c-1.2-0.1-2.5-0.2-3.7-0.3c-1.3-0.1-2.7-0.3-4-0.6c-1.4-0.3-2.7-0.6-4-1.1h-0.1c-0.1,0-0.2-0.1-0.2-0.1
		c-0.7-0.3-1.5-0.6-2.1-0.9c-1.2-0.5-2.4-1.1-3.5-1.9c-0.6-0.5-1.2-1-1.7-1.8c-0.3-0.6-0.6-1.3-0.6-2.1c0-0.5,0.2-1,0.3-1.5
		c0-0.1,0.1-0.2,0.1-0.2c0-0.1,0.1-0.1,0.1-0.2l0,0l0.1-0.1l0,0c0.1-0.1,0.2-0.2,0.2-0.3c0.1-0.1,0.2-0.2,0.3-0.3
		c0.1-0.1,0.2-0.2,0.3-0.3c0.1-0.1,0.1-0.1,0.2-0.2l0,0c0.7-0.6,1.5-1.1,2.2-1.5c0.9-0.5,1.9-0.9,2.8-1.2c0,0,0.1,0,0.1-0.1l0,0
		c0.3-0.1,0.5-0.2,0.7-0.2c1.1-0.3,2.2-0.6,3.4-0.9c0.9-0.2,1.7-0.3,2.6-0.4H32c0.6-0.1,1.2-0.1,1.8-0.2s1.2-0.1,1.8-0.1
		c1.5-0.1,3-0.1,4.5,0c0.9,0.1,1.8,0.2,2.7,0.3c0.1,0,0.2,0,0.3,0h0.1c1.3,0.2,2.6,0.3,3.8,0.7c0.9,0.3,1.8,0.5,2.7,0.8h0.1
		c0,0,0,0,0.1,0c1.1,0.4,2.1,0.9,3.3,1.3c-0.1,0.2-0.2,0.3-0.2,0.5c-0.1,0.3-0.3,0.6-0.3,0.9c-0.4-0.2-0.8-0.4-1.2-0.6l0,0
		c0.3,0.3,0.8,0.5,1.1,0.8c0,0.1-0.1,0.3-0.1,0.3c-0.6-0.6-1.2-0.7-1.9-1.1c-0.1,0-0.1-0.3-0.2-0.3c-0.2,0.3-0.5,0.1-0.7,0.1
		c-0.3-0.1-0.6-0.3-0.9-0.3h-0.1h-0.1c-1.6-0.4-3.3-0.8-4.9-0.9c-1.5-0.2-2.9-0.3-4.5-0.3c-1.5,0-3.1,0.1-4.6,0.3
		c-0.9,0.2-1.8,0.3-2.7,0.4c-0.8,0.2-1.5,0.3-2.3,0.6c-0.6,0.2-1.3,0.4-1.9,0.7c-0.1,0.1-0.3,0.1-0.3,0.2c-0.3,0.2-0.7,0.3-0.9,0.4
		l-0.1,0.1c-0.8,0.4-1.5,0.9-2.1,1.5c-0.3,0.3-0.7,0.7-0.9,1.1c-0.3,0.5-0.4,0.9-0.3,1.5c0,0.1,0,0.1,0,0.2c0,0.1,0,0.1,0,0.2
		c0.1,0.5,0.3,1,0.6,1.4c0.8,1,1.6,1.7,2.7,2.1C26.8,42.4,27.3,42.5,27.8,42.8c0.1-0.1,0.2-0.1,0.2,0c0,0,0,0,0.1,0 M21,33.9
		c-0.1,0-0.1,0.1-0.2,0.1c-0.6,0.5-1.1,1.1-1.5,1.9c-0.3,0.8-0.3,1.6-0.1,2.4c0.2,0.5,0.4,1,0.8,1.4c0.8,0.9,1.7,1.5,2.7,2.1
		c0,0,0,0,0.1,0l0,0c-0.3-0.3-0.7-0.6-1-0.9c-0.4-0.4-0.8-0.9-1-1.5c-0.4-0.9-0.4-2,0-2.9s0.9-1.4,1.5-2c0.9-0.7,1.7-1.2,2.7-1.6
		c0.2-0.1,0.3-0.2,0.4-0.3l0,0c0.1,0,0.1,0,0.2,0c0.9-0.3,1.7-0.7,2.6-0.9c0.5-0.2,1-0.3,1.6-0.4h0.1l0,0c1.5-0.3,3.1-0.6,4.6-0.8
		c1.5-0.2,3-0.3,4.5-0.3s2.9,0,4.4,0.2c0.7,0.1,1.4,0.1,2.1,0.3c1,0.2,2.1,0.3,3.2,0.6c0.1,0,0.2,0.1,0.3,0.1l0,0
		c-0.1,0-0.2-0.1-0.3-0.1c-0.6-0.2-1.2-0.3-1.8-0.5c-1.2-0.3-2.4-0.5-3.7-0.7c-0.9-0.1-1.7-0.2-2.7-0.3c-0.5,0-1-0.1-1.5-0.1
		c-0.9,0-1.7,0-2.5,0h-0.1c-0.3,0-0.7,0-1,0.1c-0.1,0-0.1,0-0.2,0c-0.4,0-0.9,0-1.4,0.1c-1.5,0.2-3,0.3-4.6,0.6
		c-1.3,0.3-2.6,0.6-3.9,1c-0.9,0.3-1.6,0.6-2.5,1c-0.1,0-0.1,0.1-0.2,0.1c-0.2,0.1-0.3,0.2-0.4,0.3C22,33.1,21.5,33.4,21,33.9z
		 M28.1,42.8L28.1,42.8L28.1,42.8L28.1,42.8z M22.8,41.8L22.8,41.8L22.8,41.8L22.8,41.8L22.8,41.8z M22.8,41.8L22.8,41.8L22.8,41.8
		L22.8,41.8L22.8,41.8z"/>
	<path class="st0" d="M55.3,42.4c-0.1-0.1-0.2-0.1-0.3-0.2c0-0.1,0-0.2,0-0.3s0.1-0.1,0.1-0.2c0.4-0.8,0.9-1.4,1.5-2
		c0.9-0.9,2-1.8,3-2.5c0.6-0.4,1.2-0.8,1.8-1.1c0.3-0.3,0.8-0.3,1.1-0.5c0.3-0.1,0.7-0.3,0.9-0.3v-0.1c-0.3,0-0.7,0.2-1,0.3
		c-0.4,0.2-0.9,0.3-1.2,0.4c-1.4,0.6-2.7,1.3-4,2.4c-0.3,0.3-0.5,0.5-0.9,0.8c0.1-0.2,0.1-0.3,0.2-0.4c0.4-1,0.6-2.1,0.6-3.4
		c0-0.2,0-0.4,0-0.6h0.1c0.8-0.6,1.7-0.9,2.6-1.2c0.7-0.2,1.4-0.3,2.1-0.3c0.8-0.1,1.5,0,2.3,0.1h0.1c0.1,0,0.3,0,0.3,0.1
		c0.6,0.1,1.2,0.3,1.8,0.3c0.1,0,0.1,0.1,0.1,0.2c0,0.1,0,0.1-0.1,0.2v0.1c-0.4,1.3-1,2.6-1.6,3.7c-0.9,1.7-2.1,3.2-3.6,4.2
		c-0.8,0.5-1.6,0.9-2.5,1c-1.1,0.2-2.2,0-3.3-0.4c-0.1,0-0.1,0-0.2-0.1C55.5,42.4,55.4,42.4,55.3,42.4z"/>
	<path class="st0" d="M57.3,34.5c0,0.2,0,0.4,0,0.6c0,1.2-0.2,2.3-0.6,3.4c-0.1,0.2-0.1,0.3-0.2,0.4l0,0l0,0
		c-0.1,0.1-0.1,0.2-0.2,0.3c-0.3,0.5-0.6,0.9-0.9,1.3c-0.2,0.3-0.4,0.4-0.7,0.6c-0.1,0-0.2,0-0.3,0.1c0-0.1-0.1-0.1-0.1-0.2
		c-0.1-0.6-0.2-1.1-0.2-1.7s0-1.2,0-1.8c0-0.1,0-0.1,0-0.2v-0.1c0.1-0.6,0.1-1.1,0.2-1.7c0.1-1.2,0.3-2.4,0.7-3.5
		c0-0.1,0-0.1,0.1-0.2l0,0c0,0.1-0.1,0.1-0.1,0.2c-0.3,0.8-0.6,1.6-0.8,2.5s-0.3,1.7-0.4,2.6v0.1l0,0v0.1c0,0.2,0,0.3,0,0.4
		c-0.1,0.9,0,1.6,0.1,2.5c0,0.3,0.1,0.7,0.2,1c-0.1,0-0.1,0-0.2,0v-0.1c-0.3-0.3-0.5-0.6-0.7-0.9c-0.1-0.1-0.1-0.2-0.2-0.3
		s-0.1-0.2-0.2-0.3c0-0.1,0-0.1-0.1-0.2c-0.6-1.2-0.7-2.4-0.5-3.8c0.1-0.4,0.2-0.9,0.3-1.3c0-0.1,0.1-0.3,0.1-0.3
		c0-0.1,0.1-0.2,0.1-0.3c0.1-0.3,0.3-0.6,0.3-0.9c0.1-0.2,0.2-0.3,0.2-0.5c0-0.1,0.1-0.1,0.1-0.2c0.7-1.3,1.5-2.5,2.3-3.5
		c0.2-0.2,0.2-0.2,0.3,0.1c0.5,1.2,0.9,2.5,1.2,3.9c0,0,0,0,0,0.1s0,0.3,0.1,0.3c0,0.4,0.1,0.8,0.1,1.2
		C57.3,34.4,57.3,34.5,57.3,34.5z"/>
	<path class="st0" d="M56.5,38.9L56.5,38.9L56.5,38.9z"/>
	<path class="st1" d="M53.9,37.1L53.9,37.1L53.9,37.1L53.9,37.1z"/>
</g>
<g>
	<path class="st0" d="M29.2,36C29.2,36.1,29.2,36.1,29.2,36C29.2,36.1,29.1,36.1,29.2,36c-0.1,0.1-0.2,0.1-0.2,0.1l-0.1,0.1
		c-0.1,0-0.3,0-0.3,0l-0.2,0.2c0,0.3,0.1,0.7,0.1,0.9l0.1,1.5c0,0.2,0,0.4-0.1,0.6l-0.1,0.2c0,0-0.1,0.2-0.2,0.3
		c0,0.2-0.6,0.3-0.7,0.3c-0.2,0-0.3,0-0.5-0.2l0,0c-0.3-0.2-0.1-0.4-0.2-0.7c0.1-0.2,0.3-0.3,0.3-0.3c0.1,0,0.1,0.1,0.1,0.2
		s0,0.2,0,0.3c0,0.2,0,0.3,0.1,0.3c0.2,0,0.4,0,0.5-0.3s0.1-0.6,0.1-0.9c0-0.7-0.2-1.3-0.2-2c-0.3,0-0.4,0.1-0.6,0.1
		c-0.1,0-0.3-0.3-0.3-0.3c0-0.3,0.9-0.2,0.9-0.3h0.1c0-0.1,0-0.3,0-0.3c0-0.2,0-0.2,0.2-0.2c0.1,0,0.3,0.3,0.3,0.4v0.1
		c0.2,0,0.4-0.1,0.6-0.1C29.1,35.7,29.2,35.8,29.2,36L29.2,36L29.2,36L29.2,36z M29.2,36.1L29.2,36.1L29.2,36.1
		C29.2,36,29.2,36.1,29.2,36.1z"/>
	<path class="st0" d="M30.3,38.7c-0.2,0.3-0.5,1-0.9,1.2c-0.3,0-0.5-0.3-0.5-0.6c0-0.8,0.4-2.1,1.4-2.1h0.1l0,0
		c0-0.2,0.1-0.3,0.3-0.3c0.1,0,0.2,0.1,0.2,0.2c0,0.3-0.2,0.8-0.2,1.1c0,0.4,0.1,0.9,0.3,1.3c0,0.1,0.1,0.1,0.1,0.2
		c0,0.2-0.1,0.3-0.3,0.4c-0.3-0.2-0.3-0.7-0.3-0.9C30.4,38.9,30.5,38.8,30.3,38.7z M29.4,39.1c0,0.1,0,0.3,0.1,0.3
		c0.4-0.4,0.5-1,0.8-1.6c0.1-0.1,0.1-0.3,0.1-0.4C29.7,37.7,29.4,38.4,29.4,39.1L29.4,39.1L29.4,39.1z"/>
	<path class="st0" d="M31.7,39.3c0-0.2-0.1-0.3-0.1-0.5l-0.2-0.9c0-0.1-0.1-0.2-0.1-0.3c0-0.3,0-0.4,0.3-0.4l0,0
		c0.1,0,0.2,0,0.2,0.1v0.1c0,0,0,0.4,0.1,0.4l0,0c0.1-0.3,0.3-0.8,0.6-0.8c0.1,0,0.3,0,0.3,0.1l0,0l0.2,0.2c0.2,0.3,0.2,0.5,0.2,0.9
		c0.1,0.4,0.1,0.8,0.2,1.2c0,0.1,0.1,0.2,0.1,0.3s-0.1,0.2-0.2,0.2s-0.4-0.1-0.4-0.2c0-0.2,0-0.2,0-0.7l-0.1-1
		c0-0.1-0.1-0.7-0.3-0.7s-0.3,0.3-0.3,0.4c0,0.4-0.1,0.9-0.1,1.4c0,0.1,0,0.2,0,0.2v0.4c0,0.1-0.2,0.2-0.3,0.2
		c-0.1,0-0.2-0.1-0.3-0.2L31.7,39.3z"/>
	<path class="st0" d="M34.1,39.9c0.3-0.2,0.4-0.5,0.4-0.9c0-0.3-0.8-0.8-0.9-0.9l-0.2-0.3c0-0.1,0-0.2,0-0.3c0-0.7,0.6-0.9,1-0.9
		h0.2c0.2,0,0.3,0.1,0.3,0.3V37l0.1,0.1c-0.1,0.2,0,0.2-0.3,0.2h-0.1h-0.3c-0.3,0-0.5,0-0.5,0.3c0,0.2,0.1,0.3,0.3,0.5
		c0.4,0.4,0.8,0.8,0.8,1.3c0,0.2-0.1,0.3-0.2,0.4l0,0l0,0c-0.1,0.2-0.5,0.5-0.8,0.5c-0.2,0-0.3-0.1-0.3-0.3C33.8,40,34,40,34.1,39.9
		z"/>
	<path class="st0" d="M36.9,39.3c0-0.9,0.1-2.4,0.1-3.6c0-0.1,0-0.2,0-0.2c0-0.2,0.6-0.2,0.9-0.2c0.5,0,0.9,0.5,0.9,1
		c0,0.4-0.3,1-0.6,1.3c-0.1,0.1-0.3,0.2-0.3,0.2c0,0.1,0.2,0.1,0.3,0.1c0.3,0.2,0.3,0.5,0.3,0.8c0,0.6-0.3,0.9-0.9,1.1
		c-0.1,0-0.3,0.1-0.3,0.1c-0.1,0-0.3-0.2-0.3-0.3L36.9,39.3z M37.5,39.4C37.5,39.4,37.6,39.4,37.5,39.4c0.3-0.3,0.4-0.4,0.4-0.7
		s-0.2-0.7-0.4-0.8l0,0c-0.1,0.3-0.1,0.8-0.1,1.2C37.5,39.2,37.5,39.4,37.5,39.4z M37.6,37.5c0.1,0,0.1,0,0.2-0.1
		c0.3-0.3,0.6-0.8,0.6-1.3c0-0.3-0.1-0.6-0.4-0.6c-0.1,0-0.3,0.1-0.3,0.1l0,0l-0.1,1.6v0.1C37.5,37.5,37.5,37.5,37.6,37.5z"/>
	<path class="st0" d="M40.1,38.7c-0.2,0.3-0.5,1-0.9,1.2c-0.3,0-0.5-0.3-0.5-0.6c0-0.8,0.4-2.1,1.4-2.1h0.1l0,0
		c0-0.2,0.1-0.3,0.3-0.3c0.1,0,0.2,0.1,0.2,0.2c0,0.3-0.2,0.8-0.2,1.1c0,0.4,0.1,0.9,0.3,1.3c0,0.1,0.1,0.1,0.1,0.2
		c0,0.2-0.1,0.3-0.3,0.4c-0.3-0.2-0.3-0.7-0.3-0.9C40.2,38.9,40.2,38.8,40.1,38.7z M39.1,39.1c0,0.1,0,0.3,0.1,0.3
		c0.4-0.4,0.5-1,0.8-1.6c0.1-0.1,0.1-0.3,0.1-0.4C39.4,37.7,39.1,38.4,39.1,39.1L39.1,39.1L39.1,39.1z"/>
	<path class="st0" d="M41.1,38L41.1,38c0-0.2,0-0.3,0-0.3l0.1-0.3c0-0.2,0.1-0.2,0.3-0.2c0.1,0,0.3,0,0.3,0.2c0,0.3,0,0.4,0,0.7v0.3
		c0,0.1,0,1.2,0.4,1.2h0.1c0.1-0.1,0.2-0.3,0.2-0.4v-0.3v-0.1v-0.3l-0.1-1c0-0.1-0.1-0.2-0.1-0.3s0.1-0.2,0.2-0.2h0.4
		c0,0,0.2,0.1,0.2,0.2v1.1c0,0-0.1,0.5-0.1,0.8c-0.1,0.3-0.3,0.8-0.7,0.9c-0.4,0-0.7-0.1-0.9-0.4C41.2,39,41.1,38.5,41.1,38z"/>
	<path class="st0" d="M44.8,39.4l0.3-1.8l0.1-0.4l0.5-2c0-0.2,0.2-0.3,0.3-0.3s0.3,0.3,0.3,0.4l0.3,0.9c0,0.3,0.1,0.5,0.1,0.6
		l0.3,2.1c0,0,0,0,0,0.1c0,0.2,0.1,0.4,0.1,0.6c0,0,0,0.2-0.1,0.2h-0.3c-0.3,0,0-0.9-0.3-0.9c-0.2,0-1,0.1-1.1,0.2
		c-0.2,0.2,0,0.6-0.3,0.8C45.1,39.7,44.8,39.7,44.8,39.4L44.8,39.4z M45.5,38.4L45.5,38.4c0.2,0,0.9-0.1,0.9-0.2l0,0
		c0-0.3-0.1-0.9-0.2-0.9c-0.1-0.2-0.1-0.4-0.1-0.6c0-0.1-0.2-0.9-0.2-0.9c-0.1,0.1-0.2,0.5-0.2,0.8L45.5,38.4L45.5,38.4z"/>
	<path class="st0" d="M47.4,37.5c0-0.4,0.1-1,0.2-1.2c0.3-0.7,0.5-1,1-1c0.4,0,0.7,0.3,0.7,0.8c0,0.3-0.1,0.4-0.3,0.4
		c-0.1,0-0.2-0.1-0.2-0.2s0-0.1,0-0.2c0-0.3-0.1-0.5-0.4-0.5c-0.3,0.1-0.3,0.5-0.4,0.7c-0.1,0.4-0.1,0.9-0.1,1.4
		c0,0.2,0,0.3,0.1,0.6c0.1,0.6,0.3,1.2,0.8,1.6l0.1,0.1c0.1,0,0.1-0.1,0.1-0.1c0-0.6,0-1.1,0-1.7c-0.1-0.3,0.1-0.3-0.1-0.4
		c-0.1,0-0.2,0-0.3,0s-0.3-0.1-0.3-0.2c0-0.2,0.6-0.3,0.7-0.3c0.1,0,0.3,0.1,0.3,0.3v2.7c0,0.1-0.1,0.3-0.2,0.3H49
		c-0.1,0-0.5-0.3-0.5-0.3C47.5,39.4,47.4,38.6,47.4,37.5z"/>
</g>
<path class="st2" d="M20.6,38c1,3.9,24.9,8.5,32.6,2.3"/>
</svg>
