<?xml version="1.0" encoding="utf-8"?>
<!-- Generator: Adobe Illustrator 24.0.1, SVG Export Plug-In . SVG Version: 6.00 Build 0)  -->
<svg version="1.1" id="Ebene_1" xmlns="http://www.w3.org/2000/svg" xmlns:xlink="http://www.w3.org/1999/xlink" x="0px" y="0px"
	 viewBox="0 0 84.3 75.2" style="enable-background:new 0 0 84.3 75.2;" xml:space="preserve">
<style type="text/css">
	.st0{fill:#FFFFFF;}
</style>
<g>
	<g>
		<g>
			<path class="st0" d="M36.4,35.5c0.8,0.5,1.9,1.1,1.9,1.1c0.2,0.1,0.5,0.2,0.7,0.6c0.1,0.4,0.1,0.7,0,1c0.6-0.1,1.3-0.4,1.9-0.6
				c1.6-0.6,3-1.3,4.4-2.4c0.4-1,0.8-2,1.2-3c0.2,0.5,0.4,1,0.6,1.6c0.8-0.8,1.7-1.7,2.5-2.6c-0.4-0.8-0.7-1.8-1-2.6
				c-1.1,0-2.3,0-3.3,0c-1.1,2.2-2.2,4.4-3.1,6.6c-0.1-0.1-0.4-0.5-0.7-0.7c-0.1-0.1-0.5-0.4-1.6-1c-0.6-0.4-0.8-0.5-1.2-0.8
				c-0.5-0.5-0.5-0.6-0.5-0.8c0-0.4,0.4-0.6,0.5-0.7c1.1-0.7,3.3,0,3.7,0.1c0.5-1,1-1.9,1.3-2.9c-0.8-0.4-2.2-0.7-3.6-0.6
				c-0.7,0-3,0.1-4.5,1.8c-0.2,0.4-0.8,1-1.1,1.9c-0.1,0.2-0.2,1.4,0.4,2.6C35.4,34.8,36.1,35.3,36.4,35.5z"/>
			<path class="st0" d="M50.2,33.3c-1.4,2-3.6,4.3-6.2,6.2c-0.2,0.1-0.5,0.4-0.7,0.5c0,0,0,0-0.1,0c-0.1,0.1-0.2,0.1-0.4,0.2
				c0,0,0,0-0.1,0c-0.1,0.1-0.2,0.1-0.4,0.2l0,0c-0.7,0.4-1.4,0.7-2,1l0,0c1.2,0,2.9-0.2,4.8-1.1c1.6-0.7,2.7-1.6,3.6-2.3
				c0.4,1.2,0.8,2.3,1.2,3.5c1.2,0,2.4,0,3.6,0C52.2,38.8,51.3,36,50.2,33.3L50.2,33.3z"/>
		</g>
	</g>
	<g>
		<path class="st0" d="M32.3,37.6c1.2,2.9,4.3,4.4,7.2,3.6l0,0h0.1c1.9-0.6,3.2-1.4,4.1-2c0.5-0.4,1-0.7,1.2-1
			c0.6-0.5,1.2-1.1,1.8-1.6c0.7-0.7,1.3-1.4,1.9-2.2c0.6-0.7,1.2-1.4,1.6-2.2c1.4-2,2.2-3.5,2.2-3.5l0.7,0.6l0.2-0.4l-0.6-1l0.4-0.6
			c0-0.1,0-0.2,0-0.2c-0.1-0.1-0.2,0-0.2,0.1l-0.4,0.7l-1.2,0.1l-0.2,0.2l1.1,0.2c-0.7,1.1-1.6,2.3-2.5,3.2
			c-0.7,0.8-1.4,1.6-2.2,2.3c-0.7,0.6-1.4,1.2-2.2,1.7c-0.6,0.4-1.2,0.7-1.8,1.1c0,0-1.2,0.7-2.4,1.1c-0.6,0.2-5.3,1.9-8.1-0.7
			C32.4,37,32,36.5,31.8,36l0,0C31.8,36.1,31.9,36.7,32.3,37.6z"/>
	</g>
</g>
<g>
	<path class="st0" d="M33.9,45.5c0,0.6-0.4,1-1.2,1c-0.5,0-0.8-0.1-1.1-0.1l0.2-0.6c0.1,0,0.5,0.1,0.8,0.1c0.4,0,0.4-0.1,0.4-0.2
		v-0.1c0-0.1-0.1-0.2-0.4-0.2h-0.2c-0.6,0-0.8-0.2-0.8-0.8l0,0c0-0.6,0.4-1,1-1h0.1c0.4,0,0.8,0,1.1,0.1l-0.1,0.6
		c-0.2,0-0.7-0.1-1-0.1h-0.1c-0.2,0-0.2,0.1-0.2,0.2l0,0c0,0.1,0,0.2,0.2,0.2H33C33.6,44.5,33.9,44.8,33.9,45.5L33.9,45.5z"/>
	<path class="st0" d="M35.6,46.4c-0.7,0-1.1-0.4-1.1-1.1v-1.9h0.7v1.9c0,0.2,0,0.4,0.4,0.4h0.1c0.2,0,0.4-0.1,0.4-0.4v-1.9h0.8v1.9
		c0,0.7-0.4,1.1-1.1,1.1H35.6z"/>
	<path class="st0" d="M39.1,46.3l-0.5-1.1h-0.4v1.1h-0.8v-2.9h1.2c0.6,0,1.1,0.1,1.1,0.8v0.1c0,0.4-0.1,0.6-0.5,0.7l0.6,1.2
		C39.8,46.3,39.1,46.3,39.1,46.3z M39,44.3c0-0.1,0-0.2-0.2-0.2h-0.5v0.6h0.5C38.8,44.6,39,44.5,39,44.3L39,44.3z"/>
	<path class="st0" d="M40.4,46.3v-2.9h2L42.3,44h-1.2v0.5h1.2l-0.1,0.6h-1.1v0.5h1.3v0.6L40.4,46.3L40.4,46.3z"/>
	<path class="st0" d="M44.7,46.3l-1-1.7v1.7H43v-2.9h0.7l1,1.6v-1.6h0.7v2.9H44.7z"/>
	<path class="st0" d="M46.7,46.3V44H46v-0.6h2.4L48.3,44h-0.7v2.3H46.7z"/>
	<path class="st0" d="M50.2,45.8h-0.8l-0.1,0.5h-0.8l1.1-2.9h0.8l1.1,2.9h-0.8L50.2,45.8z M49.5,45.2h0.6l-0.2-1.1L49.5,45.2z"/>
	<path class="st0" d="M51.6,46.3v-2.9h0.8v2.3h1.2v0.6H51.6z"/>
</g>
<g>
	<polygon class="st0" points="31.7,47.1 53.7,47.1 53.7,47.1 	"/>
</g>
<g>
	<polygon class="st0" points="31.7,42.5 53.7,42.5 53.7,42.5 	"/>
</g>
</svg>
