<?xml version="1.0" encoding="utf-8"?>
<!-- Generator: Adobe Illustrator 24.0.1, SVG Export Plug-In . SVG Version: 6.00 Build 0)  -->
<svg version="1.1" id="Ebene_1" xmlns="http://www.w3.org/2000/svg" xmlns:xlink="http://www.w3.org/1999/xlink" x="0px" y="0px"
	 viewBox="0 0 84.3 75.2" style="enable-background:new 0 0 84.3 75.2;" xml:space="preserve">
<style type="text/css">
	.st0{fill:#FFFFFF;}
	.st1{fill:#D3D3D3;}
	.st2{fill:#FCA7B6;}
	.st3{clip-path:url(#SVGID_2_);}
</style>
<g>
	<g>
		<path class="st0" d="M42.2,29c0-0.1,0.2-0.5,0.2-0.9c0,0,0.7,0.4,0.3,0.9C42.6,29.1,42.3,29.4,42.2,29z"/>
		<path class="st1" d="M42.4,29.3L42.4,29.3c-0.1,0-0.2-0.1-0.2-0.2l0,0c0-0.1,0-0.1,0.1-0.2c0.1-0.2,0.1-0.4,0.1-0.7v-0.1h0.1
			c0,0,0.4,0.2,0.4,0.5c0.1,0.2,0,0.3-0.1,0.5l0,0C42.6,29.1,42.5,29.3,42.4,29.3z M42.2,29c0,0.1,0.1,0.1,0.1,0.1
			c0.1,0,0.2-0.1,0.2-0.1c0.1-0.1,0.1-0.2,0.1-0.4c-0.1-0.2-0.2-0.3-0.3-0.4c0,0.2-0.1,0.4-0.1,0.6C42.3,29,42.2,29,42.2,29z"/>
	</g>
	<g>
		<path class="st0" d="M40.1,40.5c0,0,0.4,0.1,0.7-0.3c0,0-0.6-0.1-0.9-0.4c0,0-0.4-0.3-0.4-0.1C39.4,39.8,39.7,40.5,40.1,40.5z"/>
		<path class="st1" d="M40.2,40.5c-0.1,0-0.1,0-0.1,0c-0.2,0-0.4-0.1-0.6-0.4c-0.1-0.2-0.2-0.4-0.1-0.6c0-0.1,0.1-0.1,0.1-0.1
			c0.1-0.1,0.4,0.1,0.4,0.2l0,0c0.3,0.4,0.8,0.4,0.8,0.4s0.1,0,0.1,0.1v0.1C40.6,40.5,40.3,40.5,40.2,40.5z M40.1,40.4L40.1,40.4
			c0,0,0.3,0.1,0.6-0.2c-0.2-0.1-0.6-0.1-0.8-0.4c-0.1-0.1-0.3-0.2-0.4-0.2l0,0c0,0.1,0,0.2,0.1,0.4C39.7,40.1,39.9,40.4,40.1,40.4
			L40.1,40.4z"/>
	</g>
	<g>
		<path class="st0" d="M40.8,40.2c0,0,0.5-0.1,0.5-0.4c0,0-0.2,0-0.9-0.1c-0.4-0.1-0.6,0-0.6,0.1C39.9,39.8,40.3,40.2,40.8,40.2z"/>
		<path class="st1" d="M40.8,40.2c-0.4,0-0.6-0.2-0.8-0.3c-0.1-0.1-0.1-0.1-0.1-0.2c0-0.1,0-0.1,0.1-0.2c0.1-0.1,0.2-0.1,0.6,0
			c0.6,0.1,0.9,0.1,0.9,0.1s0.1,0,0.1,0.1C41.3,40.1,40.8,40.2,40.8,40.2C40.8,40.2,40.8,40.2,40.8,40.2L40.8,40.2z M40.1,39.6
			c-0.1,0-0.1,0-0.2,0.1c0,0,0,0,0,0.1c0,0,0,0.1,0.1,0.1c0.1,0.1,0.4,0.3,0.7,0.2c0.1,0,0.4-0.1,0.4-0.4c-0.1,0-0.4-0.1-0.8-0.1
			C40.3,39.6,40.2,39.6,40.1,39.6z"/>
	</g>
	<g>
		<g>
			<path class="st0" d="M41.6,39.4c0,0,0.4-0.2,0.4-0.4c0,0-0.6-0.3-1-0.1c-0.4,0.2-0.4,0.3-0.4,0.3S41.6,39.4,41.6,39.4z"/>
			<path class="st1" d="M41.6,39.5L41.6,39.5c-0.1,0-0.9-0.2-0.9-0.2c0,0-0.1,0-0.1-0.1c0,0,0-0.2,0.4-0.4c0.4-0.2,1.1,0.1,1.1,0.1
				l0,0C42.1,39.3,41.7,39.4,41.6,39.5L41.6,39.5z M40.8,39.2c0.3,0.1,0.8,0.1,0.9,0.2c0.1-0.1,0.4-0.2,0.4-0.2
				c-0.1-0.1-0.6-0.2-0.9-0.1C40.9,39,40.8,39.2,40.8,39.2z"/>
		</g>
		<g>
			<path class="st0" d="M42,39c0.1,0,0.5-0.1,0.4-0.5c0,0-0.6-0.2-0.9,0s-0.4,0.3-0.4,0.3S41.8,39,42,39z"/>
			<path class="st1" d="M42,39.1L42,39.1c-0.2,0-0.9-0.1-1-0.1c0,0-0.1,0-0.1-0.1c0,0,0-0.2,0.4-0.4c0.4-0.2,1-0.1,1.1,0
				c0.1,0.1,0.1,0.2-0.1,0.4C42.3,39,42.1,39.1,42,39.1z M42,39c0,0,0.2-0.1,0.3-0.1c0.1-0.1,0.1-0.1,0.1-0.2c-0.1,0-0.6-0.1-0.9,0
				c-0.2,0.1-0.3,0.2-0.3,0.2C41.3,38.9,41.8,39,42,39L42,39z"/>
		</g>
		<g>
			<path class="st0" d="M42.4,38.6c0,0,0.4-0.4,0.3-0.6c0,0-0.2-0.1-0.8,0.1c0,0-0.3,0.1-0.6,0.6C41.2,38.7,41.8,38.8,42.4,38.6z"/>
			<path class="st1" d="M41.7,38.8c-0.3,0-0.4-0.1-0.5-0.1c0,0,0,0-0.1-0.1v-0.1c0.4-0.5,0.6-0.6,0.7-0.6c0.5-0.2,0.8-0.1,0.8-0.1
				s0.1,0,0.1,0.1c0.1,0.3-0.2,0.7-0.3,0.7l0,0C42.1,38.8,41.9,38.8,41.7,38.8z M41.3,38.7c0.2,0.1,0.6,0.1,1.1-0.1
				c0.1-0.1,0.3-0.4,0.2-0.6c-0.1,0-0.4,0-0.7,0.1C41.9,38.2,41.6,38.2,41.3,38.7z"/>
		</g>
		<g>
			<path class="st0" d="M41.2,39.8c0,0,0.4-0.1,0.4-0.4c0,0-0.1-0.2-0.7-0.2c0,0-0.4-0.1-0.9,0.4C40.1,39.5,40.5,39.8,41.2,39.8z"/>
			<path class="st1" d="M41.1,39.8c-0.6,0-1.1-0.2-1.1-0.2c0,0,0,0,0-0.1v-0.1c0.6-0.5,0.9-0.4,0.9-0.4c0.6,0.1,0.7,0.2,0.7,0.2
				s0,0,0,0.1C41.7,39.6,41.2,39.8,41.1,39.8L41.1,39.8C41.2,39.8,41.1,39.8,41.1,39.8z M40.1,39.5c0.2,0.1,0.6,0.2,1.1,0.2
				c0.1,0,0.4-0.1,0.4-0.3c-0.1-0.1-0.2-0.1-0.7-0.2C40.9,39.2,40.6,39.1,40.1,39.5z"/>
		</g>
		<g>
			<path class="st2" d="M42.8,37.5"/>
		</g>
		<g>
			<path class="st0" d="M42.4,36.8c-0.1,0-0.2-0.5,0.1-0.7c0.3-0.2,0.6-0.2,0.8-0.3c0.1-0.1,0,0.6-0.2,0.7
				C42.9,36.5,42.5,36.9,42.4,36.8z"/>
			<path class="st1" d="M42.4,36.9L42.4,36.9c-0.1,0-0.1-0.1-0.1-0.2c0-0.1-0.1-0.4,0.2-0.6s0.4-0.2,0.7-0.3c0.1,0,0.1,0,0.2-0.1
				c0.1,0,0.1,0,0.1,0.1c0.1,0.1-0.1,0.6-0.2,0.7c-0.1,0-0.1,0.1-0.2,0.1C42.7,36.7,42.5,36.9,42.4,36.9z M42.4,36.7L42.4,36.7
				L42.4,36.7z M42.4,36.7c0.1,0,0.3-0.2,0.5-0.2c0.1-0.1,0.2-0.1,0.2-0.2c0.1,0,0.1-0.1,0.2-0.3c0.1-0.1,0.1-0.2,0.1-0.2
				c-0.1,0-0.1,0-0.1,0.1c-0.2,0.1-0.4,0.1-0.6,0.2c-0.1,0.1-0.1,0.2-0.2,0.3C42.3,36.5,42.4,36.7,42.4,36.7z M42.4,36.7L42.4,36.7
				L42.4,36.7L42.4,36.7z"/>
		</g>
		<g>
			<path class="st0" d="M42.3,37.2c0,0,0.2-0.2,0.6-0.2c0.2-0.1,0.5-0.4,0.3-0.6c0,0-0.4,0.3-0.7,0.4C42.3,36.7,42.2,37.1,42.3,37.2
				z"/>
			<path class="st1" d="M42.3,37.3L42.3,37.3L42.3,37.3c-0.1-0.1-0.1-0.3,0-0.5c0.1-0.1,0.1-0.2,0.2-0.2c0.2,0,0.6-0.3,0.6-0.3
				s0,0,0.1,0c0,0,0,0,0.1,0c0.1,0.1,0.1,0.2,0.1,0.3c-0.1,0.2-0.2,0.3-0.4,0.4C42.6,37.1,42.3,37.3,42.3,37.3
				C42.3,37.3,42.3,37.3,42.3,37.3z M43.1,36.4c-0.1,0.1-0.4,0.3-0.6,0.3c-0.1,0-0.1,0.1-0.1,0.1c-0.1,0.1-0.1,0.2-0.1,0.3
				c0.1-0.1,0.2-0.2,0.5-0.2c0.2-0.1,0.3-0.2,0.3-0.3C43.2,36.5,43.1,36.5,43.1,36.4z"/>
		</g>
		<g>
			<path class="st0" d="M42,37.8c0,0,0.3-0.2,0.7-0.3c0.3-0.1,0.6-0.4,0.4-0.7c0,0-0.6,0.3-0.8,0.4C41.9,37.2,41.9,37.7,42,37.8z"/>
			<path class="st1" d="M42,37.8L42,37.8C41.9,37.8,41.9,37.8,42,37.8c-0.1-0.1-0.1-0.4,0-0.6c0.1-0.1,0.2-0.2,0.2-0.2
				c0.2,0,0.8-0.4,0.8-0.4s0,0,0.1,0c0,0,0,0,0.1,0c0.1,0.1,0.1,0.2,0.1,0.4c-0.1,0.2-0.3,0.4-0.5,0.4C42.3,37.7,42,37.8,42,37.8
				L42,37.8z M43.1,36.9c-0.1,0.1-0.6,0.3-0.8,0.4c-0.1,0-0.1,0.1-0.2,0.1C42,37.5,42,37.7,42,37.7c0.1-0.1,0.4-0.2,0.6-0.2
				c0.2-0.1,0.4-0.2,0.4-0.4C43.1,37,43.1,37,43.1,36.9z"/>
		</g>
		<g>
			<path class="st0" d="M41.6,38.2c0,0,0.4-0.2,0.7-0.2c0.3,0,0.7-0.3,0.6-0.7c0,0-0.6,0.2-0.9,0.2C41.7,37.7,41.5,38,41.6,38.2z"/>
			<path class="st1" d="M41.6,38.3C41.6,38.3,41.6,38.3,41.6,38.3c-0.1-0.2-0.1-0.3,0-0.5c0.1-0.1,0.2-0.2,0.4-0.2
				c0.3,0,0.8-0.2,0.8-0.2s0,0,0.1,0l0,0c0.1,0.1,0.1,0.3-0.1,0.4c-0.1,0.2-0.3,0.3-0.6,0.3C42,38.2,41.6,38.3,41.6,38.3L41.6,38.3z
				 M42,37.7c-0.1,0-0.2,0.1-0.2,0.2c-0.1,0.1-0.1,0.2-0.1,0.3c0.1-0.1,0.4-0.1,0.7-0.2c0.2,0,0.4-0.1,0.4-0.2
				c0.1-0.1,0.1-0.2,0.1-0.2C42.7,37.5,42.3,37.7,42,37.7L42,37.7z"/>
		</g>
	</g>
	<g>
		<path class="st0" d="M43.2,35c0,0,0.3,0.4,0,0.8c-0.3,0.4-0.8,0.4-0.9,0.5c-0.1,0,0.1-0.4,0.2-0.6C42.6,35.7,43.2,35.1,43.2,35z"
			/>
		<path class="st1" d="M42.3,36.4C42.3,36.4,42.2,36.4,42.3,36.4c-0.1-0.2,0.1-0.6,0.2-0.6c0.2-0.1,0.7-0.6,0.7-0.7
			c0,0,0-0.1,0.1-0.1h0.1c0,0,0.3,0.4,0,0.9c-0.2,0.4-0.7,0.4-0.9,0.5C42.4,36.3,42.3,36.4,42.3,36.4C42.3,36.4,42.3,36.4,42.3,36.4
			z M43.2,35.1c-0.1,0.2-0.7,0.7-0.7,0.7c-0.1,0.1-0.2,0.3-0.2,0.4c0,0,0,0,0.1,0c0.2-0.1,0.6-0.1,0.9-0.4
			C43.4,35.5,43.3,35.2,43.2,35.1z"/>
	</g>
	<g>
		<path class="st0" d="M42.4,35.2c0,0-0.2,0.3-0.2,0.5s0.6-0.1,0.9-0.4s0.4-0.8,0.2-0.9C43.1,34.3,42.5,35.1,42.4,35.2z"/>
		<path class="st1" d="M42.4,35.9L42.4,35.9c-0.1,0-0.2-0.1-0.2-0.1c-0.1-0.2,0.2-0.5,0.2-0.6c0,0,0.1-0.1,0.1-0.1
			c0.4-0.5,0.6-0.8,0.8-0.7c0.1,0.1,0.1,0.1,0.1,0.2c0.1,0.2-0.1,0.6-0.2,0.8C43,35.6,42.6,35.9,42.4,35.9z M43.2,34.5
			c-0.1,0-0.2,0.1-0.6,0.7c-0.1,0.1-0.1,0.1-0.1,0.1l0,0c-0.1,0.1-0.2,0.3-0.2,0.4c0,0,0,0,0.1,0.1c0.2,0,0.6-0.2,0.7-0.4
			c0.2-0.2,0.2-0.6,0.2-0.7C43.3,34.5,43.2,34.5,43.2,34.5C43.2,34.5,43.2,34.5,43.2,34.5z"/>
	</g>
	<g>
		<path class="st0" d="M47.2,33.5c0.1,1.1-1.8,2.6-1.8,2.9s0.6,0.3,0.6,0.3c-2.3,2.5-3.3,1.7-3.3,1.7c-0.3-0.6-0.3-8.7-0.3-8.7
			l-0.4-0.2l0,0l0,0l0,0l0,0l-0.4,0.2c0,0,0,8.1-0.3,8.7c0,0-1,0.8-3.3-1.7c0,0,0.6-0.1,0.6-0.3c0-0.3-1.9-1.9-1.8-2.9
			c0,0-1,2.3-0.2,3.5c0,0,0.2,0.2,0.7-0.1c0,0,1.4,2.7,4.8,4.2H42c3.5-1.4,4.8-4.2,4.8-4.2c0.4,0.2,0.7,0.1,0.7,0.1
			C48.2,35.8,47.2,33.5,47.2,33.5z"/>
		<path class="st1" d="M41.8,41.1L41.8,41.1c-3.3-1.4-4.7-3.8-4.9-4.1c-0.4,0.2-0.7,0-0.7,0l0,0c-0.4-0.5-0.4-1.2-0.2-2.2
			c0.1-0.7,0.4-1.3,0.4-1.3s0.1-0.1,0.1,0c0,0,0.1,0,0.1,0.1c0,0.6,0.7,1.5,1.2,2.1c0.4,0.4,0.6,0.7,0.6,0.8c0,0.2-0.3,0.3-0.5,0.3
			c2.1,2.2,3,1.7,3.2,1.7c0.2-0.6,0.3-5.9,0.3-8.7v-0.1l0.4-0.2c0,0,0,0,0-0.1c0,0,0,0,0.1,0c0,0,0,0,0.1,0c0,0,0,0,0,0.1l0.4,0.2
			c0,0,0,0,0,0.1c0,2.8,0.1,8.1,0.3,8.7c0.1,0.1,1.1,0.6,3.2-1.7c-0.2,0-0.5-0.1-0.5-0.3c0-0.1,0.1-0.2,0.5-0.6
			c0.6-0.6,1.4-1.6,1.4-2.2c0,0,0-0.1,0.1-0.1h0.1c0.1,0.1,1,2.4,0.2,3.5l0,0c0,0-0.2,0.2-0.7,0C46.5,37.3,45.1,39.8,41.8,41.1
			C41.9,41.1,41.9,41.1,41.8,41.1z M41.9,41.1L41.9,41.1L41.9,41.1z M41.8,41.1L41.8,41.1L41.8,41.1z M41.8,41.1L41.8,41.1
			L41.8,41.1z M41.9,41.1L41.9,41.1L41.9,41.1z M41.8,41.1L41.8,41.1L41.8,41.1z M41.9,41.1L41.9,41.1L41.9,41.1z M41.8,41.1
			L41.8,41.1L41.8,41.1z M41.9,41.1L41.9,41.1L41.9,41.1z M41.9,41.1L41.9,41.1L41.9,41.1z M41.9,41.1L41.9,41.1L41.9,41.1z
			 M41.9,41.1L41.9,41.1L41.9,41.1z M41.9,41.1L41.9,41.1L41.9,41.1z M41.8,41.1L41.8,41.1L41.8,41.1z M41.9,41.1L41.9,41.1
			L41.9,41.1z M41.8,41.1L41.8,41.1L41.8,41.1z M37,36.9C37,36.9,37,36.9,37,36.9c0.1,0.1,1.4,2.7,4.8,4.2c3.4-1.4,4.8-4.1,4.8-4.1
			c0,0,0.1-0.1,0.1,0c0.4,0.2,0.6,0.1,0.6,0.1c0.6-0.9,0.1-2.6-0.1-3.2c-0.1,0.7-0.9,1.5-1.4,2.1c-0.2,0.2-0.4,0.5-0.4,0.6
			c0,0.2,0.4,0.2,0.5,0.2c0,0,0.1,0,0.1,0.1v0.1c-2.4,2.5-3.4,1.7-3.4,1.7l0,0c-0.3-0.6-0.4-8.1-0.4-8.7l-0.4-0.2l-0.4,0.2
			c0,0.6,0,8.1-0.4,8.7l0,0c-0.1,0.1-1.1,0.8-3.4-1.7v-0.1c0,0,0-0.1,0.1-0.1c0.1,0,0.5-0.1,0.5-0.2c0-0.1-0.2-0.4-0.6-0.7
			c-0.5-0.6-1.1-1.3-1.2-1.9c-0.2,0.6-0.7,2.3-0.1,3.2C36.3,37,36.6,37.1,37,36.9L37,36.9z"/>
	</g>
	<g>
		<path class="st0" d="M41.8,26.2c-0.9,0-1.7,0.8-1.7,1.7c0,1,0.7,1.7,1.7,1.7c0.9,0,1.7-0.8,1.7-1.7C43.6,27,42.8,26.2,41.8,26.2z
			 M41.8,29c-0.6,0-1-0.5-1-1.1c0-0.6,0.4-1.1,1-1.1c0.6,0,1,0.5,1,1.1C42.9,28.5,42.4,29,41.8,29z"/>
		<path class="st1" d="M41.8,29.8c-1,0-1.7-0.8-1.7-1.8s0.8-1.8,1.7-1.8c1,0,1.7,0.8,1.7,1.8S42.8,29.8,41.8,29.8z M41.8,26.3
			c-0.9,0-1.7,0.7-1.7,1.7s0.7,1.7,1.7,1.7s1.7-0.7,1.7-1.7C43.5,27,42.8,26.3,41.8,26.3z M41.8,29.1c-0.6,0-1.1-0.5-1.1-1.1
			s0.5-1.1,1.1-1.1c0.6,0,1.1,0.5,1.1,1.1C42.9,28.6,42.4,29.1,41.8,29.1z M41.8,27c-0.6,0-1,0.4-1,1c0,0.6,0.4,1,1,1s1-0.4,1-1
			C42.8,27.4,42.4,27,41.8,27z"/>
	</g>
	<g>
		<path class="st0" d="M42,28.7c0-0.1,0.1-0.5-0.1-0.8c0,0,0.7,0.2,0.4,0.7C42.4,28.6,42.2,29,42,28.7z"/>
		<path class="st1" d="M42.2,28.9L42.2,28.9c-0.1,0-0.1-0.1-0.2-0.1l0,0c0,0,0-0.1,0-0.2c0-0.2,0-0.4-0.1-0.6v-0.1H42
			c0,0,0.4,0.1,0.5,0.4c0.1,0.1,0.1,0.3,0,0.4C42.4,28.7,42.3,28.9,42.2,28.9z M42.1,28.7c0.1,0.1,0.1,0.1,0.1,0.1
			c0.1,0,0.2-0.1,0.2-0.1c0.1-0.1,0.1-0.2,0-0.4c-0.1-0.1-0.2-0.2-0.3-0.2c0.1,0.2,0.1,0.4,0,0.6C42.1,28.6,42.1,28.6,42.1,28.7z"/>
	</g>
	<g>
		<path class="st0" d="M41.9,27.9c0,0-0.2-0.3-0.6-0.1c0,0,0.4,0.3,0.4,0.8c0,0,0.1,0.2,0.1,0.1C41.9,28.7,42.2,28.3,41.9,27.9z"/>
		<path class="st1" d="M41.9,28.8c-0.1,0-0.1-0.1-0.2-0.2l0,0c-0.1-0.4-0.4-0.7-0.4-0.7s0,0,0-0.1c0-0.1,0-0.1,0-0.1
			c0.4-0.2,0.6,0.1,0.6,0.2C42.3,28.3,42,28.7,41.9,28.8C42,28.7,42,28.8,41.9,28.8L41.9,28.8z M41.9,28.5c0,0.1,0.1,0.1,0.1,0.1
			c0.1-0.1,0.2-0.4,0-0.7l0,0c0,0-0.1-0.2-0.4-0.2C41.6,27.9,41.8,28.1,41.9,28.5z"/>
	</g>
	<g>
		<path class="st0" d="M39.8,30.9c0,0-0.1,0.5,0.1,0.6c0,0,0.5-0.4,0.6-0.8c0.1-0.4-0.1-0.5-0.1-0.5S39.9,30.9,39.8,30.9z"/>
		<path class="st1" d="M40,31.5L40,31.5c-0.2-0.1-0.2-0.5-0.2-0.6l0,0c0.1-0.1,0.6-0.7,0.6-0.8h0.1c0,0,0.2,0.1,0.1,0.6
			C40.5,31.1,40,31.5,40,31.5z M39.9,30.9c0,0.2,0,0.4,0.1,0.5c0.1-0.1,0.5-0.4,0.5-0.8c0-0.2,0-0.4-0.1-0.4
			C40.3,30.5,40,30.9,39.9,30.9z"/>
	</g>
	<g>
		<path class="st0" d="M40,31.4c-0.1,0.1-0.1,0.5,0.2,0.6c0,0,0.4-0.4,0.4-0.9c0.1-0.4-0.1-0.5-0.1-0.5S40.1,31.3,40,31.4z"/>
		<path class="st1" d="M40.2,32.1c-0.1,0-0.2-0.1-0.3-0.2c-0.1-0.2,0-0.4,0-0.4c0.1-0.2,0.6-0.7,0.6-0.8h0.1c0,0,0.2,0.1,0.1,0.6
			C40.7,31.5,40.3,32.1,40.2,32.1z M40,31.4c0,0-0.1,0.2,0,0.3c0.1,0.1,0.1,0.1,0.2,0.1c0.1-0.1,0.4-0.4,0.4-0.8
			c0-0.2,0-0.4-0.1-0.4C40.5,30.9,40.1,31.3,40,31.4L40,31.4z"/>
	</g>
	<g>
		<path class="st0" d="M40.2,32c0,0,0.1,0.5,0.4,0.6c0,0,0.2-0.2,0.2-0.8c0,0,0.1-0.3-0.2-0.8C40.6,30.9,40.3,31.3,40.2,32z"/>
		<path class="st1" d="M40.6,32.6L40.6,32.6c-0.3-0.1-0.4-0.6-0.5-0.6l0,0c0.1-0.7,0.5-1.1,0.5-1.1s0,0,0.1,0h0.1
			c0.2,0.6,0.2,0.9,0.2,0.9C40.8,32.3,40.6,32.6,40.6,32.6C40.6,32.6,40.6,32.6,40.6,32.6z M40.3,31.9c0.1,0.1,0.2,0.4,0.3,0.5
			c0.1-0.1,0.1-0.3,0.2-0.7c0,0,0.1-0.2-0.1-0.7C40.6,31.1,40.3,31.4,40.3,31.9z"/>
	</g>
	<g>
		<path class="st0" d="M40.8,27.9c0,0-0.5,0-0.6,0.4c0,0,0.6-0.1,1.1,0.3c0,0,0.2,0.1,0.2,0C41.5,28.6,41.3,28,40.8,27.9z"/>
		<path class="st1" d="M41.4,28.7L41.4,28.7c-0.1,0-0.2-0.1-0.2-0.1l0,0c-0.5-0.4-1.1-0.3-1.1-0.3h-0.1v-0.1
			c0.1-0.5,0.7-0.5,0.7-0.5l0,0c0.6,0.1,0.8,0.7,0.8,0.7s0,0,0,0.1C41.6,28.6,41.5,28.7,41.4,28.7z M41.3,28.6c0.1,0,0.1,0.1,0.2,0
			c-0.1-0.1-0.2-0.6-0.7-0.6c-0.1,0-0.4,0-0.6,0.3C40.4,28.3,40.9,28.3,41.3,28.6z"/>
	</g>
	<g>
		<path class="st0" d="M40.1,28.3c0,0-0.4,0.1-0.4,0.6c0,0,0.1-0.2,0.5-0.1c0.3,0.1,0.9,0.1,1-0.2C41.2,28.6,40.8,28.1,40.1,28.3z"
			/>
		<path class="st1" d="M39.7,29L39.7,29L39.7,29c-0.1-0.6,0.4-0.7,0.4-0.7c0.7-0.2,1.1,0.3,1.1,0.3v0.1c-0.1,0.2-0.6,0.2-1.1,0.2
			C39.9,28.8,39.8,29,39.7,29C39.8,29,39.8,29,39.7,29z M40.1,28.3c0,0-0.3,0.1-0.4,0.4c0.1-0.1,0.2-0.1,0.4-0.1
			c0.5,0.1,0.8,0,0.9-0.1C41,28.5,40.7,28.2,40.1,28.3L40.1,28.3z"/>
	</g>
	<g>
		<path class="st0" d="M39.7,29c0,0-0.2,0.3-0.1,0.7c0,0,0.3-0.5,0.8-0.6c0,0,0.4-0.2,0.4-0.3C40.7,28.7,40,28.6,39.7,29z"/>
		<path class="st1" d="M39.6,29.8C39.6,29.8,39.6,29.8,39.6,29.8C39.6,29.8,39.6,29.7,39.6,29.8c-0.2-0.4,0.1-0.8,0.1-0.8
			c0.1-0.2,0.3-0.2,0.6-0.3c0.2,0,0.4,0.1,0.5,0.1c0,0.1,0,0.1,0,0.1c-0.1,0.1-0.3,0.2-0.4,0.3l0,0C40,29.3,39.6,29.7,39.6,29.8
			L39.6,29.8z M40.3,28.8L40.3,28.8c-0.1,0-0.4,0-0.6,0.2l0,0c0,0-0.2,0.2-0.1,0.6c0.1-0.1,0.4-0.4,0.7-0.5c0.1-0.1,0.3-0.2,0.3-0.2
			l0,0C40.7,28.8,40.6,28.8,40.3,28.8z"/>
	</g>
	<g>
		<path class="st0" d="M39.7,30.4c0,0-0.1,0.5,0.1,0.6c0,0,0.2,0,0.6-0.6c0,0,0.2-0.3,0.1-1C40.5,29.5,40,29.8,39.7,30.4z"/>
		<path class="st1" d="M39.8,31L39.8,31c-0.3-0.2-0.2-0.7-0.2-0.7l0,0c0.3-0.6,0.7-0.9,0.7-0.9h0.1c0,0,0,0,0.1,0.1
			c0.2,0.7-0.1,1-0.1,1.1C40.1,31,39.9,31,39.8,31L39.8,31z M39.8,30.4c0,0.1-0.1,0.4,0.1,0.6c0.1,0,0.2-0.1,0.5-0.6
			c0,0,0.2-0.2,0.1-0.9C40.3,29.6,40,29.9,39.8,30.4z"/>
	</g>
	<g>
		<path class="st0" d="M39.6,29.7c0,0-0.1,0.5,0.1,0.7c0,0,0.2-0.2,0.6-0.7c0.3-0.4,0.3-0.5,0.2-0.6C40.4,29.1,39.9,29.2,39.6,29.7z
			"/>
		<path class="st1" d="M39.7,30.4L39.7,30.4c-0.3-0.2-0.2-0.7-0.2-0.7l0,0c0.2-0.4,0.5-0.6,0.7-0.6c0.1,0,0.2-0.1,0.2,0
			c0.1,0.1,0.1,0.1,0.1,0.1c0,0.1-0.1,0.3-0.3,0.5C40,30.2,39.8,30.4,39.7,30.4C39.8,30.4,39.8,30.4,39.7,30.4L39.7,30.4z
			 M39.6,29.7c0,0.1-0.1,0.4,0.1,0.6c0.1-0.1,0.2-0.3,0.5-0.6c0.2-0.2,0.2-0.4,0.2-0.4c0,0,0-0.1-0.1-0.1c0,0-0.1,0-0.2,0
			C40.1,29.3,39.8,29.4,39.6,29.7z"/>
	</g>
	<g>
		<path class="st2" d="M40.9,32.9"/>
	</g>
	<g>
		<path class="st0" d="M41.8,32.8c0.1-0.1,0.6,0.1,0.6,0.4c0.1,0.4-0.1,0.6-0.1,0.9c0,0.1-0.5-0.3-0.5-0.5
			C41.8,33.5,41.6,32.9,41.8,32.8z"/>
		<path class="st1" d="M42.2,34.2L42.2,34.2c-0.2,0-0.5-0.4-0.5-0.6c0-0.1,0-0.2,0-0.2c-0.1-0.3-0.1-0.6,0-0.7l0,0
			c0.1-0.1,0.2,0,0.2,0c0.1,0.1,0.4,0.2,0.4,0.5c0.1,0.3,0,0.6-0.1,0.7C42.3,34.1,42.3,34.1,42.2,34.2
			C42.3,34.2,42.3,34.2,42.2,34.2z M41.8,32.9c-0.1,0.1,0,0.4,0,0.6c0,0.1,0,0.2,0,0.3s0.1,0.2,0.2,0.3c0.1,0.1,0.2,0.1,0.2,0.1
			c0-0.1,0-0.1,0.1-0.2c0.1-0.2,0.1-0.4,0.1-0.7c0-0.1-0.1-0.2-0.2-0.3C41.9,32.9,41.8,32.9,41.8,32.9z"/>
	</g>
	<g>
		<path class="st0" d="M41.4,32.5c0,0,0,0.3,0,0.6c-0.1,0.3,0.1,0.6,0.4,0.6c0,0-0.1-0.6,0-0.7C41.9,32.7,41.6,32.5,41.4,32.5z"/>
		<path class="st1" d="M41.8,33.8c-0.1,0-0.2-0.1-0.2-0.1c-0.2-0.1-0.2-0.4-0.2-0.6c0.1-0.3,0-0.6,0-0.6s0,0,0-0.1c0,0,0,0,0.1,0
			l0,0c0.1,0,0.2,0.1,0.4,0.2c0.1,0.1,0.1,0.2,0.1,0.3C41.8,33.2,41.8,33.7,41.8,33.8C41.8,33.7,41.8,33.7,41.8,33.8
			C41.8,33.8,41.8,33.8,41.8,33.8L41.8,33.8z M41.4,32.6c0,0.1,0,0.3,0,0.6c0,0.2,0,0.4,0.1,0.4c0.1,0.1,0.1,0.1,0.2,0.1
			c0-0.1-0.1-0.6,0-0.7c0-0.1,0-0.1-0.1-0.2C41.6,32.7,41.5,32.6,41.4,32.6z"/>
	</g>
	<g>
		<path class="st0" d="M41,32c0,0,0,0.4-0.1,0.7c-0.1,0.3,0.1,0.7,0.4,0.7c0,0-0.1-0.6,0.1-0.9S41.2,32,41,32z"/>
		<path class="st1" d="M41.4,33.6c-0.1,0-0.2-0.1-0.3-0.1c-0.1-0.2-0.2-0.4-0.1-0.7C41,32.4,41,32,41,32s0,0,0-0.1c0,0,0,0,0.1,0
			c0.1,0,0.3,0.1,0.4,0.2c0.1,0.1,0.1,0.2,0.1,0.4c-0.1,0.2-0.1,0.9-0.1,0.9C41.4,33.5,41.4,33.5,41.4,33.6
			C41.4,33.5,41.4,33.6,41.4,33.6L41.4,33.6z M41.1,32.1c0,0.1,0,0.4-0.1,0.7c-0.1,0.2,0,0.4,0.1,0.6c0.1,0.1,0.1,0.1,0.2,0.1
			c0-0.2,0-0.6,0.1-0.9c0.1-0.1,0-0.2-0.1-0.2C41.3,32.2,41.2,32.1,41.1,32.1z"/>
	</g>
	<g>
		<path class="st0" d="M40.8,31.4c0,0-0.1,0.4-0.2,0.7c-0.1,0.3-0.1,0.7,0.3,0.8c0,0,0-0.6,0.2-0.9C41.3,31.8,41.1,31.4,40.8,31.4z"
			/>
		<path class="st1" d="M40.9,33.1L40.9,33.1c-0.1,0-0.2-0.1-0.4-0.2c-0.1-0.2-0.1-0.4,0-0.6c0.1-0.3,0.2-0.7,0.2-0.7s0-0.1,0.1-0.1
			c0.1,0,0.2,0.1,0.4,0.2c0.1,0.1,0.1,0.3,0,0.4C41.1,32.4,41,33,40.9,33.1C41,33,41,33,40.9,33.1C41,33.1,41,33.1,40.9,33.1z
			 M40.9,31.5c0,0.1-0.1,0.4-0.2,0.7c-0.1,0.2-0.1,0.4,0,0.6c0.1,0.1,0.1,0.1,0.2,0.2c0-0.2,0.1-0.6,0.2-0.9c0.1-0.1,0.1-0.2,0-0.4
			C41.1,31.6,40.9,31.6,40.9,31.5z"/>
	</g>
	<g>
		<path class="st0" d="M42.8,33.7c0,0,0.4,0.2,0.3,0.7c-0.1,0.5-0.6,0.7-0.7,0.8c-0.1,0.1-0.1-0.4,0-0.6
			C42.5,34.5,42.9,33.8,42.8,33.7z"/>
		<path class="st1" d="M42.4,35.3L42.4,35.3c-0.1-0.1-0.1-0.6-0.1-0.7c0.1-0.1,0.5-0.9,0.4-1v-0.1h0.1c0,0,0.5,0.3,0.3,0.8
			c-0.1,0.4-0.5,0.7-0.7,0.8C42.5,35.3,42.4,35.3,42.4,35.3C42.4,35.3,42.4,35.3,42.4,35.3z M42.9,33.7c-0.1,0.3-0.4,0.9-0.4,0.9
			s-0.1,0.4,0,0.5c0,0,0,0,0.1,0c0.2-0.1,0.5-0.3,0.6-0.7C43.1,34.1,43,33.9,42.9,33.7z"/>
	</g>
	<g>
		<g>
			<defs>
				<path id="SVGID_1_" d="M41.5,28.6c0,0,0.1-0.2,0.3-0.2c0,0,0.1-0.7-0.5-0.9c-0.7-0.2-0.5,0-0.5,0.1l-0.2,0.2
					c0,0,0.4,0.4,0.5,0.4C41.1,28.2,41.5,28.6,41.5,28.6z"/>
			</defs>
			<clipPath id="SVGID_2_">
				<use xlink:href="#SVGID_1_"  style="overflow:visible;"/>
			</clipPath>
			<g class="st3">
				<path class="st0" d="M41.4,27.8c0,0-0.4-0.2-0.7,0.1c0,0,0.6,0.2,0.9,0.7c0,0,0.2,0.2,0.2,0.1C41.8,28.7,41.9,28.1,41.4,27.8z"
					/>
				<path class="st1" d="M41.8,28.8C41.8,28.8,41.7,28.8,41.8,28.8c-0.1,0-0.2-0.1-0.2-0.1l0,0c-0.3-0.5-0.8-0.7-0.8-0.7
					s0,0-0.1-0.1v-0.1c0.4-0.4,0.7-0.1,0.8-0.1l0,0c0.6,0.3,0.4,1,0.4,1l0,0C41.8,28.8,41.8,28.8,41.8,28.8z M41.6,28.6
					c0.1,0.1,0.1,0.1,0.1,0.1l0,0c0-0.1,0.1-0.6-0.4-0.9c0,0-0.3-0.2-0.6,0.1C40.9,28,41.3,28.1,41.6,28.6z"/>
			</g>
		</g>
	</g>
	<g>
		<path class="st0" d="M42.3,33.1c0,0,0.5,0.1,0.5,0.6s-0.3,0.9-0.4,0.9c-0.1,0.1-0.2-0.3-0.1-0.6C42.3,33.9,42.4,33.2,42.3,33.1z"
			/>
		<path class="st1" d="M42.4,34.7c0,0-0.1,0-0.1-0.1c-0.1-0.1-0.1-0.4-0.1-0.6c0.1-0.2,0.1-0.9,0.1-0.9v-0.1h0.1
			c0,0,0.6,0.1,0.6,0.7C42.9,34.2,42.6,34.7,42.4,34.7L42.4,34.7z M42.4,33.2c0,0.2-0.1,0.7-0.1,0.9c-0.1,0.1,0,0.4,0.1,0.4
			c0,0,0,0,0.1,0c0.1,0,0.4-0.4,0.4-0.9C42.8,33.4,42.5,33.3,42.4,33.2z"/>
	</g>
	<g>
		<path class="st0" d="M38.9,38.3c-0.1,0.1-0.6,0.1-0.8,0.3c0,0,0-0.7,0.6-0.7C39,37.8,39.1,38,38.9,38.3z"/>
		<path class="st1" d="M38.1,38.6L38.1,38.6C38.1,38.6,38,38.6,38.1,38.6c-0.1-0.1-0.1-0.8,0.6-0.9c0.1,0,0.2,0.1,0.3,0.1
			c0.1,0.1,0.1,0.2-0.1,0.4l0,0c0,0-0.1,0.1-0.2,0.1C38.6,38.4,38.3,38.5,38.1,38.6C38.1,38.6,38.1,38.6,38.1,38.6z M38.8,37.9
			L38.8,37.9c-0.5,0-0.6,0.4-0.6,0.6c0.2-0.1,0.4-0.1,0.6-0.2c0.1,0,0.1,0,0.1-0.1c0.1-0.1,0.1-0.2,0.1-0.2
			C39,37.9,38.9,37.9,38.8,37.9z"/>
	</g>
	<g>
		<path class="st0" d="M38.8,38.7c-0.1,0.1-0.4,0.1-0.7,0.4c0,0-0.2-0.7,0.4-0.7C38.5,38.3,39.3,38.1,38.8,38.7z"/>
		<path class="st1" d="M38.1,39.1L38.1,39.1C38.1,39.1,38,39.1,38.1,39.1c-0.1-0.1-0.2-0.4,0-0.7c0.1-0.1,0.2-0.2,0.4-0.2
			c0.1,0,0.4-0.1,0.5,0.1c0.1,0.1,0,0.2-0.2,0.4c0,0-0.1,0-0.1,0.1C38.5,38.8,38.3,38.9,38.1,39.1C38.1,39.1,38.1,39.1,38.1,39.1z
			 M38.7,38.3c-0.1,0-0.1,0-0.2,0s-0.2,0.1-0.3,0.2c-0.1,0.1-0.1,0.3-0.1,0.4c0.1-0.1,0.4-0.2,0.5-0.2c0.1,0,0.1,0,0.1-0.1
			c0.2-0.2,0.2-0.2,0.2-0.2C38.9,38.3,38.8,38.3,38.7,38.3z M38.7,38.6L38.7,38.6L38.7,38.6L38.7,38.6z"/>
	</g>
	<g>
		<path class="st0" d="M38.1,39c0,0-0.2,0.3,0.2,0.6c0,0,0.1-0.5,0.4-0.7c0,0,0.2-0.1,0.1-0.2C38.8,38.7,38.3,38.6,38.1,39z"/>
		<path class="st1" d="M38.2,39.6L38.2,39.6C37.8,39.4,38,39,38,39c0.2-0.4,0.7-0.4,0.7-0.4s0.1,0.1,0.1,0.1c0,0.1-0.1,0.2-0.1,0.2
			C38.4,39.2,38.3,39.6,38.2,39.6C38.3,39.6,38.3,39.6,38.2,39.6C38.3,39.6,38.3,39.6,38.2,39.6z M38.1,39c0,0-0.1,0.2,0.1,0.4
			c0.1-0.2,0.2-0.5,0.4-0.7c0.1,0,0.1-0.1,0.1-0.1l0,0c0,0,0,0-0.1,0C38.7,38.7,38.3,38.7,38.1,39L38.1,39L38.1,39z"/>
	</g>
	<g>
		<path class="st0" d="M38.7,40.1c0,0,0.2,0.4,0.7,0.3c0,0-0.4-0.5-0.3-1.1c0,0-0.1-0.2-0.2-0.2C38.9,39.1,38.5,39.5,38.7,40.1z"/>
		<path class="st1" d="M39.2,40.5c-0.4,0-0.6-0.4-0.6-0.4l0,0c-0.2-0.6,0.2-1.1,0.2-1.1s0,0,0.1,0c0.2,0,0.2,0.2,0.2,0.2l0,0
			c-0.1,0.6,0.3,1.1,0.3,1.1v0.1c0,0,0,0-0.1,0.1C39.3,40.5,39.3,40.5,39.2,40.5z M38.7,40.1c0,0,0.2,0.4,0.6,0.3
			c-0.1-0.2-0.3-0.6-0.3-1.1c0-0.1-0.1-0.1-0.1-0.2C38.8,39.2,38.5,39.6,38.7,40.1z"/>
	</g>
	<g>
		<path class="st0" d="M39.3,40.5c0,0,0.2,0.3,0.7,0.1c0,0-0.2,0-0.4-0.3c-0.1-0.3-0.4-0.8-0.7-0.8C39.1,39.3,38.9,40,39.3,40.5z"/>
		<path class="st1" d="M39.7,40.6c-0.2,0-0.4-0.1-0.4-0.2C38.8,40,39,39.3,39,39.3s0-0.1,0.1-0.1c0.3,0,0.6,0.4,0.7,0.8
			c0.1,0.3,0.3,0.3,0.3,0.3s0.1,0,0.1,0.1v0.1C40,40.6,39.8,40.6,39.7,40.6z M39.4,40.4c0,0,0.2,0.2,0.6,0.1
			c-0.1-0.1-0.2-0.1-0.2-0.3c-0.2-0.4-0.4-0.7-0.6-0.7C39.1,39.5,39,40,39.4,40.4L39.4,40.4L39.4,40.4z"/>
	</g>
	<g>
		<path class="st0" d="M38.2,39.6c0,0,0,0.4,0.5,0.6c0,0-0.1-0.6,0.2-1.1c0,0,0.1-0.2-0.1-0.3C38.8,38.7,38.3,39,38.2,39.6z"/>
		<path class="st1" d="M38.7,40.2L38.7,40.2c-0.5-0.1-0.6-0.6-0.6-0.6l0,0c0-0.6,0.6-0.9,0.6-0.9s0,0,0.1,0c0.1,0,0.1,0.1,0.1,0.1
			c0.1,0.1,0,0.2,0,0.3C38.6,39.6,38.8,40.1,38.7,40.2C38.8,40.2,38.8,40.2,38.7,40.2C38.8,40.2,38.7,40.2,38.7,40.2z M38.3,39.6
			c0,0,0,0.4,0.4,0.5c0-0.2-0.1-0.6,0.2-1.1c0-0.1,0.1-0.1,0-0.2l0,0C38.7,38.8,38.3,39.1,38.3,39.6z"/>
	</g>
	<g>
		<path class="st0" d="M41.8,31.3c-0.2,0-0.4-0.2-0.4-0.4v-2c0-0.2,0.2-0.4,0.4-0.4h0.1c0.2,0,0.4,0.2,0.4,0.4v2
			C42.3,31.1,42.1,31.3,41.8,31.3L41.8,31.3z"/>
		<path class="st1" d="M41.9,31.3L41.9,31.3c-0.3,0-0.5-0.2-0.5-0.4v-2c0-0.2,0.2-0.4,0.4-0.4h0.1c0.2,0,0.4,0.2,0.4,0.4v2
			C42.3,31.1,42.1,31.3,41.9,31.3z M41.8,28.5c-0.2,0-0.3,0.1-0.3,0.3v2c0,0.2,0.1,0.3,0.3,0.3h0.1c0.2,0,0.3-0.1,0.3-0.3v-2
			C42.2,28.6,42.1,28.5,41.8,28.5L41.8,28.5z"/>
	</g>
	<g>
		<path class="st0" d="M43.4,31c0,0.2-0.2,0.4-0.4,0.4h-2.3c-0.2,0-0.4-0.2-0.4-0.4v-0.1c0-0.2,0.2-0.4,0.4-0.4H43
			c0.2,0,0.4,0.2,0.4,0.4V31z"/>
		<path class="st1" d="M43,31.4h-2.3c-0.2,0-0.5-0.2-0.5-0.4v-0.1c0-0.2,0.2-0.4,0.5-0.4H43c0.2,0,0.5,0.2,0.5,0.4V31
			C43.4,31.3,43.2,31.4,43,31.4z M40.7,30.6c-0.2,0-0.4,0.1-0.4,0.3V31c0,0.2,0.2,0.3,0.4,0.3H43c0.2,0,0.4-0.1,0.4-0.3v-0.1
			c0-0.2-0.2-0.3-0.4-0.3H40.7z"/>
	</g>
</g>
<g>
	<path class="st0" d="M28.2,46.3l-0.3-0.1c-0.3-0.2-0.5-0.3-0.5-0.7c0-0.3,0.3-0.5,0.6-0.5c0.2,0,0.3,0,0.4,0.1l0,0.7H29L29,45
		c-0.3-0.2-0.7-0.3-1.1-0.3c-0.8,0-1.4,0.4-1.4,1.1c0,0.7,0.5,1,1.1,1.3l0.3,0.1c0.4,0.1,0.5,0.3,0.5,0.6c0,0.3-0.3,0.5-0.7,0.6
		c-0.2,0-0.4,0-0.5-0.1l-0.1-0.7h-0.5l-0.1,0.8c0.3,0.3,0.8,0.3,1.2,0.3c1,0,1.5-0.5,1.5-1.2C29.2,47,28.9,46.7,28.2,46.3z"/>
	<path class="st0" d="M30.7,47.6v-1v-0.8l-0.1-0.1l-1.2,0.2v0.3l0.3,0.1v1.4c0,0.8,0.3,1,0.8,1c0.4,0,0.7-0.2,0.9-0.5l0.1,0.5h1.2
		v-0.3l-0.3-0.1v-1.6v-0.8l-0.1-0.1L31.2,46v0.2l0.3,0.1v1.6c-0.1,0.1-0.6,0.3-0.7,0.3L30.7,47.6z"/>
	<path class="st0" d="M33.4,48.6h1.2v-0.3l-0.3-0.1c0-0.3,0-0.6,0-0.8v-0.7c0.1-0.2,0.2-0.3,0.3-0.4l0.1,0.1
		c0.1,0.2,0.3,0.3,0.5,0.3s0.4-0.1,0.4-0.5c-0.1-0.3-0.3-0.5-0.5-0.5c-0.3,0-0.6,0.2-0.7,0.7l0-0.5l-0.1-0.1L33,46.1v0.2l0.3,0.1
		c0,0.2,0,0.3,0,0.7v0.3c0,0.3,0,0.6,0,0.9L33,48.3H33v0.3H33.4"/>
	<path class="st0" d="M37.1,46.8l-0.3-0.1c-0.4-0.1-0.5-0.3-0.5-0.4c0-0.2,0.2-0.3,0.5-0.3c0.1,0,0.2,0,0.3,0l0.1,0.5h0.5l0.1-0.7
		c-0.3-0.2-0.6-0.3-0.9-0.3c-0.8,0-1.2,0.5-1.2,1c0,0.4,0.3,0.7,0.7,0.8l0.3,0.2c0.3,0.1,0.5,0.2,0.5,0.4c0,0.2-0.2,0.3-0.5,0.3
		c-0.2,0-0.3,0-0.4-0.1l-0.1-0.6h-0.5v0.7c0.3,0.2,0.7,0.3,0.9,0.3c0.8,0,1.3-0.4,1.3-1C37.9,47.2,37.7,47,37.1,46.8z"/>
	<path class="st0" d="M39.8,45.6c-0.8,0-1.5,0.5-1.5,1.5c0,1,0.6,1.5,1.4,1.5c0.6,0,1-0.2,1.2-0.7l-0.2-0.2
		c-0.2,0.2-0.4,0.3-0.7,0.3c-0.4,0-0.7-0.3-0.8-0.8h1.7c0-0.1,0-0.2,0-0.3C41.1,46.3,40.6,45.7,39.8,45.6z M39.8,46.9h-0.5
		c0-0.7,0.2-1,0.4-1c0.2,0,0.4,0.2,0.4,0.6C40.1,46.8,40.1,46.9,39.8,46.9z"/>
	<path class="st0" d="M42.9,45.6c-0.8,0-1.5,0.5-1.5,1.5c0,1,0.6,1.5,1.4,1.5c0.6,0,1-0.2,1.2-0.7l-0.2-0.2
		c-0.2,0.2-0.4,0.3-0.7,0.3c-0.4,0-0.7-0.3-0.8-0.8h1.7c0-0.1,0-0.2,0-0.3C44.1,46.3,43.6,45.7,42.9,45.6z M42.9,46.9h-0.5
		c0-0.7,0.2-1,0.4-1c0.2,0,0.4,0.2,0.4,0.6C43.2,46.8,43.1,46.9,42.9,46.9z"/>
	<path class="st0" d="M47.3,46.3l-0.3-0.1c-0.3-0.2-0.5-0.3-0.5-0.7c0-0.3,0.3-0.5,0.6-0.5c0.2,0,0.3,0,0.4,0.1l0,0.7h0.5l0.1-0.8
		c-0.3-0.2-0.7-0.3-1.1-0.3c-0.8,0-1.4,0.4-1.4,1.1c0,0.7,0.5,1,1.1,1.3l0.3,0.1c0.4,0.1,0.5,0.3,0.5,0.6c0,0.3-0.2,0.5-0.7,0.6
		c-0.2,0-0.4,0-0.5-0.1l-0.1-0.7h-0.5l-0.1,0.8c0.3,0.3,0.8,0.3,1.2,0.3c1,0,1.5-0.5,1.5-1.2C48.4,47,48,46.7,47.3,46.3z"/>
	<path class="st0" d="M51.8,47.4v-0.7c0-0.7-0.3-1-0.8-1c-0.4,0-0.7,0.1-1,0.5v-1v-0.8l-0.1-0.1l-1.2,0.3v0.3l0.4,0.1h-0.1v2.4
		c0,0.3,0,0.6,0,0.9l-0.2,0v0.3h0.2h1h0.3v-0.3l-0.3-0.1c0-0.3,0-0.6,0-0.9v-0.8c0.2-0.2,0.4-0.3,0.5-0.3c0.3,0,0.3,0.1,0.3,0.5v0.6
		c0,0.3,0,0.6,0,0.9l-0.2,0v0.3h0.2h1h0.3v-0.3l-0.3-0.1C51.8,48,51.8,47.6,51.8,47.4z"/>
	<path class="st0" d="M53.1,45.3c0.3,0,0.5-0.2,0.5-0.5c0-0.3-0.3-0.5-0.5-0.5c-0.3,0-0.5,0.2-0.5,0.5
		C52.6,45.1,52.8,45.3,53.1,45.3z"/>
	<path class="st0" d="M53.6,48.6h0.2v-0.3l-0.2,0c0-0.3,0-0.6,0-0.9v-0.8v-0.8l-0.1-0.1l-1.2,0.4v0.2l0.3,0.1c0,0.2,0,0.4,0,0.7v0.3
		c0,0.3,0,0.6,0,0.9l-0.3,0.1v0.3H53.6"/>
	<path class="st0" d="M56.2,45.7c-0.3,0-0.6,0.1-0.8,0.3l0-0.3l-0.1-0.1l-1.1,0.4v0.2l0.3,0.1c0,0.2,0,0.3,0,0.7v1.6
		c0,0.3,0,0.6,0,1l-0.4,0.1v0.3h0.4h0.9h0.3v-0.3l-0.3-0.1c0-0.3,0-0.7,0-1v-0.1c0.2,0.2,0.4,0.2,0.7,0.2c0.7,0,1.2-0.6,1.2-1.5
		C57.3,46.3,56.8,45.7,56.2,45.7z M55.7,48.2c-0.1,0-0.2,0-0.3-0.1v-1.8c0.1-0.1,0.2-0.2,0.4-0.2c0.3,0,0.6,0.3,0.5,1
		C56.3,47.9,56.1,48.2,55.7,48.2z"/>
</g>
</svg>
