<?xml version="1.0" encoding="utf-8"?>
<!-- Generator: Adobe Illustrator 24.0.1, SVG Export Plug-In . SVG Version: 6.00 Build 0)  -->
<svg version="1.1" id="Ebene_1" xmlns="http://www.w3.org/2000/svg" xmlns:xlink="http://www.w3.org/1999/xlink" x="0px" y="0px"
	 viewBox="0 0 84.3 75.2" style="enable-background:new 0 0 84.3 75.2;" xml:space="preserve">
<style type="text/css">
	.st0{fill:#FFFFFF;}
</style>
<path class="st0" d="M49.1,33.5c-0.2-0.2-0.5-0.4-0.8-0.4C47.9,33,47.6,33,47.1,33h-3.2c0-0.8-0.4-1.3-0.6-1.4
	c-0.1-0.1-0.1-0.1-0.1-0.1c0.5,1.3-0.5,3.6-2.3,5.6c-0.3,0.3-0.5,0.6-0.8,0.8c-0.3,0.3-0.6,0.5-0.8,0.7c-1.5,1.1-3.1,1.8-4.3,1.8
	l0,0c-0.2,0-0.4,0-0.6-0.1c-0.1,0-0.1-0.1-0.2-0.1c1.4,1.1,4.3,0.2,6.7-2c0.1-0.1,0.3-0.3,0.4-0.4l0.2,0.7h1.8l0,0h1V37h2.9
	c0.4,0,0.8-0.1,1.2-0.1c0.4-0.1,0.6-0.2,0.8-0.4s0.4-0.4,0.6-0.6c0.1-0.3,0.2-0.6,0.2-0.8c0-0.3-0.1-0.6-0.2-0.8
	C49.6,33.9,49.4,33.7,49.1,33.5z M47.9,35.5c-0.1,0.1-0.4,0.2-0.6,0.2H43c0.3-0.4,0.4-0.8,0.6-1.3h3.7c0.3,0,0.5,0.1,0.6,0.1
	c0.1,0.1,0.2,0.3,0.2,0.5C48.2,35.2,48.1,35.4,47.9,35.5z"/>
<path class="st0" d="M42.4,34.4L42.4,34.4L42.4,34.4z"/>
<path class="st0" d="M41.8,33.6c-0.1-0.3-0.2-0.5-0.4-0.6s-0.4-0.2-0.6-0.2s-0.4,0.1-0.6,0.1c-0.1,0.1-0.3,0.3-0.4,0.4L39,35
	c-0.1,0.2-0.2,0.4-0.4,0.6c-0.1,0.1-0.1,0.3-0.2,0.4c-0.1,0.1-0.1,0.3-0.2,0.4c-0.1,0.1-0.1,0.2-0.1,0.3C38,36.6,38,36.5,38,36.4
	c-0.1-0.1-0.1-0.2-0.2-0.4c-0.1-0.1-0.1-0.3-0.2-0.4s-0.2-0.4-0.4-0.6l-1-1.6C36.1,33.2,36,33,35.8,33c-0.1-0.1-0.4-0.1-0.6-0.1
	s-0.4,0.1-0.6,0.2c-0.1,0.1-0.3,0.3-0.4,0.4l0.1-0.6h-1.7l-0.6,2c-0.1,0.3-0.1,0.6-0.2,0.8c-0.1,0.3-0.1,0.5-0.1,0.7
	c-0.1-0.1-0.1-0.2-0.1-0.3c-0.1-0.1-0.1-0.2-0.1-0.4c-0.1-0.1-0.1-0.3-0.2-0.4s-0.1-0.4-0.3-0.5l-0.8-1.4c-0.1-0.1-0.1-0.3-0.2-0.4
	c-0.1-0.1-0.1-0.1-0.2-0.2c-0.1-0.1-0.1-0.1-0.3-0.1c-0.1,0-0.2,0-0.3,0c-0.1,0-0.2,0-0.3,0c-0.1,0-0.2,0.1-0.3,0.1
	c-0.1,0.1-0.1,0.1-0.2,0.2c-0.1,0.1-0.1,0.2-0.2,0.4l-0.8,1.4c-0.2,0.4-0.4,0.7-0.5,0.9s-0.2,0.5-0.4,0.6c-0.1-0.2-0.1-0.5-0.1-0.7
	c-0.1-0.2-0.1-0.5-0.2-0.8l-0.6-2h-1.8l1.4,5c0.1,0.3,0.2,0.5,0.4,0.6c0.2,0.1,0.4,0.2,0.6,0.2s0.4-0.1,0.6-0.1
	c0.1-0.1,0.3-0.3,0.4-0.4l0.9-1.6c0.1-0.2,0.2-0.4,0.4-0.6c0.1-0.1,0.1-0.3,0.2-0.4c0.1-0.1,0.1-0.3,0.2-0.4C29,35,29,34.9,29,34.8
	c0.1,0.1,0.1,0.2,0.1,0.3c0.1,0.1,0.1,0.2,0.2,0.4c0.1,0.1,0.1,0.3,0.2,0.4c0.1,0.1,0.2,0.4,0.4,0.6l0.9,1.6
	c0.1,0.2,0.2,0.4,0.4,0.4c0.1,0.1,0.4,0.1,0.6,0.1c0.2,0,0.4-0.1,0.6-0.2c0.1-0.1,0.3-0.3,0.4-0.4l-0.1,0.6h1.8l0.6-2
	c0.1-0.4,0.1-0.6,0.2-0.8s0.1-0.5,0.1-0.7c0.1,0.1,0.1,0.2,0.1,0.3c0.1,0.1,0.1,0.2,0.1,0.4c0.1,0.1,0.1,0.3,0.2,0.4
	s0.1,0.4,0.3,0.5L37,38c0.1,0.1,0.1,0.3,0.2,0.4c0.1,0.1,0.1,0.1,0.2,0.2c0.1,0.1,0.1,0.1,0.3,0.1c0.1,0,0.2,0,0.3,0s0.2,0,0.3,0
	s0.1-0.1,0.3-0.1c0.1-0.1,0.1-0.1,0.2-0.2c0.1-0.1,0.1-0.2,0.2-0.4l0.8-1.4c0.2-0.4,0.4-0.7,0.5-0.9s0.2-0.5,0.4-0.6
	c0.1,0.2,0.1,0.5,0.1,0.7s0.1,0.5,0.2,0.8v0.1c0.4-0.5,0.8-1.1,1.2-1.8L41.8,33.6z"/>
<path class="st0" d="M35.1,40.1c0.9,0,2-0.4,3.1-1.1c-2,1.1-4.4,0.7-4.9-0.3c0,0.4,0.1,0.6,0.4,0.8C34,39.9,34.5,40.1,35.1,40.1z"/>
<path class="st0" d="M40.8,30.8c-1.2,0.1-2.6,0.8-3.9,1.9c0,0,3.5-2.3,5.2-0.4c0.5,0.6,0.6,1.4,0.2,2.4c0.1-0.1,0.1-0.2,0.1-0.3
	s0.1-0.1,0.1-0.2c0.3-0.8,0.4-1.6,0.1-2.2c-0.1-0.2-0.2-0.4-0.4-0.6C41.9,31,41.4,30.8,40.8,30.8"/>
<g>
	<path class="st0" d="M54.9,38.6h-3.6c0.1-0.4,0.2-0.7,0.4-1s0.6-0.7,1.2-1.1c0.4-0.3,0.6-0.5,0.7-0.6c0.1-0.2,0.2-0.3,0.2-0.4
		s-0.1-0.3-0.2-0.4C53.3,35,53.2,35,53.1,35c-0.2,0-0.3,0.1-0.4,0.2c-0.1,0.1-0.2,0.3-0.2,0.5l-1.2-0.1c0.1-0.4,0.2-0.6,0.3-0.8
		s0.3-0.4,0.6-0.5s0.6-0.2,1-0.2s0.8,0.1,1,0.2c0.3,0.1,0.4,0.3,0.6,0.5C55,35,55,35.2,55,35.5s-0.1,0.5-0.3,0.8s-0.5,0.5-0.9,0.8
		c-0.3,0.2-0.4,0.3-0.5,0.4c-0.1,0.1-0.2,0.2-0.3,0.3h1.9v1.1l0,0V38.6z"/>
	<path class="st0" d="M55.4,34.2h3.5v0.9c-0.3,0.3-0.6,0.6-0.8,0.9c-0.3,0.4-0.5,0.8-0.6,1.3c-0.1,0.4-0.2,0.8-0.3,1.3H56
		c0.1-0.7,0.3-1.3,0.5-1.8s0.5-1,1-1.5h-2.1C55.4,35.4,55.4,34.2,55.4,34.2z"/>
</g>
<g>
	<path class="st0" d="M42.3,40.8h0.9l1,3.3h-0.8l-0.2-0.8h-1L42,44h-0.8L42.3,40.8z M42.4,42.7h0.7L43,42.4
		c-0.1-0.3-0.2-0.7-0.3-1.1h0c-0.1,0.3-0.2,0.7-0.3,1.1L42.4,42.7z"/>
	<path class="st0" d="M44.5,40.8c0-0.2,0.2-0.4,0.4-0.4s0.4,0.2,0.4,0.4c0,0.2-0.2,0.4-0.4,0.4S44.5,41,44.5,40.8z M44.5,41.5h0.7
		V44h-0.7V41.5z"/>
	<path class="st0" d="M45.9,41.5h0.6l0,0.4h0c0.2-0.3,0.5-0.5,0.7-0.5c0.1,0,0.2,0,0.3,0l-0.1,0.6c-0.1,0-0.2,0-0.3,0
		c-0.2,0-0.4,0.1-0.5,0.5V44h-0.7V41.5z"/>
	<path class="st0" d="M47.7,41.5h0.7l0.2,1.2c0,0.2,0.1,0.5,0.1,0.7h0c0-0.2,0.1-0.5,0.1-0.7l0.3-1.2h0.6l0.3,1.2
		c0.1,0.2,0.1,0.5,0.2,0.7h0c0-0.2,0.1-0.5,0.1-0.7l0.2-1.2h0.7L50.7,44h-0.9l-0.2-1c0-0.2-0.1-0.5-0.1-0.7h0c0,0.3-0.1,0.5-0.1,0.7
		l-0.2,1h-0.8L47.7,41.5z"/>
	<path class="st0" d="M51.6,43.3c0-0.5,0.4-0.8,1.4-0.9c0-0.2-0.1-0.4-0.4-0.4c-0.2,0-0.4,0.1-0.7,0.2l-0.3-0.5
		c0.3-0.2,0.7-0.3,1.1-0.3c0.6,0,1,0.4,1,1.1V44h-0.6l-0.1-0.3h0c-0.2,0.2-0.4,0.3-0.7,0.3C51.9,44.1,51.6,43.7,51.6,43.3z M53,43.3
		v-0.4c-0.5,0.1-0.7,0.2-0.7,0.4c0,0.2,0.1,0.2,0.3,0.2C52.8,43.5,52.9,43.4,53,43.3z"/>
	<path class="st0" d="M54.3,44.9l0.1-0.6c0,0,0.1,0,0.2,0c0.2,0,0.4-0.1,0.4-0.3l0-0.1l-1-2.4h0.7l0.4,1.1c0.1,0.2,0.1,0.5,0.2,0.7
		h0c0.1-0.2,0.1-0.5,0.2-0.7l0.3-1.1h0.7L55.7,44c-0.2,0.6-0.5,0.9-1.1,0.9C54.5,45,54.4,45,54.3,44.9z"/>
	<path class="st0" d="M56.7,43.7l0.3-0.5c0.2,0.2,0.4,0.3,0.6,0.3c0.2,0,0.3-0.1,0.3-0.2c0-0.2-0.3-0.2-0.5-0.3
		c-0.3-0.1-0.6-0.3-0.6-0.7c0-0.5,0.4-0.8,1-0.8c0.4,0,0.7,0.2,0.9,0.3l-0.3,0.4C58.2,42.1,58,42,57.9,42c-0.2,0-0.3,0.1-0.3,0.2
		c0,0.2,0.2,0.2,0.5,0.3c0.3,0.1,0.7,0.3,0.7,0.7c0,0.5-0.4,0.8-1,0.8C57.4,44.1,57,43.9,56.7,43.7z"/>
</g>
</svg>
