<?xml version="1.0" encoding="utf-8"?>
<!-- Generator: Adobe Illustrator 24.1.0, SVG Export Plug-In . SVG Version: 6.00 Build 0)  -->
<svg version="1.1" id="Ebene_1" xmlns="http://www.w3.org/2000/svg" xmlns:xlink="http://www.w3.org/1999/xlink" x="0px" y="0px"
	 viewBox="0 0 109.7 24.9" style="enable-background:new 0 0 109.7 24.9;" xml:space="preserve">
<style>
              /*logo animation*/
.st2 {
	fill: #ffffff;
}

.st0 {
	fill: #003551;
}

.st1 {
	fill: #003551;
}







.d_move {

	stroke: #003551;
	stroke-width: 0.1;
	stroke-dasharray: 225;
	stroke-dashoffset: 225;
	transform: translate(-1.4px, 0px);
	transition: 0.5s ease-in;
	-webkit-transition: 0.5s ease-in;
	-webkit-transform-origin: left;
	transform-origin: left;
}

svg:hover>g>.d_move {
	transform: translate(-3.5px, 0px);
}

svg:hover>.d_letter {
	opacity: 0;
}

.d_letter {
	-webkit-transition: 0.3s ease-in;
	-webkit-transition: 0.3s ease-in;
}



.d_letter {
	stroke: #003551;
	stroke-width: 0.3;
	stroke-dasharray: 225;
	stroke-dashoffset: 225;
}

.d_white {
	fill: #fff;
	stroke: white;
}
            </style>
<g class="d_letter">
	<path class="st0" d="M91.4,16.4h-1v-1h2.2v2.8c-0.7,0.3-1.4,0.5-2.4,0.5c-0.9,0-1.7-0.3-1.7-1.6V15c0-1.3,0.5-1.9,1.9-1.9
		c0.6,0,1.3,0.1,2.1,0.2l-0.2,0.9C91.5,14.1,91,14,90.6,14c-0.7,0-0.8,0.2-0.8,0.9v2c0,0.5,0.2,0.6,0.7,0.6c0.2,0,0.7-0.1,1.1-0.1
		v-1.1C91.5,16.4,91.4,16.4,91.4,16.4z"/>
	<path class="st0" d="M98.1,18.7v-2.8c0-0.2-0.1-0.4-0.4-0.4c-0.2,0-0.6,0.1-0.8,0.2v2.9h-1.3v-2.8c0-0.2-0.1-0.4-0.3-0.4
		c-0.3,0-0.6,0.1-0.8,0.2v2.9h-1.3v-3.9h0.9l0.1,0.2c0.5-0.2,0.9-0.3,1.3-0.3c0.5,0,0.7,0.1,1,0.4c0.5-0.3,0.9-0.4,1.3-0.4
		c0.9,0,1.3,0.5,1.3,1.3v2.8H98v0.1C98,18.7,98.1,18.7,98.1,18.7z"/>
	<path class="st0" d="M103.8,17.4c0,1.1-0.7,1.4-1.7,1.4c-0.7,0-1.7-0.1-2-0.2v-5.2l1.3-0.2v1.7c0.3-0.1,0.6-0.1,1-0.1
		c1.1,0,1.4,0.6,1.4,1.4L103.8,17.4L103.8,17.4z M102.6,16c0-0.3-0.1-0.5-0.4-0.5c-0.2,0-0.5,0.1-0.7,0.1v2.2
		c0.2,0.1,0.5,0.1,0.6,0.1c0.5,0,0.6-0.1,0.6-0.5L102.6,16L102.6,16z"/>
	<path class="st0" d="M107.8,18.7v-2.3h-1.9v2.3h-1.2v-5.4h1.3v2.1h1.9v-2.1h1.3v5.4C109.1,18.7,107.8,18.7,107.8,18.7z"/>
	<path class="st0" d="M38.6,18.7v-10h2.8v10H38.6z"/>
	<path class="st0" d="M48.5,14.7h-1.7v-2.2H51v5.3c-1.3,0.7-2.8,1-4.7,1c-1.7,0-3.4-0.6-3.4-3v-3.7c0-2.4,1-3.5,3.7-3.5
		c1.1,0,2.6,0.1,4.2,0.4l-0.5,2.2c-1.7-0.3-2.7-0.4-3.5-0.4c-1.1,0-1.2,0.4-1.2,1.4v3.6c0,0.8,0.3,0.9,1.1,0.9
		c0.4,0,1.3-0.1,1.7-0.2L48.5,14.7L48.5,14.7z"/>
	<path class="st0" d="M52.6,18.7v-10h2.8v10H52.6z"/>
	<path class="st0" d="M57,18.7v-10h3.9c2.8,0,4.2,0.7,4.2,3.5v3.1c0,2.3-0.7,3.5-4,3.5C61.1,18.7,57,18.7,57,18.7z M62.3,12.3
		c0-0.9,0-1.4-1.2-1.4h-1.4v5.6H61c1.1,0,1.3-0.3,1.3-1.1V12.3z"/>
	<path class="st0" d="M72.1,17h-2.9l-0.6,1.7h-2.9l3.5-10h3.1l3.5,10h-3.1L72.1,17z M69.6,14.8h2l-1.1-3.7L69.6,14.8z"/>
	<path class="st0" d="M29,18.7v-10h3.9c2.8,0,4.2,0.7,4.2,3.5v3.1c0,2.3-0.7,3.5-4,3.5C33.1,18.7,29,18.7,29,18.7z M34.3,12.3
		c0-0.9,0-1.4-1.2-1.4h-1.4v5.6H33c1.1,0,1.3-0.3,1.3-1.1V12.3z"/>
	<polygon class="st0" points="81.6,7.8 81.4,8.7 79.7,16.3 77.9,8.7 74.8,8.7 78,18.7 81.3,18.7 84.5,8.7 87.9,5.5 	"/>
</g>
<g>
	<g>
		<path class="st0" d="M21.6,23.2L4.9,24.4c-1.7,0.1-3.1-1.1-3.3-2.8L0.5,4.9C0.4,3.2,1.6,1.8,3.3,1.6L20,0.4
			c1.7-0.1,3.1,1.1,3.3,2.8l1.2,16.7C24.5,21.6,23.3,23.1,21.6,23.2z"/>
	</g>
	<g class="d_move">
		<polygon class="d_white" points="9.8,13.7 10.1,14.9 14.6,14 14.2,12.2 8.7,13.7 7.4,14.1 8.8,13.9 		"/>
		<polygon class="d_white" points="9.5,12.5 14,11.7 13.5,9.9 8.3,11.3 6.8,11.7 9.2,11.5 		"/>
		<polygon class="d_white" points="8.8,9.3 8.9,10.3 13.5,9.3 13.1,7.5 8.6,8.7 6.1,9.3 8.5,9.4 		"/>
		<path class="d_white" d="M21.3,3c-0.3-0.2-0.7-0.4-1-0.4c-2.4-0.3-5.1,0-7.4,0.6l-7.7,2C5.4,5.2,7.7,5,7.7,5l0.1,0.7l2.6-0.5L15,4.4l-5,1.5
			L5.6,7.2L8.2,7l0.3,1L9,7.9L13,7V6.7V6.5l2-0.6c2.8-0.7,5.6,1.1,6.3,3.8l0.1,0.6c0.7,2.8-1.1,5.6-3.8,6.3l-2.1,0.5h-0.1l-0.1-0.6
			l-3.8,1l-3,0.9l2.5-0.2l0.4,1.4l7.5-1.8L8.6,21.5c7.5-1.6,10.9-1.5,13.5-3.2c0,0,0.5-0.3,1.2-1c0.1-0.1,0.3-0.2,0.5-0.4
			C29.6,8.2,21.3,3,21.3,3z"/>
		<polygon class="d_white" points="10.3,16 10.6,17.3 15,16.3 14.6,14.5 9.7,15.7 7.9,16.2 9.9,16 		"/>
	</g>
</g>
</svg>
