<?xml version="1.0" encoding="utf-8"?>
<!-- Generator: Adobe Illustrator 24.0.1, SVG Export Plug-In . SVG Version: 6.00 Build 0)  -->
<svg version="1.1" id="Ebene_1" xmlns="http://www.w3.org/2000/svg" xmlns:xlink="http://www.w3.org/1999/xlink" x="0px" y="0px"
	 viewBox="0 0 117.9 35.2" style="enable-background:new 0 0 117.9 35.2;" xml:space="preserve">
<style type="text/css">
	.st0{fill:#003551;}
	.st1{fill:url(#SVGID_1_);}
</style>
<g>
	<path class="st0" d="M38.9,27.9v-10h2.8v10H38.9z"/>
	<path class="st0" d="M52.9,27.9v-10h2.8v10H52.9z"/>
	<path class="st0" d="M57.3,27.9v-10h3.9c2.8,0,4.2,0.7,4.2,3.5v3.1c0,2.3-0.7,3.5-4,3.5C61.4,27.9,57.3,27.9,57.3,27.9z M62.6,21.5
		c0-0.9,0-1.4-1.2-1.4H60v5.6h1.3c1.1,0,1.3-0.3,1.3-1.1V21.5z"/>
	<path class="st0" d="M72.4,26.2h-2.9l-0.6,1.7H66l3.5-10h3.1l3.5,10H73L72.4,26.2z M69.9,24h2l-1.1-3.7L69.9,24z"/>
	<path class="st0" d="M78.3,27.9l-3.2-10h3.1l1.8,7.6l1.7-7.6h3.1l-3.2,10H78.3z"/>
	<path class="st0" d="M91.7,25.6h-1v-1h2.2v2.8c-0.7,0.3-1.4,0.5-2.4,0.5c-0.9,0-1.7-0.3-1.7-1.6v-2.1c0-1.3,0.5-1.9,1.9-1.9
		c0.6,0,1.3,0.1,2.1,0.2l-0.2,0.9c-0.8-0.1-1.3-0.2-1.7-0.2c-0.7,0-0.8,0.2-0.8,0.9v2c0,0.5,0.2,0.6,0.7,0.6c0.2,0,0.7-0.1,1.1-0.1
		v-1.1C91.8,25.6,91.7,25.6,91.7,25.6z"/>
	<path class="st0" d="M98.4,27.9v-2.8c0-0.2-0.1-0.4-0.4-0.4c-0.2,0-0.6,0.1-0.8,0.2v2.9h-1.3V25c0-0.2-0.1-0.4-0.3-0.4
		c-0.3,0-0.6,0.1-0.8,0.2v2.9h-1.3v-3.9h0.9l0.1,0.2c0.5-0.2,0.9-0.3,1.3-0.3c0.5,0,0.7,0.1,1,0.4c0.5-0.3,0.9-0.4,1.3-0.4
		c0.9,0,1.3,0.5,1.3,1.3v2.8h-1.1v0.1C98.3,27.9,98.4,27.9,98.4,27.9z"/>
	<path class="st0" d="M104.1,26.6c0,1.1-0.7,1.4-1.7,1.4c-0.7,0-1.7-0.1-2-0.2v-5.2l1.3-0.2v1.7c0.3-0.1,0.6-0.1,1-0.1
		c1.1,0,1.4,0.6,1.4,1.4L104.1,26.6L104.1,26.6z M102.9,25.2c0-0.3-0.1-0.5-0.4-0.5c-0.2,0-0.5,0.1-0.7,0.1V27
		c0.2,0.1,0.5,0.1,0.6,0.1c0.5,0,0.6-0.1,0.6-0.5L102.9,25.2L102.9,25.2z"/>
	<path class="st0" d="M108.1,27.9v-2.3h-1.9v2.3H105v-5.4h1.3v2.1h1.9v-2.1h1.3v5.4C109.4,27.9,108.1,27.9,108.1,27.9z"/>
</g>
<path class="st0" d="M29.3,27.9v-10h3.9c2.8,0,4.2,0.7,4.2,3.5v3.1c0,2.3-0.7,3.5-4,3.5C33.4,27.9,29.3,27.9,29.3,27.9z M34.6,21.5
	c0-0.9,0-1.4-1.2-1.4H32v5.6h1.3c1.1,0,1.3-0.3,1.3-1.1V21.5z"/>
<g>
	
		<linearGradient id="SVGID_1_" gradientUnits="userSpaceOnUse" x1="22.8503" y1="4529.9771" x2="4.4215" y2="4559.1978" gradientTransform="matrix(1 0 0 1 0 -4524.5127)">
		<stop  offset="0" style="stop-color:#00204E"/>
		<stop  offset="1" style="stop-color:#003551"/>
	</linearGradient>
	<path class="st1" d="M24.3,27.2c-0.2,0.2-0.4,0.3-0.5,0.4l0,0c-0.8,0.6-1.3,0.9-1.3,0.9l0,0c-2.7,1.5-6.1,1.2-13.6,2.3l10.3-2.9
		l-7.6,1.3l-0.3-1.4H8.8l3-0.7l3.8-0.8l0.1,0.6h0.1l2.1-0.4c2.8-0.5,4.7-3.2,4.2-6L22,19.9c-0.5-2.8-3.2-4.7-6-4.2l-2,0.5l0,0v0.2
		v0.3l-4,0.6l-0.5,0.1l-0.2-1H6.7l4.5-1l5.1-1.2l-4.6,0.5L9.1,15L9,14.3c0,0-2.3,0-2.5,0l7.8-1.5c2.3-0.4,5-0.6,7.4-0.1
		c0.3,0.1,0.7,0.3,1,0.5c0.9,0.6,2.2,1.6,3.5,3.5c0,0-0.7-1.7-1.9-3.1v-0.2c0-1.9-1.6-3.5-3.5-3.5h-16c-1.9,0-3.5,1.6-3.5,3.5v16
		c0,1.9,1.6,3.5,3.5,3.5h16c1.9,0,3.5-1.6,3.5-3.5V29c1.2-1.5,1.9-3.7,1.9-3.7C25.5,26.1,24.8,26.7,24.3,27.2z M9.7,18l4.5-0.9
		l0.3,1.9l-4.6,0.7l-0.1-1H9.5l-2.3-0.2L9.7,18z M9.2,20.6l5.3-1.1l0.3,1.9l-4.5,0.5l-0.2-1H7.7L9.2,20.6z M9.5,23l5.5-1.1l0.3,1.8
		l-4.5,0.6l-0.2-1.2l-1,0.1l-1.5,0.1L9.5,23z M10.3,25.1l5-0.9l0.3,1.8l-4.5,0.7l-0.2-1.3h-0.4h-2L10.3,25.1z"/>
</g>
<polygon class="st0" points="84.8,17.9 81.5,18.8 81.9,17 88.2,14.7 "/>
<g>
	<path class="st0" d="M48.7,23.9H47v-2.2h4.2v5.3c-1.3,0.7-2.8,1-4.7,1c-1.7,0-3.4-0.6-3.4-3v-3.7c0-2.4,1-3.5,3.7-3.5
		c1.1,0,2.6,0.1,4.2,0.4l-0.5,2.2C48.8,20.1,47.8,20,47,20c-1.1,0-1.2,0.4-1.2,1.4V25c0,0.8,0.3,0.9,1.1,0.9c0.4,0,1.3-0.1,1.7-0.2
		V23.9z"/>
</g>
</svg>
