<?xml version="1.0" encoding="utf-8"?>
<!-- Generator: Adobe Illustrator 24.0.1, SVG Export Plug-In . SVG Version: 6.00 Build 0)  -->
<svg version="1.1" id="Ebene_1" xmlns="http://www.w3.org/2000/svg" xmlns:xlink="http://www.w3.org/1999/xlink" x="0px" y="0px"
	 viewBox="0 0 113.4 70.9" style="enable-background:new 0 0 113.4 70.9;" xml:space="preserve">
<style type="text/css">
	.st0{fill:#003551;}
	.st1{fill:none;}
	.st2{enable-background:new    ;}
	.st3{fill:#FFFFFF;}
</style>
<g>
	<path class="st0" d="M56.8,28.1L37.4,17.9v21.4c0,0.3,0.1,0.4,0.4,0.7l19,9.8L56.8,28.1L56.8,28.1z"/>
	<path class="st0" d="M57.6,26.9l19.5-10L57.7,8.3c-0.1,0-0.3,0-0.4,0l-18.8,8.5L57.6,26.9z"/>
	<path class="st0" d="M58.1,28.1v21.5l19-9.8c0.3-0.1,0.4-0.3,0.4-0.7v-21L58.1,28.1z"/>
</g>
<rect x="58.2" y="29.2" class="st1" width="19.4" height="11.2"/>
<g class="st2">
	<path class="st3" d="M71.3,33.8c0,1.7-1.1,2.8-3,3.6c-1.1,0.7-2.3,0.9-2.8,0.9l0.3-1.5c0.4-0.1,1.7-0.4,2.3-0.8
		c0.9-0.4,1.2-0.9,1.2-1.3v-0.4c0-0.4-0.3-0.7-0.8-0.3c-0.3,0.1-0.8,0.4-1.3,0.8L66.4,34l2.2-3.1l-3.1,1.5v-1.3l5.1-2.4v1.2
		l-1.9,2.6c0,0,0.1-0.1,0.3-0.1c1.1-0.4,1.9-0.4,1.9,1.1v0.4h0.4V33.8z"/>
</g>
<g>
	<path class="st3" d="M51.8,39c-0.1,0.1-0.1,0.1-0.3,0l0,0c-0.4,0.1-0.4,0.1-0.4,0.1l0,0c-1.2,0.1-2.4-0.8-5.5-2.2l4.3,1.1l-3.1-1.2
		l-0.1-0.7l-1.1-0.7l1.2,0.4l1.5,0.4v0.3l0,0l0.9,0.3c1.2,0.3,2-0.4,1.7-2v-0.3c-0.3-1.5-1.2-3.1-2.4-3.4L47.7,31l0,0v0.1v0.1
		L46,30.7L45.7,31v-0.4l-0.9-0.7l1.9,0.7l2,0.7l-2-0.8L45.8,30v-0.3c0,0-0.9-0.4-1.1-0.7l3.2,1.1c0.9,0.3,2,0.9,3,1.7
		c0.1,0,0.3,0.3,0.4,0.4c0.4,0.4,0.9,1.2,1.3,2.4c0,0-0.3-0.9-0.8-2v-0.3c0-0.9-0.7-2-1.3-2.4L43.8,26c-0.8-0.4-1.3,0-1.3,0.9v7.8
		c0,0.9,0.7,2,1.3,2.4l6.6,3.9c0.8,0.4,1.3,0,1.3-0.9V40c0.4-0.4,0.8-1.3,0.8-1.3C52.3,38.7,52.2,38.9,51.8,39z M46,31.2l1.9,0.7
		l0.1,0.9L46.1,32v-0.4H46l-0.9-0.7L46,31.2z M45.7,32.3l2.2,0.8L48,34l-1.9-0.8L46,32.8l-0.9-0.4C45.1,32.3,45.7,32.3,45.7,32.3z
		 M45.9,33.5l2.2,0.8l0.1,0.9l-1.9-0.8l-0.1-0.7L45.9,33.5l-0.5-0.1L45.9,33.5z M46.1,34.7l2,0.8l0.1,0.9l-2-0.8V35L46.1,34.7
		l-0.8-0.3L46.1,34.7z"/>
</g>
<rect x="0.1" y="56.8" class="st1" width="113.2" height="12.1"/>
<g class="st2">
	<path class="st0" d="M24.9,61.3v1.8h-1.2v-6.1h2.3c1.4,0,2.2,0.7,2.2,2.1s-0.7,2.2-2.2,2.2H24.9z M25.9,60.2c0.6,0,0.9-0.4,0.9-1.2
		c0-0.8-0.3-1.1-0.9-1.1h-1v2.2H25.9z"/>
	<path class="st0" d="M28.8,58.6H30V59c0,0,0.8-0.4,1.4-0.6v1.2C30.7,59.8,30,60,30,60v3h-1.2V58.6z"/>
	<path class="st0" d="M35.7,62l0,0.9c0,0-1,0.3-1.9,0.3c-1.4,0-1.9-0.7-1.9-2.3c0-1.6,0.7-2.4,2-2.4c1.3,0,2,0.7,2,2l-0.1,0.8h-2.6
		c0,0.5,0.3,0.8,0.9,0.8C34.8,62.1,35.7,62,35.7,62z M34.7,60.4c0-0.7-0.2-1-0.8-1c-0.6,0-0.8,0.3-0.8,1H34.7z"/>
	<path class="st0" d="M36.7,63.1v-4.5h1.2v0.3c0,0,0.6-0.4,1.1-0.4c0.5,0,0.9,0.1,1.1,0.4c0,0,0.8-0.4,1.5-0.4
		c1.2,0,1.6,0.7,1.6,2.2v2.4H42v-2.4c0-0.7-0.1-1.1-0.6-1.1c-0.4,0-0.8,0.2-0.8,0.2s0,0.7,0,1v2.3h-1.2v-2.3c0-0.8-0.1-1.2-0.6-1.2
		c-0.4,0-0.8,0.2-0.8,0.2v3.4H36.7z"/>
	<path class="st0" d="M44.3,56.8h1.2V58h-1.2V56.8z M44.3,58.6h1.2v4.5h-1.2V58.6z"/>
	<path class="st0" d="M50.5,58.6v4.5h-1.2v-0.3c0,0-0.6,0.4-1.1,0.4c-1.3,0-1.6-0.7-1.6-2.2v-2.4h1.2v2.4c0,0.8,0,1.2,0.6,1.2
		c0.5,0,0.9-0.2,0.9-0.2v-3.4H50.5z"/>
	<path class="st0" d="M51.6,63.1v-4.5h1.2v0.3c0,0,0.6-0.4,1.1-0.4c0.5,0,0.9,0.1,1.1,0.4c0,0,0.8-0.4,1.5-0.4
		c1.2,0,1.6,0.7,1.6,2.2v2.4h-1.2v-2.4c0-0.7-0.1-1.1-0.6-1.1c-0.4,0-0.8,0.2-0.8,0.2s0,0.7,0,1v2.3h-1.2v-2.3
		c0-0.8-0.1-1.2-0.6-1.2c-0.4,0-0.8,0.2-0.8,0.2v3.4H51.6z"/>
	<path class="st0" d="M59.1,60.1h2.7v1.1h-2.7V60.1z"/>
	<path class="st0" d="M64.2,61.3v1.8h-1.2v-6.1h2.3c1.4,0,2.2,0.7,2.2,2.1s-0.7,2.2-2.2,2.2H64.2z M65.2,60.2c0.6,0,0.9-0.4,0.9-1.2
		c0-0.8-0.3-1.1-0.9-1.1h-1v2.2H65.2z"/>
	<path class="st0" d="M71.5,61.8c0,0.3,0.1,0.4,0.3,0.4l0,0.9c-0.6,0-0.9-0.1-1.3-0.3c0,0-0.6,0.3-1.3,0.3c-0.9,0-1.4-0.5-1.4-1.5
		c0-1,0.6-1.3,1.6-1.4l1-0.1V60c0-0.4-0.2-0.5-0.5-0.5c-0.6,0-1.7,0.1-1.7,0.1l0-0.8c0,0,1-0.3,1.8-0.3c1.2,0,1.6,0.5,1.6,1.5V61.8z
		 M69.5,61.2c-0.3,0-0.5,0.2-0.5,0.5c0,0.3,0.1,0.5,0.4,0.5c0.4,0,0.9-0.1,0.9-0.1v-1L69.5,61.2z"/>
	<path class="st0" d="M75.8,58.6l0,1c0,0-0.7-0.1-1.1-0.1c-0.9,0-1,0.3-1,1.2c0,1,0.2,1.3,1,1.3c0.3,0,1-0.1,1-0.1l0,1
		c0,0-1,0.2-1.5,0.2c-1.3,0-1.9-0.7-1.9-2.4c0-1.6,0.6-2.3,1.9-2.3C74.9,58.4,75.8,58.6,75.8,58.6z"/>
	<path class="st0" d="M76.7,63.1v-6.3h1.2v3.6l0.5-0.1l0.9-1.7h1.4l-1.2,2.1l1.2,2.4h-1.4l-0.9-1.8l-0.5,0.1v1.7H76.7z"/>
	<path class="st0" d="M84.8,62l0,0.9c0,0-1,0.3-1.9,0.3c-1.4,0-1.9-0.7-1.9-2.3c0-1.6,0.7-2.4,2-2.4c1.3,0,2,0.7,2,2l-0.1,0.8h-2.6
		c0,0.5,0.3,0.8,0.9,0.8C83.9,62.1,84.8,62,84.8,62z M83.8,60.4c0-0.7-0.2-1-0.8-1c-0.6,0-0.8,0.3-0.8,1H83.8z"/>
	<path class="st0" d="M87.2,59.6v1.8c0,0.5,0,0.7,0.4,0.7c0.3,0,0.7,0,0.7,0l0.1,1c0,0-0.6,0.1-0.9,0.1c-1.1,0-1.4-0.4-1.4-1.7v-1.9
		h-0.5v-1H86v-1.3h1.2v1.3h1.1v1H87.2z"/>
</g>
</svg>
