<?xml version="1.0" encoding="utf-8"?>
<!-- Generator: Adobe Illustrator 24.0.1, SVG Export Plug-In . SVG Version: 6.00 Build 0)  -->
<svg version="1.1" id="Ebene_1" xmlns="http://www.w3.org/2000/svg" xmlns:xlink="http://www.w3.org/1999/xlink" x="0px" y="0px"
	 viewBox="0 0 113.4 70.9" style="enable-background:new 0 0 113.4 70.9;" xml:space="preserve">
<style type="text/css">
	.st0{fill:#003551;}
	.st1{fill:none;}
	.st2{enable-background:new    ;}
	.st3{fill:#FFFFFF;}
</style>
<g>
	<path class="st0" d="M56.6,28.1L37.4,17.8V39c0,0.3,0.1,0.4,0.4,0.5l19,10L56.6,28.1L56.6,28.1z"/>
	<path class="st0" d="M57.3,26.9l19.5-10L57.6,8.4c-0.1,0-0.3,0-0.4,0l-18.8,8.5L57.3,26.9z"/>
	<path class="st0" d="M57.8,28.1v21.4l19-9.7c0.3-0.1,0.4-0.3,0.4-0.5V18.2L57.8,28.1z"/>
</g>
<rect x="58" y="29.2" class="st1" width="19.2" height="11.2"/>
<g class="st2">
	<path class="st3" d="M67.4,37.7v-5.9l-1.5,1.6l-0.7-0.7l2.4-2.8l1.6-0.7v7.5L67.4,37.7z"/>
</g>
<g>
	<path class="st3" d="M51.5,39c-0.1,0.1-0.1,0.1-0.3,0l0,0c-0.4,0.1-0.4,0.1-0.4,0.1l0,0c-1.3,0.1-2.4-0.7-5.4-2.2l4.3,0.9l-3-1.3
		L46.4,36l-0.9-0.5l1.3,0.4l1.6,0.4v0.3l0,0l0.8,0.3c1.3,0.3,2-0.4,1.7-2v-0.1c-0.3-1.6-1.3-3-2.4-3.4L48,31.2l0,0v0.1v0.1L46.3,31
		l-0.4-0.1v-0.4L45.1,30l1.9,0.5l2,0.5l-2.2-0.7L46,29.9v-0.4c0,0-0.8-0.4-0.9-0.5l3.1,0.9c0.8,0.3,2,0.8,2.8,1.7
		c0.1,0,0.3,0.3,0.4,0.4c0.4,0.4,0.8,1.3,1.5,2.4c0,0-0.3-0.8-0.7-2v-0.1c0-0.8-0.5-2-1.5-2.4L44.1,26c-0.7-0.4-1.5,0-1.5,0.8v7.8
		c0,0.8,0.5,2,1.5,2.4l6.6,3.9c0.7,0.4,1.5,0,1.5-0.8V40c0.4-0.4,0.7-1.5,0.7-1.5C52.2,38.6,52.1,38.8,51.5,39z M45.9,31.2l1.9,0.5
		l0.1,0.8L46,31.9v-0.4h-0.1L45.1,31L45.9,31.2z M45.6,32.3l2.2,0.7l0.1,0.8L46,33.1l-0.1-0.4l-0.8-0.4
		C45.1,32.3,45.6,32.3,45.6,32.3z M45.7,33.5l2.2,0.7L48,35l-1.9-0.7L46,33.8L45.7,33.5l-0.4-0.1L45.7,33.5z M46,34.7l2,0.7l0.1,0.8
		l-2-0.7V35L46,34.7l-0.7-0.3L46,34.7z"/>
</g>
<rect x="0.1" y="56.8" class="st1" width="113.2" height="12.1"/>
<g class="st2">
	<path class="st0" d="M34.3,58.1c0,0-1.3-0.1-1.8-0.1c-0.7,0-1,0.2-1,0.6c0,0.4,0.2,0.5,1.3,0.8c1.3,0.4,1.7,0.8,1.7,1.8
		c0,1.3-0.9,2-2.1,2c-0.8,0-2-0.3-2-0.3l0.1-1c0,0,1.2,0.2,1.8,0.2c0.7,0,1-0.3,1-0.8c0-0.4-0.2-0.5-1.1-0.8
		c-1.4-0.4-1.9-0.9-1.9-1.8c0-1.3,0.8-1.8,2.1-1.8c0.8,0,2,0.2,2,0.2L34.3,58.1z"/>
	<path class="st0" d="M38.9,61.8c0,0.3,0.1,0.4,0.3,0.4l0,0.9c-0.6,0-0.9-0.1-1.3-0.3c0,0-0.6,0.3-1.3,0.3c-0.9,0-1.4-0.5-1.4-1.5
		c0-1,0.6-1.3,1.6-1.4l1-0.1V60c0-0.4-0.2-0.5-0.5-0.5c-0.6,0-1.7,0.1-1.7,0.1l0-0.8c0,0,1-0.3,1.8-0.3c1.2,0,1.6,0.5,1.6,1.5V61.8z
		 M36.8,61.2c-0.3,0-0.5,0.2-0.5,0.5c0,0.3,0.1,0.5,0.4,0.5c0.4,0,0.9-0.1,0.9-0.1v-1L36.8,61.2z"/>
	<path class="st0" d="M40.8,58.6l0.7,3.5h0.3l0.8-3.5h1.2l-1.1,4.5h-2.1l-1.1-4.5H40.8z"/>
	<path class="st0" d="M47.9,62l0,0.9c0,0-1,0.3-1.9,0.3c-1.4,0-1.9-0.7-1.9-2.3c0-1.6,0.7-2.4,2-2.4c1.3,0,2,0.7,2,2L48,61.3h-2.6
		c0,0.5,0.3,0.8,0.9,0.8C47,62.1,47.9,62,47.9,62z M46.9,60.4c0-0.7-0.2-1-0.8-1c-0.6,0-0.8,0.3-0.8,1H46.9z"/>
	<path class="st0" d="M49,58.6h1.2V59c0,0,0.8-0.4,1.4-0.6v1.2c-0.8,0.2-1.4,0.4-1.4,0.4v3H49V58.6z"/>
	<path class="st0" d="M52,60.1h2.7v1.1H52V60.1z"/>
	<path class="st0" d="M57.1,61.3v1.8h-1.2v-6.1h2.3c1.4,0,2.2,0.7,2.2,2.1s-0.7,2.2-2.2,2.2H57.1z M58.1,60.2c0.6,0,0.9-0.4,0.9-1.2
		c0-0.8-0.3-1.1-0.9-1.1h-1v2.2H58.1z"/>
	<path class="st0" d="M64.4,61.8c0,0.3,0.1,0.4,0.3,0.4l0,0.9c-0.6,0-0.9-0.1-1.3-0.3c0,0-0.6,0.3-1.3,0.3c-0.9,0-1.4-0.5-1.4-1.5
		c0-1,0.6-1.3,1.6-1.4l1-0.1V60c0-0.4-0.2-0.5-0.5-0.5c-0.6,0-1.7,0.1-1.7,0.1l0-0.8c0,0,1-0.3,1.8-0.3c1.2,0,1.6,0.5,1.6,1.5V61.8z
		 M62.4,61.2c-0.3,0-0.5,0.2-0.5,0.5c0,0.3,0.1,0.5,0.4,0.5c0.4,0,0.9-0.1,0.9-0.1v-1L62.4,61.2z"/>
	<path class="st0" d="M68.7,58.6l0,1c0,0-0.7-0.1-1.1-0.1c-0.9,0-1,0.3-1,1.2c0,1,0.2,1.3,1,1.3c0.3,0,1-0.1,1-0.1l0,1
		c0,0-1,0.2-1.5,0.2c-1.3,0-1.9-0.7-1.9-2.4c0-1.6,0.6-2.3,1.9-2.3C67.8,58.4,68.7,58.6,68.7,58.6z"/>
	<path class="st0" d="M69.6,63.1v-6.3h1.2v3.6l0.5-0.1l0.9-1.7h1.4l-1.2,2.1l1.2,2.4h-1.4l-0.9-1.8l-0.5,0.1v1.7H69.6z"/>
	<path class="st0" d="M77.7,62l0,0.9c0,0-1,0.3-1.9,0.3c-1.4,0-1.9-0.7-1.9-2.3c0-1.6,0.7-2.4,2-2.4c1.3,0,2,0.7,2,2l-0.1,0.8h-2.6
		c0,0.5,0.3,0.8,0.9,0.8C76.8,62.1,77.7,62,77.7,62z M76.7,60.4c0-0.7-0.2-1-0.8-1c-0.6,0-0.8,0.3-0.8,1H76.7z"/>
	<path class="st0" d="M80.1,59.6v1.8c0,0.5,0,0.7,0.4,0.7c0.3,0,0.7,0,0.7,0l0.1,1c0,0-0.6,0.1-0.9,0.1c-1.1,0-1.4-0.4-1.4-1.7v-1.9
		h-0.5v-1h0.5v-1.3h1.2v1.3h1.1v1H80.1z"/>
</g>
</svg>
