<?xml version="1.0" encoding="utf-8"?>
<!-- Generator: Adobe Illustrator 24.0.1, SVG Export Plug-In . SVG Version: 6.00 Build 0)  -->
<svg version="1.1" id="Ebene_1" xmlns="http://www.w3.org/2000/svg" xmlns:xlink="http://www.w3.org/1999/xlink" x="0px" y="0px"
	 viewBox="0 0 113.4 70.9" style="enable-background:new 0 0 113.4 70.9;" xml:space="preserve">
<style type="text/css">
	.st0{fill:#003551;}
	.st1{fill:none;}
	.st2{enable-background:new    ;}
	.st3{fill:#FFFFFF;}
</style>
<g>
	<path class="st0" d="M56.8,28L37.1,17.5v21.7c0,0.3,0.1,0.4,0.4,0.7l19.4,10L56.8,28L56.8,28z"/>
	<path class="st0" d="M57.6,26.8l19.8-10.1L57.7,7.8c-0.1,0-0.3,0-0.4,0l-19.2,8.6L57.6,26.8z"/>
	<path class="st0" d="M58.2,28v21.8l19.4-10c0.3-0.1,0.4-0.3,0.4-0.7V17.7L58.2,28z"/>
</g>
<rect x="58.4" y="29" class="st1" width="19.6" height="11.4"/>
<g class="st2">
	<path class="st3" d="M66.2,38.6V37c0-1.6,0.3-2.2,1.6-3.5c0.3-0.3,1.2-1.2,1.6-1.6c0.1-0.1,0.4-0.4,0.4-0.8V31
		c0-0.4-0.3-0.4-0.8-0.1c-0.7,0.3-1.7,0.9-2.3,1.3l-0.4-1.1c0.9-0.7,2-1.3,3-1.9c1.6-0.8,2.6-0.7,2.6,0.8v0.3c0,0.9-0.4,1.6-1.2,2.3
		c-0.3,0.3-1.3,1.3-1.7,1.7c-0.4,0.4-0.7,0.9-0.7,1.3v0.3l3.6-1.7v1.3L66.2,38.6z"/>
</g>
<g>
	<path class="st3" d="M51.8,39c-0.1,0.1-0.1,0.1-0.3,0l0,0c-0.4,0.1-0.4,0.1-0.4,0.1l0,0c-1.2,0.1-2.6-0.8-5.6-2.2l4.3,1.1l-3.1-1.2
		l-0.1-0.7l-1.1-0.7l1.2,0.4l1.6,0.4v0.3l0,0l0.9,0.3c1.2,0.3,2-0.4,1.7-2v-0.3c-0.3-1.6-1.2-3.1-2.6-3.5l-0.8-0.1l0,0V31v0.1
		l-1.7-0.7l-0.3-0.1V30l-0.9-0.7l1.9,0.7l2,0.7l-2-0.8l-0.9-0.4v-0.1c0,0-0.9-0.4-1.1-0.7l3.2,1.1c0.9,0.3,2,0.9,3,1.7
		c0.1,0,0.3,0.3,0.4,0.4c0.4,0.4,0.9,1.2,1.3,2.6c0,0-0.3-0.9-0.8-2v-0.3c0-0.9-0.7-2-1.3-2.6l-6.7-3.9c-0.8-0.4-1.3,0-1.3,0.9v8.1
		c0,0.9,0.7,2,1.3,2.6l6.7,3.9c0.8,0.4,1.3,0,1.3-0.9v-0.1c0.4-0.4,0.8-1.3,0.8-1.3C52.2,38.7,52.1,38.9,51.8,39z M45.9,31.1
		l1.9,0.7l0.1,0.9L46,31.9v-0.4h-0.1L45,30.8L45.9,31.1z M45.6,32.1l2.2,0.8l0.1,0.9L46,33.1l-0.1-0.4L45,32.3
		C44.9,32.1,45.6,32.1,45.6,32.1z M45.7,33.5l2.2,0.8l0.1,0.9l-1.9-0.8L46,33.8L45.7,33.5l-0.4-0.1L45.7,33.5z M46,34.7l2,0.8
		l0.1,0.9l-2-0.8V35L46,34.7l-0.8-0.3L46,34.7z"/>
</g>
<rect x="0.1" y="56.8" class="st1" width="113.2" height="12.1"/>
<g class="st2">
	<path class="st0" d="M31.4,58.1c0,0-1.3-0.1-1.8-0.1c-0.7,0-1,0.2-1,0.6c0,0.4,0.2,0.5,1.3,0.8c1.3,0.4,1.7,0.8,1.7,1.8
		c0,1.3-0.9,2-2.1,2c-0.8,0-2-0.3-2-0.3l0.1-1c0,0,1.2,0.2,1.8,0.2c0.7,0,1-0.3,1-0.8c0-0.4-0.2-0.5-1.1-0.8
		c-1.4-0.4-1.9-0.9-1.9-1.8c0-1.3,0.8-1.8,2.1-1.8c0.8,0,2,0.2,2,0.2L31.4,58.1z"/>
	<path class="st0" d="M33.9,59.6v1.8c0,0.5,0,0.7,0.4,0.7c0.3,0,0.7,0,0.7,0l0.1,1c0,0-0.6,0.1-0.9,0.1c-1.1,0-1.4-0.4-1.4-1.7v-1.9
		h-0.5v-1h0.5v-1.3h1.2v1.3H35v1H33.9z"/>
	<path class="st0" d="M39.2,61.8c0,0.3,0.1,0.4,0.3,0.4l0,0.9c-0.6,0-0.9-0.1-1.3-0.3c0,0-0.6,0.3-1.3,0.3c-0.9,0-1.4-0.5-1.4-1.5
		c0-1,0.6-1.3,1.6-1.4l1-0.1V60c0-0.4-0.2-0.5-0.5-0.5c-0.6,0-1.7,0.1-1.7,0.1l0-0.8c0,0,1-0.3,1.8-0.3c1.2,0,1.6,0.5,1.6,1.5V61.8z
		 M37.2,61.2c-0.3,0-0.5,0.2-0.5,0.5c0,0.3,0.1,0.5,0.4,0.5c0.4,0,0.9-0.1,0.9-0.1v-1L37.2,61.2z"/>
	<path class="st0" d="M40.4,58.6h1.2V59c0,0,0.8-0.4,1.4-0.6v1.2c-0.8,0.2-1.4,0.4-1.4,0.4v3h-1.2V58.6z"/>
	<path class="st0" d="M45.1,59.6v1.8c0,0.5,0,0.7,0.4,0.7c0.3,0,0.7,0,0.7,0l0.1,1c0,0-0.6,0.1-0.9,0.1c-1.1,0-1.4-0.4-1.4-1.7v-1.9
		h-0.5v-1h0.5v-1.3h1.2v1.3h1.1v1H45.1z"/>
	<path class="st0" d="M50.6,62l0,0.9c0,0-1,0.3-1.9,0.3c-1.4,0-1.9-0.7-1.9-2.3c0-1.6,0.7-2.4,2-2.4c1.3,0,2,0.7,2,2l-0.1,0.8H48
		c0,0.5,0.3,0.8,0.9,0.8C49.7,62.1,50.6,62,50.6,62z M49.6,60.4c0-0.7-0.2-1-0.8-1c-0.6,0-0.8,0.3-0.8,1H49.6z"/>
	<path class="st0" d="M51.6,58.6h1.2V59c0,0,0.8-0.4,1.4-0.6v1.2c-0.8,0.2-1.4,0.4-1.4,0.4v3h-1.2V58.6z"/>
	<path class="st0" d="M54.7,60.1h2.7v1.1h-2.7V60.1z"/>
	<path class="st0" d="M59.7,61.3v1.8h-1.2v-6.1h2.3c1.4,0,2.2,0.7,2.2,2.1s-0.7,2.2-2.2,2.2H59.7z M60.7,60.2c0.6,0,0.9-0.4,0.9-1.2
		c0-0.8-0.3-1.1-0.9-1.1h-1v2.2H60.7z"/>
	<path class="st0" d="M67.1,61.8c0,0.3,0.1,0.4,0.3,0.4l0,0.9c-0.6,0-0.9-0.1-1.3-0.3c0,0-0.6,0.3-1.3,0.3c-0.9,0-1.4-0.5-1.4-1.5
		c0-1,0.6-1.3,1.6-1.4l1-0.1V60c0-0.4-0.2-0.5-0.5-0.5c-0.6,0-1.7,0.1-1.7,0.1l0-0.8c0,0,1-0.3,1.8-0.3c1.2,0,1.6,0.5,1.6,1.5V61.8z
		 M65.1,61.2c-0.3,0-0.5,0.2-0.5,0.5c0,0.3,0.1,0.5,0.4,0.5c0.4,0,0.9-0.1,0.9-0.1v-1L65.1,61.2z"/>
	<path class="st0" d="M71.4,58.6l0,1c0,0-0.7-0.1-1.1-0.1c-0.9,0-1,0.3-1,1.2c0,1,0.2,1.3,1,1.3c0.3,0,1-0.1,1-0.1l0,1
		c0,0-1,0.2-1.5,0.2c-1.3,0-1.9-0.7-1.9-2.4c0-1.6,0.6-2.3,1.9-2.3C70.5,58.4,71.4,58.6,71.4,58.6z"/>
	<path class="st0" d="M72.3,63.1v-6.3h1.2v3.6l0.5-0.1l0.9-1.7h1.4L75,60.7l1.2,2.4h-1.4L74,61.3l-0.5,0.1v1.7H72.3z"/>
	<path class="st0" d="M80.4,62l0,0.9c0,0-1,0.3-1.9,0.3c-1.4,0-1.9-0.7-1.9-2.3c0-1.6,0.7-2.4,2-2.4c1.3,0,2,0.7,2,2l-0.1,0.8h-2.6
		c0,0.5,0.3,0.8,0.9,0.8C79.5,62.1,80.4,62,80.4,62z M79.4,60.4c0-0.7-0.2-1-0.8-1c-0.6,0-0.8,0.3-0.8,1H79.4z"/>
	<path class="st0" d="M82.8,59.6v1.8c0,0.5,0,0.7,0.4,0.7c0.3,0,0.7,0,0.7,0l0.1,1c0,0-0.6,0.1-0.9,0.1c-1.1,0-1.4-0.4-1.4-1.7v-1.9
		h-0.5v-1h0.5v-1.3h1.2v1.3h1.1v1H82.8z"/>
</g>
</svg>
